<?xml version="1.0" encoding="utf-8"?>
<!-- Generator: Adobe Illustrator 15.1.0, SVG Export Plug-In . SVG Version: 6.00 Build 0)  -->
<!DOCTYPE svg PUBLIC "-//W3C//DTD SVG 1.1//EN" "http://www.w3.org/Graphics/SVG/1.1/DTD/svg11.dtd">
<svg version="1.1" id="Livello_1" xmlns="http://www.w3.org/2000/svg" xmlns:xlink="http://www.w3.org/1999/xlink" x="0px" y="0px"
	 width="83px" height="83px" viewBox="0 0 83 83" enable-background="new 0 0 83 83" xml:space="preserve">
<circle fill="#C7C6C7" cx="41.5" cy="41.501" r="32.667"/>
<g>
	<path fill="#939393" d="M45.112,54.502L45.112,54.502"/>
</g>
<g>
	<path fill="#EFEEEE" d="M45.112,53.774L45.112,53.774"/>
</g>
<g>
	<path id="path4906_1_" fill="#939393" d="M64.988,32.122l-3.707,29.181H48.77l-3.695-29.181h15.281l3.026-10.552l1.71,0.48
		l-2.894,10.066L64.988,32.122z"/>
	<path id="path4908_1_" fill="#939393" d="M44.57,47.917c0,0,0.515-4.663-6.614-4.663H26.599c-7.116,0-6.614,4.663-6.614,4.663
		H44.57z"/>
	<path id="path4910_1_" fill="#939393" d="M19.985,56.629c0,0-0.501,4.674,6.614,4.674h11.357c7.128,0,6.614-4.674,6.614-4.674
		H19.985z"/>
	<path id="path4912_1_" fill="#939393" d="M43.504,54.373c1.168,0,2.109-0.947,2.109-2.109c0-1.156-0.941-2.099-2.109-2.099H20.952
		c-1.161,0-2.11,0.942-2.11,2.099c0,1.162,0.949,2.109,2.11,2.109H43.504z"/>
</g>
<path id="path4906" fill="#EFEEEE" d="M64.988,31.392l-3.707,29.18H48.77l-3.695-29.18h15.281l3.026-10.553l1.71,0.48l-2.894,10.066
	L64.988,31.392z"/>
<path id="path4908" fill="#EFEEEE" d="M44.57,47.114c0,0,0.515-4.661-6.614-4.661H26.599c-7.116,0-6.614,4.661-6.614,4.661H44.57z"
	/>
<path id="path4910" fill="#EFEEEE" d="M19.985,55.826c0,0-0.501,4.674,6.614,4.674h11.357c7.128,0,6.614-4.674,6.614-4.674H19.985z"
	/>
<path id="path4912" fill="#EFEEEE" d="M43.504,53.57c1.168,0,2.109-0.947,2.109-2.11c0-1.155-0.941-2.098-2.109-2.098H20.952
	c-1.161,0-2.11,0.942-2.11,2.098c0,1.163,0.949,2.11,2.11,2.11H43.504z"/>
</svg>
