<?xml version="1.0" encoding="utf-8"?>
<!-- Generator: Adobe Illustrator 15.1.0, SVG Export Plug-In . SVG Version: 6.00 Build 0)  -->
<!DOCTYPE svg PUBLIC "-//W3C//DTD SVG 1.1//EN" "http://www.w3.org/Graphics/SVG/1.1/DTD/svg11.dtd">
<svg version="1.1" id="Livello_1" xmlns="http://www.w3.org/2000/svg" xmlns:xlink="http://www.w3.org/1999/xlink" x="0px" y="0px"
	 width="83px" height="83px" viewBox="0 0 83 83" enable-background="new 0 0 83 83" xml:space="preserve">
<circle fill="#C7C6C7" cx="41.5" cy="41.501" r="32.667"/>
<g>
	<g>
		<path fill="#939393" d="M63.554,30.185c0,0.381-0.31,0.689-0.69,0.689C63.244,30.874,63.554,30.566,63.554,30.185
			c0-0.381-0.31-0.69-0.69-0.69C63.244,29.495,63.554,29.804,63.554,30.185z"/>
		<path fill="#939393" d="M62.863,52.915c0.381,0,0.69,0.309,0.69,0.689C63.554,53.224,63.244,52.915,62.863,52.915z"/>
		<path fill="#939393" d="M62.527,53.004c0.036-0.021,0.077-0.037,0.119-0.051C62.604,52.967,62.563,52.983,62.527,53.004z"/>
		<path fill="#939393" d="M62.863,30.874c-0.379,0-0.688-0.308-0.688-0.689c0-0.381,0.31-0.69,0.688-0.69
			c-0.38,0-0.688,0.309-0.688,0.69C62.175,30.566,62.483,30.874,62.863,30.874z"/>
		<path fill="#939393" d="M62.175,53.604c0,0.379,0.309,0.689,0.688,0.689C62.484,54.294,62.175,53.983,62.175,53.604z"/>
		<path fill="#939393" d="M62.863,54.294c0.381,0,0.69-0.311,0.69-0.689C63.554,53.983,63.244,54.294,62.863,54.294z"/>
		<path fill="#939393" d="M36.955,42.647c0.006,0.024,0.014,0.048,0.02,0.077C36.969,42.695,36.961,42.672,36.955,42.647z"/>
		<path fill="#939393" d="M52.117,48.544c2.672,0,4.846-2.174,4.846-4.846C56.963,46.37,54.789,48.544,52.117,48.544z"/>
		<path fill="#939393" d="M32.228,48.544c2.673,0,4.846-2.174,4.846-4.846C37.073,46.37,34.898,48.544,32.228,48.544z"/>
		<path fill="#939393" d="M56.963,43.698c0-2.506-1.91-4.574-4.35-4.821C55.053,39.125,56.963,41.192,56.963,43.698z"/>
		<path fill="#939393" d="M62.441,53.063c0.012-0.011,0.022-0.023,0.035-0.031C62.464,53.04,62.453,53.053,62.441,53.063z"/>
		<path fill="#939393" d="M31.284,30.402c0.062,0.297,0.324,0.52,0.639,0.52C31.608,30.922,31.346,30.699,31.284,30.402z"/>
		<path fill="#939393" d="M49.802,31.659c-0.014,0.015-0.034,0.021-0.048,0.034C49.768,31.68,49.788,31.674,49.802,31.659z"/>
		<path fill="#939393" d="M49.643,31.768c-0.06,0.025-0.127,0.04-0.197,0.04C49.516,31.807,49.583,31.793,49.643,31.768z"/>
		<path fill="#939393" d="M49.445,31.807c-0.277,0-0.501-0.225-0.502-0.502l0,0C48.943,31.582,49.168,31.807,49.445,31.807z"/>
		<path fill="#939393" d="M49.445,30.803c-0.187,0-0.342,0.106-0.43,0.259C49.104,30.909,49.259,30.803,49.445,30.803z"/>
		<path fill="#939393" d="M52.314,30.269c0,0.36-0.292,0.653-0.649,0.653C52.024,30.922,52.314,30.629,52.314,30.269
			c0-0.358-0.292-0.65-0.649-0.65C52.022,29.619,52.314,29.911,52.314,30.269z"/>
		<path fill="#939393" d="M51.499,29.644c-0.236,0.061-0.422,0.252-0.473,0.496C51.077,29.897,51.263,29.704,51.499,29.644z"/>
		<path fill="#939393" d="M48.975,31.147c0.005-0.013,0.004-0.028,0.009-0.038C48.979,31.12,48.979,31.134,48.975,31.147z"/>
		<path fill="#939393" d="M34.14,31.807c-0.277,0-0.503-0.225-0.503-0.502l0,0C33.637,31.582,33.861,31.807,34.14,31.807z"/>
		<path fill="#939393" d="M34.14,31.807c0.278,0,0.502-0.225,0.502-0.502l0,0C34.642,31.582,34.417,31.807,34.14,31.807z"/>
		<path fill="#939393" d="M62.227,53.345c0-0.004,0.001-0.007,0.002-0.01C62.228,53.338,62.227,53.341,62.227,53.345z"/>
		<path fill="#939393" d="M31.923,29.619c-0.361,0-0.651,0.292-0.651,0.65C31.271,29.911,31.564,29.619,31.923,29.619z"/>
		<path fill="#939393" d="M62.351,53.146c0.009-0.011,0.017-0.021,0.025-0.031C62.367,53.126,62.359,53.136,62.351,53.146z"/>
		<path fill="#939393" d="M32.554,30.12c0,0.006,0.003,0.013,0.005,0.019C32.557,30.133,32.554,30.126,32.554,30.12z"/>
		<path fill="#939393" d="M21.338,53.874c-0.001,0.002-0.005,0.006-0.007,0.008C21.333,53.88,21.336,53.876,21.338,53.874z"/>
		<path fill="#939393" d="M20.013,53.604c0-0.07,0.012-0.135,0.031-0.198C20.025,53.47,20.013,53.534,20.013,53.604z"/>
		<path fill="#939393" d="M21.391,53.604c0,0.068-0.015,0.133-0.031,0.198C21.376,53.737,21.391,53.673,21.391,53.604z"/>
		<path fill="#939393" d="M20.066,53.335c0.002-0.004,0.003-0.005,0.007-0.01C20.07,53.327,20.068,53.331,20.066,53.335z"/>
		<path fill="#939393" d="M21.331,53.325c0.002,0.002,0.005,0.006,0.007,0.01C21.336,53.331,21.333,53.327,21.331,53.325z"/>
		<path fill="#939393" d="M21.36,53.406c0.016,0.063,0.031,0.128,0.031,0.196C21.391,53.534,21.376,53.47,21.36,53.406z"/>
		<path fill="#939393" d="M20.073,53.882c-0.003-0.002-0.005-0.006-0.007-0.011C20.068,53.876,20.07,53.88,20.073,53.882z"/>
		<path fill="#939393" d="M20.013,53.604c0,0.068,0.012,0.133,0.031,0.198C20.025,53.737,20.013,53.673,20.013,53.604z"/>
		<path fill="#939393" d="M30.951,35.056h21.642c0.857,0,1.891-0.7,1.891-1.562l0.003,0.022l0.53-5.814H28.527l0.532,5.852
			C29.059,34.415,30.093,35.056,30.951,35.056z M51.499,29.644c0.055-0.015,0.107-0.025,0.166-0.025c0.357,0,0.649,0.292,0.649,0.65
			c0,0.36-0.292,0.653-0.649,0.653c-0.361,0-0.653-0.293-0.653-0.653c0-0.044,0.007-0.087,0.015-0.129
			C51.077,29.896,51.263,29.704,51.499,29.644z M48.943,31.305c0-0.056,0.016-0.109,0.031-0.158
			c0.005-0.013,0.004-0.028,0.009-0.038c0.007-0.019,0.023-0.031,0.032-0.047c0.087-0.153,0.243-0.259,0.43-0.259
			c0.278,0,0.504,0.226,0.504,0.502c0,0.139-0.057,0.264-0.147,0.354c-0.014,0.015-0.034,0.023-0.048,0.034
			c-0.037,0.027-0.071,0.058-0.112,0.075c-0.061,0.025-0.127,0.04-0.196,0.04C49.168,31.807,48.943,31.582,48.943,31.305
			L48.943,31.305L48.943,31.305z M33.637,31.305c0-0.208,0.126-0.387,0.308-0.464c0.061-0.025,0.125-0.038,0.196-0.038
			c0.068,0,0.134,0.013,0.195,0.038c0.18,0.077,0.307,0.255,0.307,0.464l0,0l0,0c0,0.277-0.224,0.502-0.502,0.502
			C33.861,31.807,33.637,31.582,33.637,31.305L33.637,31.305L33.637,31.305z M31.923,29.619c0.306,0,0.562,0.214,0.631,0.501
			c0,0.006,0.003,0.013,0.005,0.019c0.009,0.042,0.014,0.085,0.014,0.129c0,0.36-0.291,0.653-0.65,0.653
			c-0.315,0-0.577-0.223-0.639-0.52c-0.008-0.042-0.012-0.088-0.012-0.133C31.271,29.911,31.562,29.619,31.923,29.619z"/>
		<path fill="#939393" d="M32.554,30.12c-0.069-0.287-0.325-0.501-0.631-0.501C32.228,29.619,32.483,29.833,32.554,30.12z"/>
		<path fill="#939393" d="M32.559,30.139c0.009,0.042,0.014,0.085,0.014,0.129C32.573,30.225,32.568,30.181,32.559,30.139z"/>
		<path fill="#939393" d="M31.923,30.922c0.359,0,0.65-0.293,0.65-0.653C32.573,30.629,32.281,30.922,31.923,30.922z"/>
		<path fill="#939393" d="M33.944,30.841c-0.181,0.077-0.308,0.255-0.308,0.464l0,0C33.637,31.097,33.763,30.918,33.944,30.841z"/>
		<path fill="#939393" d="M34.642,31.305L34.642,31.305c0-0.208-0.127-0.387-0.307-0.464C34.515,30.918,34.642,31.097,34.642,31.305
			z"/>
		<path fill="#939393" d="M51.026,30.139c-0.008,0.042-0.013,0.085-0.013,0.129C51.014,30.225,51.019,30.181,51.026,30.139z"/>
		<path fill="#939393" d="M51.014,30.269c0,0.36,0.29,0.653,0.651,0.653C51.304,30.922,51.014,30.629,51.014,30.269z"/>
		<path fill="#939393" d="M51.499,29.644c0.055-0.015,0.107-0.025,0.166-0.025C51.606,29.619,51.554,29.629,51.499,29.644z"/>
		<path fill="#939393" d="M49.949,31.305c0,0.137-0.057,0.264-0.147,0.354C49.893,31.569,49.949,31.442,49.949,31.305
			c0-0.276-0.226-0.502-0.504-0.502C49.724,30.803,49.949,31.029,49.949,31.305z"/>
		<path fill="#939393" d="M49.754,31.693c-0.037,0.027-0.071,0.058-0.112,0.075C49.683,31.751,49.719,31.72,49.754,31.693z"/>
		<path fill="#939393" d="M48.983,31.109c0.007-0.019,0.023-0.031,0.032-0.047C49.007,31.079,48.99,31.091,48.983,31.109z"/>
		<path fill="#939393" d="M48.943,31.305L48.943,31.305c0-0.056,0.016-0.109,0.031-0.158C48.959,31.196,48.943,31.25,48.943,31.305z
			"/>
		<path fill="#939393" d="M52.117,47.869c2.305,0,4.173-1.867,4.173-4.171c0-2.306-1.868-4.171-4.173-4.171
			c-2.015,0-3.698,1.429-4.086,3.33c-0.057,0.273-0.085,0.552-0.085,0.842C47.946,46.002,49.813,47.869,52.117,47.869z
			 M49.823,41.879l0.64,0.638l0.489-0.486l-0.642-0.64c0.402-0.319,0.894-0.531,1.429-0.596v0.909h0.69v-0.909
			c0.536,0.065,1.025,0.276,1.429,0.596l-0.642,0.64l0.488,0.486l0.641-0.638c0.316,0.402,0.528,0.893,0.591,1.428h-0.905v0.689
			h0.902c-0.065,0.533-0.277,1.022-0.594,1.424l-0.635-0.634l-0.488,0.485l0.635,0.637c-0.401,0.314-0.89,0.524-1.423,0.587V45.6
			h-0.689v0.896c-0.533-0.062-1.02-0.272-1.423-0.587l0.635-0.637l-0.489-0.485l-0.634,0.634c-0.317-0.401-0.527-0.891-0.593-1.424
			h0.9v-0.689h-0.902C49.296,42.771,49.509,42.281,49.823,41.879z"/>
		<path fill="#939393" d="M32.228,47.869c1.806,0,3.337-1.147,3.919-2.752c0.097-0.27,0.166-0.553,0.207-0.843
			c0.027-0.188,0.044-0.38,0.044-0.576c0-0.145-0.006-0.285-0.02-0.427c-0.213-2.104-1.992-3.745-4.15-3.745
			c-2.16,0-3.937,1.64-4.15,3.745c-0.015,0.142-0.022,0.28-0.022,0.427C28.055,46.002,29.924,47.869,32.228,47.869z M29.917,41.907
			l0.64,0.64l0.488-0.487l-0.643-0.642c0.406-0.316,0.893-0.528,1.432-0.594v0.908h0.688v-0.908
			c0.536,0.065,1.026,0.277,1.429,0.594l-0.641,0.642l0.488,0.487l0.639-0.64c0.318,0.404,0.528,0.894,0.592,1.428h-0.904v0.69
			h0.901c-0.064,0.533-0.275,1.021-0.592,1.424l-0.636-0.635l-0.488,0.488l0.635,0.634c-0.403,0.314-0.891,0.524-1.423,0.588v-0.898
			h-0.689v0.898c-0.534-0.063-1.021-0.273-1.423-0.588l0.635-0.634l-0.488-0.488l-0.636,0.635c-0.315-0.403-0.527-0.891-0.593-1.424
			h0.9v-0.69h-0.903C29.39,42.801,29.6,42.312,29.917,41.907z"/>
		<path fill="#939393" d="M20.739,55.278h42.067c1.045,0,1.919-0.82,1.919-1.866V30.269c0-1.044-0.874-2.108-1.919-2.108h-7.12
			l-0.536,5.142c-0.012,1.242-1.38,2.214-2.558,2.214H30.951c-1.177,0-2.544-0.973-2.559-2.214l-0.535-5.142H20.74
			c-1.045,0-1.978,1.064-1.978,2.108v23.144C18.763,54.458,19.693,55.278,20.739,55.278z M62.863,54.294
			c-0.38,0-0.688-0.311-0.688-0.689c0-0.092,0.019-0.182,0.052-0.26c0-0.004,0.001-0.007,0.002-0.01
			c0.03-0.07,0.073-0.134,0.122-0.188c0.009-0.011,0.017-0.021,0.025-0.031c0.02-0.019,0.043-0.036,0.066-0.052
			c0.011-0.011,0.023-0.023,0.035-0.031c0.017-0.01,0.033-0.018,0.05-0.028c0.036-0.021,0.077-0.037,0.119-0.051
			c0.068-0.023,0.141-0.038,0.217-0.038c0.381,0,0.69,0.309,0.69,0.689C63.554,53.983,63.244,54.294,62.863,54.294z M62.863,29.495
			c0.381,0,0.69,0.309,0.69,0.69c0,0.381-0.31,0.689-0.69,0.689c-0.38,0-0.688-0.308-0.688-0.689
			C62.175,29.804,62.483,29.495,62.863,29.495z M21.519,36.435h40.907v12.792c0,1.565-1.272,2.837-2.835,2.837H24.356
			c-1.564,0-2.837-1.271-2.837-2.837V36.435z M20.7,29.494c0.382,0,0.691,0.311,0.691,0.691c0,0.381-0.309,0.689-0.691,0.689
			c-0.379,0-0.687-0.308-0.687-0.689C20.013,29.804,20.321,29.494,20.7,29.494z M20.044,53.406c0.006-0.024,0.012-0.048,0.022-0.072
			c0.002-0.003,0.003-0.007,0.007-0.009c0.105-0.244,0.347-0.41,0.627-0.41c0.283,0,0.524,0.166,0.631,0.41
			c0.002,0.002,0.005,0.006,0.007,0.009c0.009,0.024,0.015,0.048,0.022,0.072c0.016,0.063,0.031,0.128,0.031,0.196
			s-0.015,0.135-0.031,0.2c-0.008,0.022-0.013,0.045-0.022,0.068c-0.001,0.005-0.005,0.009-0.007,0.011
			c-0.106,0.24-0.348,0.411-0.631,0.411c-0.28,0-0.522-0.171-0.627-0.411c-0.003-0.002-0.005-0.006-0.007-0.011
			c-0.009-0.023-0.016-0.046-0.022-0.068c-0.019-0.065-0.031-0.132-0.031-0.2S20.025,53.47,20.044,53.406z"/>
		<path fill="#939393" d="M62.477,53.032c0.017-0.01,0.034-0.018,0.05-0.028C62.511,53.015,62.494,53.022,62.477,53.032z"/>
		<path fill="#939393" d="M62.646,52.953c0.068-0.023,0.141-0.038,0.217-0.038C62.787,52.915,62.715,52.93,62.646,52.953z"/>
		<path fill="#939393" d="M62.376,53.115c0.02-0.019,0.043-0.036,0.066-0.052C62.418,53.079,62.396,53.097,62.376,53.115z"/>
		<path fill="#939393" d="M62.229,53.335c0.03-0.07,0.073-0.134,0.122-0.188C62.302,53.201,62.259,53.265,62.229,53.335z"/>
		<path fill="#939393" d="M62.175,53.604c0-0.092,0.019-0.182,0.052-0.26C62.193,53.423,62.175,53.513,62.175,53.604z"/>
		<path fill="#939393" d="M20.7,30.874c-0.379,0-0.687-0.308-0.687-0.689C20.013,30.566,20.321,30.874,20.7,30.874z"/>
		<path fill="#939393" d="M21.391,30.185c0-0.381-0.309-0.691-0.691-0.691C21.082,29.494,21.391,29.804,21.391,30.185z"/>
		<path fill="#939393" d="M20.7,29.494c-0.379,0-0.687,0.311-0.687,0.691C20.013,29.804,20.321,29.494,20.7,29.494z"/>
		<path fill="#939393" d="M20.7,30.874c0.382,0,0.691-0.308,0.691-0.689C21.391,30.566,21.082,30.874,20.7,30.874z"/>
		<path fill="#939393" d="M20.7,52.915c-0.28,0-0.522,0.166-0.627,0.41C20.178,53.081,20.42,52.915,20.7,52.915z"/>
		<path fill="#939393" d="M21.36,53.803c-0.009,0.022-0.013,0.045-0.024,0.071C21.347,53.848,21.353,53.825,21.36,53.803z"/>
		<path fill="#939393" d="M21.338,53.335c0.009,0.023,0.015,0.047,0.022,0.071C21.353,53.382,21.347,53.358,21.338,53.335z"/>
		<path fill="#939393" d="M20.066,53.874c-0.009-0.024-0.016-0.049-0.022-0.071C20.051,53.825,20.057,53.848,20.066,53.874z"/>
		<path fill="#939393" d="M20.073,53.882c0.105,0.24,0.347,0.411,0.627,0.411C20.42,54.294,20.178,54.122,20.073,53.882z"/>
		<path fill="#939393" d="M20.7,54.294c0.283,0,0.524-0.172,0.631-0.412C21.225,54.122,20.982,54.294,20.7,54.294z"/>
		<path fill="#939393" d="M20.044,53.406c0.006-0.024,0.012-0.048,0.022-0.072C20.057,53.358,20.051,53.382,20.044,53.406z"/>
		<path fill="#939393" d="M21.331,53.325c-0.106-0.244-0.348-0.41-0.631-0.41C20.982,52.915,21.225,53.081,21.331,53.325z"/>
		<path fill="#939393" d="M24.356,51.603h35.235c1.311,0,2.377-1.066,2.377-2.376V36.895h-39.99v12.332
			C21.978,50.536,23.044,51.603,24.356,51.603z M51.622,38.877c0.163-0.016,0.328-0.027,0.495-0.027s0.331,0.011,0.496,0.027
			c2.439,0.248,4.35,2.315,4.35,4.821c0,2.672-2.174,4.846-4.846,4.846c-2.673,0-4.846-2.174-4.846-4.846
			C47.271,41.192,49.182,39.125,51.622,38.877z M31.733,38.877c0.163-0.016,0.328-0.027,0.495-0.027c2.31,0,4.245,1.628,4.728,3.794
			c0.006,0.027,0.014,0.051,0.02,0.077c0.063,0.315,0.099,0.641,0.099,0.975c0,2.674-2.172,4.845-4.846,4.845
			c-2.673,0-4.847-2.171-4.847-4.843C27.381,41.192,29.292,39.125,31.733,38.877z"/>
		<path fill="#939393" d="M36.975,42.725c0.063,0.312,0.099,0.64,0.099,0.974C37.073,43.364,37.038,43.037,36.975,42.725z"/>
		<path fill="#939393" d="M32.228,48.544c-2.673,0-4.847-2.174-4.847-4.846C27.381,46.37,29.555,48.544,32.228,48.544z"/>
		<path fill="#939393" d="M31.733,38.877c-2.441,0.248-4.352,2.315-4.352,4.821C27.381,41.192,29.292,39.125,31.733,38.877z"/>
		<path fill="#939393" d="M36.955,42.647c-0.482-2.169-2.417-3.795-4.728-3.795C34.538,38.852,36.473,40.479,36.955,42.647z"/>
		<path fill="#939393" d="M51.622,38.877c-2.44,0.248-4.351,2.315-4.351,4.821C47.271,41.192,49.182,39.125,51.622,38.877z"/>
	</g>
	<g>
		<path fill="#EFEEEE" d="M63.554,29.527c0,0.382-0.31,0.689-0.69,0.689C63.244,30.216,63.554,29.909,63.554,29.527
			c0-0.381-0.31-0.69-0.69-0.69C63.244,28.837,63.554,29.146,63.554,29.527z"/>
		<path fill="#EFEEEE" d="M62.863,52.258c0.381,0,0.69,0.308,0.69,0.689C63.554,52.565,63.244,52.258,62.863,52.258z"/>
		<path fill="#EFEEEE" d="M62.527,52.347c0.036-0.021,0.077-0.037,0.119-0.052C62.604,52.31,62.563,52.326,62.527,52.347z"/>
		<path fill="#EFEEEE" d="M62.863,30.216c-0.379,0-0.688-0.307-0.688-0.689c0-0.381,0.31-0.69,0.688-0.69
			c-0.38,0-0.688,0.309-0.688,0.69C62.175,29.909,62.483,30.216,62.863,30.216z"/>
		<path fill="#EFEEEE" d="M62.175,52.947c0,0.378,0.309,0.688,0.688,0.688C62.484,53.635,62.175,53.325,62.175,52.947z"/>
		<path fill="#EFEEEE" d="M62.863,53.635c0.381,0,0.69-0.31,0.69-0.688C63.554,53.325,63.244,53.635,62.863,53.635z"/>
		<path fill="#EFEEEE" d="M36.955,41.988c0.006,0.025,0.014,0.05,0.02,0.077C36.969,42.038,36.961,42.014,36.955,41.988z"/>
		<path fill="#EFEEEE" d="M52.117,47.887c2.672,0,4.846-2.176,4.846-4.848C56.963,45.711,54.789,47.887,52.117,47.887z"/>
		<path fill="#EFEEEE" d="M32.228,47.887c2.673,0,4.846-2.176,4.846-4.848C37.073,45.711,34.898,47.887,32.228,47.887z"/>
		<path fill="#EFEEEE" d="M56.963,43.039c0-2.504-1.91-4.572-4.35-4.82C55.053,38.467,56.963,40.535,56.963,43.039z"/>
		<path fill="#EFEEEE" d="M62.441,52.405c0.012-0.011,0.022-0.023,0.035-0.032C62.464,52.382,62.453,52.395,62.441,52.405z"/>
		<path fill="#EFEEEE" d="M31.284,29.744c0.062,0.297,0.324,0.52,0.639,0.52C31.608,30.264,31.346,30.041,31.284,29.744z"/>
		<path fill="#EFEEEE" d="M49.802,31.001c-0.014,0.014-0.034,0.021-0.048,0.033C49.768,31.022,49.788,31.016,49.802,31.001z"/>
		<path fill="#EFEEEE" d="M49.643,31.109c-0.06,0.025-0.127,0.041-0.197,0.041C49.516,31.15,49.583,31.134,49.643,31.109z"/>
		<path fill="#EFEEEE" d="M49.445,31.15c-0.277,0-0.501-0.225-0.502-0.502l0,0C48.943,30.925,49.168,31.15,49.445,31.15z"/>
		<path fill="#EFEEEE" d="M49.445,30.146c-0.187,0-0.342,0.105-0.43,0.257C49.104,30.251,49.259,30.146,49.445,30.146z"/>
		<path fill="#EFEEEE" d="M52.314,29.611c0,0.36-0.292,0.653-0.649,0.653C52.024,30.264,52.314,29.971,52.314,29.611
			c0-0.358-0.292-0.65-0.649-0.65C52.022,28.96,52.314,29.252,52.314,29.611z"/>
		<path fill="#EFEEEE" d="M51.499,28.985c-0.236,0.061-0.422,0.252-0.473,0.496C51.077,29.24,51.263,29.046,51.499,28.985z"/>
		<path fill="#EFEEEE" d="M48.975,30.489c0.005-0.011,0.004-0.027,0.009-0.038C48.979,30.462,48.979,30.478,48.975,30.489z"/>
		<path fill="#EFEEEE" d="M34.14,31.15c-0.277,0-0.503-0.225-0.503-0.502l0,0C33.637,30.925,33.861,31.15,34.14,31.15z"/>
		<path fill="#EFEEEE" d="M34.14,31.15c0.278,0,0.502-0.225,0.502-0.502l0,0C34.642,30.925,34.417,31.15,34.14,31.15z"/>
		<path fill="#EFEEEE" d="M62.227,52.686c0-0.002,0.001-0.006,0.002-0.007C62.228,52.68,62.227,52.684,62.227,52.686z"/>
		<path fill="#EFEEEE" d="M31.923,28.96c-0.361,0-0.651,0.292-0.651,0.65C31.271,29.252,31.564,28.96,31.923,28.96z"/>
		<path fill="#EFEEEE" d="M62.351,52.488c0.009-0.011,0.017-0.021,0.025-0.031C62.367,52.467,62.359,52.478,62.351,52.488z"/>
		<path fill="#EFEEEE" d="M32.554,29.463c0,0.005,0.003,0.012,0.005,0.018C32.557,29.475,32.554,29.468,32.554,29.463z"/>
		<path fill="#EFEEEE" d="M21.338,53.215c-0.001,0.002-0.005,0.007-0.007,0.009C21.333,53.222,21.336,53.217,21.338,53.215z"/>
		<path fill="#EFEEEE" d="M20.013,52.947c0-0.071,0.012-0.137,0.031-0.198C20.025,52.811,20.013,52.876,20.013,52.947z"/>
		<path fill="#EFEEEE" d="M21.391,52.947c0,0.067-0.015,0.132-0.031,0.196C21.376,53.079,21.391,53.015,21.391,52.947z"/>
		<path fill="#EFEEEE" d="M20.066,52.679c0.002-0.005,0.003-0.007,0.007-0.011C20.07,52.669,20.068,52.674,20.066,52.679z"/>
		<path fill="#EFEEEE" d="M21.331,52.668c0.002,0.001,0.005,0.006,0.007,0.011C21.336,52.674,21.333,52.669,21.331,52.668z"/>
		<path fill="#EFEEEE" d="M21.36,52.749c0.016,0.062,0.031,0.127,0.031,0.195C21.391,52.876,21.376,52.811,21.36,52.749z"/>
		<path fill="#EFEEEE" d="M20.073,53.224c-0.003-0.002-0.005-0.007-0.007-0.011C20.068,53.217,20.07,53.222,20.073,53.224z"/>
		<path fill="#EFEEEE" d="M20.013,52.947c0,0.067,0.012,0.132,0.031,0.196C20.025,53.079,20.013,53.015,20.013,52.947z"/>
		<path fill="#EFEEEE" d="M30.951,34.397h21.642c0.857,0,1.891-0.699,1.891-1.562l0.003,0.022l0.53-5.813H28.527l0.532,5.851
			C29.059,33.756,30.093,34.397,30.951,34.397z M51.499,28.985c0.055-0.014,0.107-0.025,0.166-0.025c0.357,0,0.649,0.292,0.649,0.65
			c0,0.36-0.292,0.653-0.649,0.653c-0.361,0-0.653-0.293-0.653-0.653c0-0.044,0.007-0.088,0.015-0.13
			C51.077,29.238,51.263,29.046,51.499,28.985z M48.943,30.647c0-0.057,0.016-0.109,0.031-0.159
			c0.005-0.011,0.004-0.027,0.009-0.038c0.007-0.018,0.023-0.031,0.032-0.048c0.087-0.152,0.243-0.257,0.43-0.257
			c0.278,0,0.504,0.225,0.504,0.501c0,0.139-0.057,0.264-0.147,0.354c-0.014,0.014-0.034,0.023-0.048,0.033
			c-0.037,0.027-0.071,0.058-0.112,0.075c-0.061,0.025-0.127,0.041-0.196,0.041C49.168,31.15,48.943,30.925,48.943,30.647
			L48.943,30.647L48.943,30.647z M33.637,30.647c0-0.209,0.126-0.388,0.308-0.464c0.061-0.025,0.125-0.037,0.196-0.037
			c0.068,0,0.134,0.012,0.195,0.037c0.18,0.077,0.307,0.255,0.307,0.464l0,0l0,0c0,0.277-0.224,0.502-0.502,0.502
			C33.861,31.15,33.637,30.925,33.637,30.647L33.637,30.647L33.637,30.647z M31.923,28.96c0.306,0,0.562,0.214,0.631,0.502
			c0,0.005,0.003,0.012,0.005,0.018c0.009,0.042,0.014,0.085,0.014,0.13c0,0.36-0.291,0.653-0.65,0.653
			c-0.315,0-0.577-0.223-0.639-0.52c-0.008-0.042-0.012-0.088-0.012-0.133C31.271,29.252,31.562,28.96,31.923,28.96z"/>
		<path fill="#EFEEEE" d="M32.554,29.463c-0.069-0.288-0.325-0.502-0.631-0.502C32.228,28.96,32.483,29.175,32.554,29.463z"/>
		<path fill="#EFEEEE" d="M32.559,29.481c0.009,0.042,0.014,0.085,0.014,0.13C32.573,29.566,32.568,29.522,32.559,29.481z"/>
		<path fill="#EFEEEE" d="M31.923,30.264c0.359,0,0.65-0.293,0.65-0.653C32.573,29.971,32.281,30.264,31.923,30.264z"/>
		<path fill="#EFEEEE" d="M33.944,30.183c-0.181,0.077-0.308,0.255-0.308,0.464l0,0C33.637,30.438,33.763,30.26,33.944,30.183z"/>
		<path fill="#EFEEEE" d="M34.642,30.647L34.642,30.647c0-0.209-0.127-0.388-0.307-0.464C34.515,30.26,34.642,30.438,34.642,30.647z
			"/>
		<path fill="#EFEEEE" d="M51.026,29.481c-0.008,0.042-0.013,0.085-0.013,0.13C51.014,29.566,51.019,29.522,51.026,29.481z"/>
		<path fill="#EFEEEE" d="M51.014,29.611c0,0.36,0.29,0.653,0.651,0.653C51.304,30.264,51.014,29.971,51.014,29.611z"/>
		<path fill="#EFEEEE" d="M51.499,28.985c0.055-0.014,0.107-0.025,0.166-0.025C51.606,28.96,51.554,28.971,51.499,28.985z"/>
		<path fill="#EFEEEE" d="M49.949,30.647c0,0.137-0.057,0.264-0.147,0.354C49.893,30.911,49.949,30.785,49.949,30.647
			c0-0.277-0.226-0.501-0.504-0.501C49.724,30.146,49.949,30.371,49.949,30.647z"/>
		<path fill="#EFEEEE" d="M49.754,31.035c-0.037,0.027-0.071,0.058-0.112,0.075C49.683,31.093,49.719,31.062,49.754,31.035z"/>
		<path fill="#EFEEEE" d="M48.983,30.451c0.007-0.018,0.023-0.031,0.032-0.048C49.007,30.42,48.99,30.433,48.983,30.451z"/>
		<path fill="#EFEEEE" d="M48.943,30.647L48.943,30.647c0-0.057,0.016-0.109,0.031-0.159C48.959,30.539,48.943,30.591,48.943,30.647
			z"/>
		<path fill="#EFEEEE" d="M52.117,47.211c2.305,0,4.173-1.868,4.173-4.172c0-2.304-1.868-4.17-4.173-4.17
			c-2.015,0-3.698,1.429-4.086,3.33c-0.057,0.273-0.085,0.552-0.085,0.84C47.946,45.343,49.813,47.211,52.117,47.211z M49.823,41.22
			l0.64,0.64l0.489-0.487l-0.642-0.639c0.402-0.319,0.894-0.531,1.429-0.596v0.908h0.69v-0.908c0.536,0.065,1.025,0.277,1.429,0.596
			l-0.642,0.639l0.488,0.487l0.641-0.64c0.316,0.404,0.528,0.893,0.591,1.43h-0.905v0.688h0.902
			c-0.065,0.533-0.277,1.022-0.594,1.424l-0.635-0.635l-0.488,0.488l0.635,0.634c-0.401,0.315-0.89,0.525-1.423,0.588V44.94h-0.689
			v0.896c-0.533-0.062-1.02-0.272-1.423-0.588l0.635-0.634l-0.489-0.488l-0.634,0.635c-0.317-0.401-0.527-0.891-0.593-1.424h0.9
			v-0.688h-0.902C49.296,42.112,49.509,41.624,49.823,41.22z"/>
		<path fill="#EFEEEE" d="M32.228,47.211c1.806,0,3.337-1.147,3.919-2.752c0.097-0.27,0.166-0.554,0.207-0.842
			c0.027-0.189,0.044-0.381,0.044-0.578c0-0.142-0.006-0.284-0.02-0.427c-0.213-2.103-1.992-3.743-4.15-3.743
			c-2.16,0-3.937,1.64-4.15,3.743c-0.015,0.143-0.022,0.282-0.022,0.427C28.055,45.343,29.924,47.211,32.228,47.211z M29.917,41.249
			l0.64,0.64l0.488-0.488l-0.643-0.64c0.406-0.317,0.893-0.529,1.432-0.594v0.908h0.688v-0.908c0.536,0.065,1.026,0.277,1.429,0.594
			l-0.641,0.64l0.488,0.488l0.639-0.64c0.318,0.403,0.528,0.894,0.592,1.429h-0.904v0.689h0.901
			c-0.064,0.533-0.275,1.021-0.592,1.424l-0.636-0.635l-0.488,0.487l0.635,0.636c-0.403,0.313-0.891,0.524-1.423,0.586v-0.896
			h-0.689v0.896c-0.534-0.062-1.021-0.272-1.423-0.586l0.635-0.636l-0.488-0.487l-0.636,0.635c-0.315-0.403-0.527-0.891-0.593-1.424
			h0.9v-0.689h-0.903C29.39,42.143,29.6,41.652,29.917,41.249z"/>
		<path fill="#EFEEEE" d="M20.739,54.62h42.067c1.045,0,1.919-0.819,1.919-1.865V29.611c0-1.044-0.874-2.108-1.919-2.108h-7.12
			l-0.536,5.142c-0.012,1.241-1.38,2.213-2.558,2.213H30.951c-1.177,0-2.544-0.972-2.559-2.213l-0.535-5.142H20.74
			c-1.045,0-1.978,1.064-1.978,2.108v23.144C18.763,53.801,19.693,54.62,20.739,54.62z M62.863,53.635
			c-0.38,0-0.688-0.31-0.688-0.688c0-0.093,0.019-0.183,0.052-0.262c0-0.002,0.001-0.006,0.002-0.007
			c0.03-0.071,0.073-0.137,0.122-0.19c0.009-0.011,0.017-0.021,0.025-0.031c0.02-0.019,0.043-0.036,0.066-0.052
			c0.011-0.011,0.023-0.023,0.035-0.032c0.017-0.01,0.033-0.016,0.05-0.026c0.036-0.021,0.077-0.037,0.119-0.052
			c0.068-0.023,0.141-0.037,0.217-0.037c0.381,0,0.69,0.308,0.69,0.689C63.554,53.325,63.244,53.635,62.863,53.635z M62.863,28.837
			c0.381,0,0.69,0.309,0.69,0.69c0,0.382-0.31,0.689-0.69,0.689c-0.38,0-0.688-0.307-0.688-0.689
			C62.175,29.146,62.483,28.837,62.863,28.837z M21.519,35.776h40.907v12.793c0,1.563-1.272,2.836-2.835,2.836H24.356
			c-1.564,0-2.837-1.272-2.837-2.836V35.776z M20.7,28.835c0.382,0,0.691,0.31,0.691,0.691c0,0.382-0.309,0.689-0.691,0.689
			c-0.379,0-0.687-0.307-0.687-0.689C20.013,29.146,20.321,28.835,20.7,28.835z M20.044,52.749c0.006-0.025,0.012-0.048,0.022-0.072
			c0.002-0.003,0.003-0.008,0.007-0.009c0.105-0.245,0.347-0.41,0.627-0.41c0.283,0,0.524,0.165,0.631,0.41
			c0.002,0.001,0.005,0.006,0.007,0.009c0.009,0.024,0.015,0.047,0.022,0.072c0.016,0.062,0.031,0.127,0.031,0.195
			c0,0.069-0.015,0.135-0.031,0.199c-0.008,0.022-0.013,0.047-0.022,0.069c-0.001,0.004-0.005,0.009-0.007,0.011
			c-0.106,0.24-0.348,0.41-0.631,0.41c-0.28,0-0.522-0.17-0.627-0.41c-0.003-0.002-0.005-0.007-0.007-0.011
			c-0.009-0.022-0.016-0.047-0.022-0.069c-0.019-0.064-0.031-0.13-0.031-0.199C20.013,52.876,20.025,52.811,20.044,52.749z"/>
		<path fill="#EFEEEE" d="M62.477,52.373c0.017-0.01,0.034-0.016,0.05-0.026C62.511,52.357,62.494,52.363,62.477,52.373z"/>
		<path fill="#EFEEEE" d="M62.646,52.295c0.068-0.023,0.141-0.037,0.217-0.037C62.787,52.258,62.715,52.271,62.646,52.295z"/>
		<path fill="#EFEEEE" d="M62.376,52.457c0.02-0.019,0.043-0.036,0.066-0.052C62.418,52.421,62.396,52.438,62.376,52.457z"/>
		<path fill="#EFEEEE" d="M62.229,52.679c0.03-0.071,0.073-0.137,0.122-0.19C62.302,52.542,62.259,52.607,62.229,52.679z"/>
		<path fill="#EFEEEE" d="M62.175,52.947c0-0.093,0.019-0.183,0.052-0.262C62.193,52.765,62.175,52.854,62.175,52.947z"/>
		<path fill="#EFEEEE" d="M20.7,30.216c-0.379,0-0.687-0.307-0.687-0.689C20.013,29.909,20.321,30.216,20.7,30.216z"/>
		<path fill="#EFEEEE" d="M21.391,29.527c0-0.381-0.309-0.691-0.691-0.691C21.082,28.835,21.391,29.146,21.391,29.527z"/>
		<path fill="#EFEEEE" d="M20.7,28.835c-0.379,0-0.687,0.31-0.687,0.691C20.013,29.146,20.321,28.835,20.7,28.835z"/>
		<path fill="#EFEEEE" d="M20.7,30.216c0.382,0,0.691-0.307,0.691-0.689C21.391,29.909,21.082,30.216,20.7,30.216z"/>
		<path fill="#EFEEEE" d="M20.7,52.258c-0.28,0-0.522,0.165-0.627,0.41C20.178,52.423,20.42,52.258,20.7,52.258z"/>
		<path fill="#EFEEEE" d="M21.36,53.144c-0.009,0.022-0.013,0.047-0.024,0.071C21.347,53.19,21.353,53.166,21.36,53.144z"/>
		<path fill="#EFEEEE" d="M21.338,52.679c0.009,0.022,0.015,0.045,0.022,0.07C21.353,52.724,21.347,52.701,21.338,52.679z"/>
		<path fill="#EFEEEE" d="M20.066,53.215c-0.009-0.023-0.016-0.049-0.022-0.071C20.051,53.166,20.057,53.19,20.066,53.215z"/>
		<path fill="#EFEEEE" d="M20.073,53.224c0.105,0.24,0.347,0.41,0.627,0.41C20.42,53.635,20.178,53.464,20.073,53.224z"/>
		<path fill="#EFEEEE" d="M20.7,53.635c0.283,0,0.524-0.171,0.631-0.411C21.225,53.464,20.982,53.635,20.7,53.635z"/>
		<path fill="#EFEEEE" d="M20.044,52.749c0.006-0.025,0.012-0.048,0.022-0.072C20.057,52.701,20.051,52.724,20.044,52.749z"/>
		<path fill="#EFEEEE" d="M21.331,52.668c-0.106-0.245-0.348-0.41-0.631-0.41C20.982,52.258,21.225,52.423,21.331,52.668z"/>
		<path fill="#EFEEEE" d="M24.356,50.945h35.235c1.311,0,2.377-1.066,2.377-2.376V36.237h-39.99v12.332
			C21.978,49.879,23.044,50.945,24.356,50.945z M51.622,38.219c0.163-0.017,0.328-0.028,0.495-0.028s0.331,0.011,0.496,0.028
			c2.439,0.248,4.35,2.315,4.35,4.82c0,2.672-2.174,4.848-4.846,4.848c-2.673,0-4.846-2.176-4.846-4.848
			C47.271,40.535,49.182,38.467,51.622,38.219z M31.733,38.219c0.163-0.017,0.328-0.028,0.495-0.028c2.31,0,4.245,1.629,4.728,3.795
			c0.006,0.027,0.014,0.052,0.02,0.077c0.063,0.316,0.099,0.642,0.099,0.974c0,2.674-2.172,4.848-4.846,4.848
			c-2.673,0-4.847-2.174-4.847-4.846C27.381,40.535,29.292,38.467,31.733,38.219z"/>
		<path fill="#EFEEEE" d="M36.975,42.065c0.063,0.314,0.099,0.641,0.099,0.974C37.073,42.706,37.038,42.38,36.975,42.065z"/>
		<path fill="#EFEEEE" d="M32.228,47.887c-2.673,0-4.847-2.176-4.847-4.848C27.381,45.711,29.555,47.887,32.228,47.887z"/>
		<path fill="#EFEEEE" d="M31.733,38.219c-2.441,0.248-4.352,2.315-4.352,4.82C27.381,40.535,29.292,38.467,31.733,38.219z"/>
		<path fill="#EFEEEE" d="M36.955,41.988c-0.482-2.167-2.417-3.794-4.728-3.794C34.538,38.194,36.473,39.821,36.955,41.988z"/>
		<path fill="#EFEEEE" d="M51.622,38.219c-2.44,0.248-4.351,2.315-4.351,4.82C47.271,40.535,49.182,38.467,51.622,38.219z"/>
	</g>
</g>
</svg>
