<?xml version="1.0" encoding="utf-8"?>
<!-- Generator: Adobe Illustrator 15.1.0, SVG Export Plug-In . SVG Version: 6.00 Build 0)  -->
<!DOCTYPE svg PUBLIC "-//W3C//DTD SVG 1.1//EN" "http://www.w3.org/Graphics/SVG/1.1/DTD/svg11.dtd">
<svg version="1.1" id="Livello_1" xmlns="http://www.w3.org/2000/svg" xmlns:xlink="http://www.w3.org/1999/xlink" x="0px" y="0px"
	 width="285px" height="39.938px" viewBox="0 -4.062 285 39.938" enable-background="new 0 -4.062 285 39.938" xml:space="preserve"
	>
<line fill="none" stroke="#AAA9A9" stroke-width="0.9517" stroke-miterlimit="10" x1="10.352" y1="18.698" x2="273.968" y2="18.698"/>
<line fill="none" stroke="#D1D1D1" stroke-width="0.9517" stroke-miterlimit="10" x1="10.321" y1="19.591" x2="273.939" y2="19.591"/>
<rect x="10.25" y="7.853" fill="#E16B25" width="264.902" height="26.647"/>
<rect x="10.769" y="5.375" fill="none" stroke="#E16B25" stroke-width="0.9675" stroke-miterlimit="10" width="264.383" height="27.539"/>
<linearGradient id="SVGID_1_" gradientUnits="userSpaceOnUse" x1="1319.1084" y1="1730.2695" x2="1319.1084" y2="1756.041" gradientTransform="matrix(1 0 0 1 -1176 -1723.125)">
	<stop  offset="0" style="stop-color:#F7A93B"/>
	<stop  offset="1" style="stop-color:#F29042"/>
</linearGradient>
<rect x="11.064" y="7.145" fill="url(#SVGID_1_)" width="264.088" height="25.771"/>
<g>
	<path fill="#E16B25" d="M77.691,22.812c0.158,0.301,0.364,0.545,0.625,0.729c0.259,0.188,0.564,0.325,0.912,0.415
		c0.351,0.091,0.711,0.135,1.085,0.135c0.253,0,0.523-0.021,0.814-0.062c0.289-0.043,0.56-0.121,0.814-0.242
		c0.252-0.121,0.462-0.286,0.632-0.499c0.168-0.21,0.252-0.478,0.252-0.806c0-0.352-0.11-0.633-0.333-0.851
		c-0.224-0.22-0.515-0.396-0.879-0.544c-0.36-0.145-0.77-0.271-1.227-0.376c-0.458-0.108-0.923-0.231-1.394-0.362
		c-0.482-0.121-0.951-0.269-1.41-0.445c-0.459-0.174-0.869-0.399-1.229-0.676c-0.361-0.277-0.655-0.625-0.877-1.041
		c-0.223-0.417-0.334-0.919-0.334-1.512c0-0.663,0.143-1.238,0.425-1.727c0.285-0.489,0.654-0.895,1.113-1.221
		c0.458-0.325,0.978-0.565,1.556-0.722c0.579-0.156,1.157-0.236,1.735-0.236c0.676,0,1.322,0.077,1.944,0.228
		c0.621,0.15,1.172,0.394,1.655,0.731c0.481,0.338,0.864,0.769,1.147,1.293c0.285,0.524,0.425,1.16,0.425,1.908h-2.75
		c-0.023-0.386-0.105-0.707-0.243-0.96c-0.139-0.252-0.323-0.452-0.553-0.596c-0.227-0.146-0.491-0.247-0.786-0.308
		c-0.296-0.06-0.618-0.091-0.968-0.091c-0.228,0-0.458,0.025-0.687,0.073c-0.229,0.048-0.436,0.133-0.625,0.253
		c-0.186,0.121-0.339,0.271-0.461,0.453c-0.12,0.181-0.179,0.41-0.179,0.688c0,0.252,0.048,0.457,0.145,0.613
		c0.097,0.157,0.286,0.302,0.569,0.435c0.282,0.132,0.675,0.267,1.175,0.397c0.501,0.133,1.156,0.302,1.964,0.506
		c0.241,0.048,0.575,0.134,1.003,0.261c0.429,0.127,0.854,0.326,1.274,0.605c0.422,0.277,0.788,0.648,1.095,1.113
		c0.307,0.464,0.46,1.057,0.46,1.781c0,0.59-0.113,1.139-0.343,1.644c-0.228,0.507-0.568,0.945-1.021,1.31
		c-0.453,0.369-1.013,0.654-1.681,0.859c-0.669,0.203-1.444,0.307-2.322,0.307c-0.711,0-1.401-0.088-2.071-0.262
		c-0.669-0.174-1.259-0.447-1.771-0.822c-0.514-0.373-0.919-0.851-1.22-1.428c-0.301-0.578-0.447-1.267-0.435-2.061h2.749
		C77.457,22.143,77.535,22.514,77.691,22.812z"/>
	<path fill="#E16B25" d="M89.101,23.755c0.385,0.372,0.941,0.56,1.664,0.56c0.519,0,0.964-0.129,1.338-0.392
		c0.373-0.259,0.604-0.532,0.688-0.819h2.26c-0.36,1.121-0.917,1.924-1.663,2.402c-0.748,0.483-1.651,0.725-2.711,0.725
		c-0.737,0-1.401-0.115-1.99-0.354c-0.592-0.234-1.092-0.566-1.501-1.003c-0.41-0.435-0.727-0.954-0.948-1.558
		c-0.225-0.602-0.335-1.268-0.335-1.987c0-0.697,0.114-1.349,0.342-1.952c0.229-0.602,0.555-1.121,0.978-1.564
		c0.421-0.439,0.925-0.787,1.511-1.039c0.584-0.254,1.232-0.379,1.945-0.379c0.795,0,1.488,0.153,2.078,0.459
		c0.59,0.309,1.075,0.722,1.455,1.24s0.656,1.108,0.823,1.771c0.169,0.662,0.228,1.355,0.181,2.078h-6.744
		C88.504,22.775,88.715,23.381,89.101,23.755z M92.004,18.834c-0.307-0.336-0.776-0.506-1.401-0.506
		c-0.412,0-0.751,0.069-1.022,0.208c-0.272,0.139-0.489,0.31-0.651,0.514c-0.162,0.206-0.277,0.423-0.343,0.65
		c-0.067,0.229-0.107,0.436-0.119,0.616h4.177C92.526,19.666,92.312,19.171,92.004,18.834z"/>
	<path fill="#E16B25" d="M98.539,16.648v1.3h0.056c0.326-0.542,0.747-0.938,1.266-1.185c0.518-0.245,1.05-0.372,1.591-0.372
		c0.688,0,1.25,0.093,1.691,0.281c0.44,0.188,0.787,0.447,1.04,0.778c0.253,0.332,0.431,0.735,0.535,1.21
		c0.101,0.477,0.153,1.003,0.153,1.583v5.75h-2.568v-5.277c0-0.774-0.121-1.349-0.362-1.731c-0.24-0.377-0.669-0.566-1.284-0.566
		c-0.699,0-1.204,0.207-1.518,0.623c-0.315,0.416-0.472,1.102-0.472,2.052v4.9h-2.566v-9.347h2.438V16.648L98.539,16.648z"/>
	<path fill="#E16B25" d="M112.825,24.801c-0.302,0.508-0.697,0.872-1.185,1.096c-0.487,0.225-1.039,0.334-1.655,0.334
		c-0.699,0-1.315-0.137-1.844-0.403c-0.531-0.275-0.968-0.642-1.312-1.104c-0.343-0.464-0.603-0.996-0.777-1.602
		c-0.175-0.602-0.264-1.229-0.264-1.878c0-0.628,0.087-1.232,0.264-1.819c0.176-0.584,0.434-1.099,0.777-1.546
		c0.344-0.445,0.775-0.804,1.293-1.075s1.121-0.407,1.807-0.407c0.556,0,1.083,0.117,1.583,0.353c0.5,0.235,0.895,0.582,1.184,1.039
		h0.037v-4.703h2.565v12.909h-2.44v-1.189h-0.034L112.825,24.801L112.825,24.801z M112.716,20.182
		c-0.072-0.356-0.197-0.668-0.371-0.939c-0.175-0.271-0.401-0.493-0.679-0.661c-0.277-0.17-0.627-0.253-1.049-0.253
		c-0.422,0-0.777,0.083-1.066,0.253c-0.29,0.168-0.523,0.394-0.697,0.669c-0.176,0.275-0.301,0.592-0.38,0.948
		c-0.079,0.358-0.118,0.728-0.118,1.114c0,0.358,0.042,0.723,0.127,1.082c0.083,0.363,0.22,0.687,0.406,0.967
		c0.188,0.283,0.422,0.517,0.705,0.688c0.283,0.177,0.623,0.263,1.021,0.263c0.422,0,0.774-0.082,1.057-0.254
		c0.285-0.17,0.508-0.394,0.68-0.676c0.167-0.285,0.289-0.607,0.361-0.97c0.073-0.362,0.108-0.733,0.108-1.121
		C112.821,20.907,112.79,20.538,112.716,20.182z"/>
	<path fill="#E16B25" d="M121.341,18.021c0.265-0.398,0.604-0.718,1.012-0.958c0.41-0.241,0.872-0.413,1.384-0.515
		c0.513-0.102,1.027-0.153,1.547-0.153c0.471,0,0.946,0.034,1.429,0.099c0.482,0.066,0.923,0.196,1.321,0.391
		c0.396,0.192,0.722,0.458,0.976,0.805c0.252,0.342,0.378,0.799,0.378,1.365v4.863c0,0.423,0.025,0.826,0.073,1.211
		c0.049,0.387,0.132,0.678,0.253,0.868h-2.604c-0.049-0.144-0.087-0.291-0.118-0.442c-0.03-0.15-0.052-0.304-0.063-0.459
		c-0.41,0.42-0.892,0.719-1.446,0.885c-0.555,0.168-1.121,0.254-1.699,0.254c-0.447,0-0.863-0.057-1.248-0.164
		c-0.387-0.104-0.723-0.273-1.013-0.504c-0.291-0.229-0.516-0.521-0.678-0.867c-0.164-0.348-0.246-0.77-0.246-1.246
		c0-0.529,0.095-0.971,0.281-1.312c0.187-0.342,0.428-0.615,0.723-0.822c0.296-0.202,0.634-0.355,1.013-0.461
		c0.379-0.102,0.763-0.184,1.148-0.242c0.386-0.062,0.767-0.111,1.14-0.146c0.373-0.035,0.704-0.091,0.995-0.16
		c0.289-0.072,0.517-0.18,0.686-0.315c0.168-0.14,0.246-0.341,0.235-0.606c0-0.277-0.045-0.496-0.136-0.66
		c-0.09-0.164-0.212-0.29-0.361-0.377c-0.15-0.09-0.325-0.152-0.523-0.181c-0.199-0.03-0.414-0.046-0.642-0.046
		c-0.505,0-0.903,0.109-1.194,0.326c-0.289,0.217-0.459,0.579-0.505,1.084h-2.568C120.924,18.919,121.074,18.418,121.341,18.021z
		 M126.412,21.646c-0.162,0.054-0.337,0.101-0.525,0.135c-0.187,0.037-0.382,0.066-0.588,0.091
		c-0.205,0.022-0.409,0.056-0.615,0.091c-0.193,0.036-0.383,0.084-0.568,0.146c-0.187,0.061-0.35,0.143-0.489,0.246
		c-0.139,0.099-0.25,0.229-0.334,0.386c-0.085,0.155-0.127,0.358-0.127,0.599c0,0.229,0.042,0.421,0.127,0.577
		c0.084,0.157,0.199,0.28,0.344,0.371c0.146,0.093,0.312,0.153,0.505,0.19c0.194,0.035,0.392,0.054,0.598,0.054
		c0.506,0,0.897-0.084,1.175-0.253c0.277-0.17,0.482-0.369,0.614-0.606c0.133-0.229,0.214-0.47,0.244-0.714
		c0.029-0.238,0.045-0.434,0.045-0.577V21.42C126.709,21.521,126.576,21.593,126.412,21.646z"/>
	<path fill="#E16B25" d="M137.633,16.648v1.265h0.036c0.337-0.482,0.744-0.856,1.22-1.122s1.023-0.398,1.637-0.398
		c0.589,0,1.13,0.114,1.619,0.343c0.487,0.229,0.859,0.634,1.112,1.211c0.277-0.41,0.652-0.771,1.13-1.084
		c0.477-0.313,1.04-0.471,1.691-0.471c0.49,0,0.951,0.062,1.373,0.182c0.422,0.119,0.783,0.314,1.084,0.577
		c0.302,0.268,0.537,0.613,0.703,1.041c0.173,0.428,0.256,0.943,0.256,1.544v6.258h-2.566v-5.299c0-0.312-0.015-0.608-0.037-0.887
		c-0.021-0.276-0.091-0.519-0.197-0.724c-0.105-0.204-0.269-0.367-0.479-0.487c-0.211-0.119-0.498-0.182-0.855-0.182
		c-0.359,0-0.652,0.066-0.877,0.207s-0.396,0.318-0.523,0.542s-0.211,0.478-0.254,0.76s-0.062,0.569-0.062,0.854v5.213h-2.572V20.75
		c0-0.275-0.006-0.552-0.019-0.823c-0.011-0.271-0.062-0.521-0.153-0.752c-0.089-0.228-0.239-0.411-0.452-0.549
		c-0.209-0.14-0.521-0.208-0.931-0.208c-0.121,0-0.28,0.025-0.479,0.082c-0.197,0.055-0.392,0.156-0.579,0.307
		c-0.188,0.152-0.347,0.369-0.478,0.652c-0.132,0.284-0.198,0.652-0.198,1.111v5.425h-2.569v-9.346h2.424v-0.001H137.633z"/>
	<path fill="#E16B25" d="M153.634,23.755c0.386,0.372,0.94,0.56,1.663,0.56c0.52,0,0.967-0.129,1.34-0.392
		c0.371-0.259,0.602-0.532,0.688-0.819h2.262c-0.36,1.121-0.917,1.924-1.663,2.402c-0.748,0.483-1.648,0.725-2.713,0.725
		c-0.732,0-1.396-0.115-1.986-0.354c-0.593-0.234-1.094-0.566-1.5-1.003c-0.412-0.435-0.729-0.954-0.949-1.558
		c-0.226-0.602-0.336-1.268-0.336-1.987c0-0.697,0.112-1.349,0.345-1.952c0.229-0.602,0.555-1.121,0.976-1.564
		c0.422-0.439,0.93-0.787,1.512-1.039c0.584-0.254,1.23-0.379,1.943-0.379c0.797,0,1.49,0.153,2.08,0.459
		c0.59,0.309,1.075,0.722,1.456,1.24s0.653,1.108,0.819,1.771c0.171,0.662,0.229,1.355,0.184,2.078h-6.744
		C153.039,22.775,153.249,23.381,153.634,23.755z M156.536,18.834c-0.306-0.336-0.772-0.506-1.399-0.506
		c-0.412,0-0.75,0.069-1.023,0.208c-0.271,0.139-0.483,0.31-0.646,0.514c-0.159,0.206-0.274,0.423-0.344,0.65
		c-0.062,0.229-0.104,0.436-0.118,0.616h4.18C157.059,19.666,156.844,19.171,156.536,18.834z"/>
	<path fill="#E16B25" d="M162.794,23.67c0.114,0.199,0.265,0.363,0.44,0.489c0.185,0.124,0.392,0.222,0.623,0.28
		c0.233,0.06,0.479,0.088,0.732,0.088c0.182,0,0.367-0.021,0.564-0.062c0.197-0.042,0.384-0.107,0.547-0.195
		c0.16-0.096,0.297-0.213,0.402-0.362s0.162-0.341,0.162-0.568c0-0.386-0.256-0.677-0.767-0.866
		c-0.515-0.195-1.229-0.389-2.146-0.58c-0.373-0.086-0.737-0.185-1.098-0.3c-0.354-0.112-0.673-0.266-0.945-0.45
		c-0.278-0.187-0.5-0.422-0.67-0.707s-0.252-0.631-0.252-1.039c0-0.603,0.114-1.097,0.351-1.482c0.235-0.385,0.545-0.69,0.935-0.915
		c0.387-0.222,0.818-0.378,1.303-0.469c0.48-0.089,0.979-0.135,1.481-0.135c0.507,0,0.999,0.048,1.474,0.145
		c0.479,0.098,0.901,0.26,1.273,0.487c0.374,0.23,0.686,0.535,0.932,0.914c0.248,0.379,0.396,0.858,0.442,1.437h-2.438
		c-0.037-0.495-0.225-0.828-0.562-1.002c-0.339-0.175-0.733-0.264-1.192-0.264c-0.146,0-0.304,0.01-0.472,0.027
		c-0.172,0.018-0.321,0.058-0.461,0.117c-0.142,0.061-0.257,0.148-0.353,0.264c-0.101,0.113-0.146,0.269-0.146,0.461
		c0,0.228,0.083,0.416,0.252,0.561c0.17,0.145,0.391,0.262,0.66,0.352c0.271,0.09,0.581,0.17,0.934,0.244
		c0.35,0.072,0.706,0.15,1.062,0.236c0.375,0.084,0.74,0.188,1.098,0.309c0.354,0.119,0.674,0.28,0.947,0.479
		c0.275,0.196,0.501,0.444,0.67,0.737c0.17,0.297,0.253,0.66,0.253,1.097c0,0.612-0.124,1.132-0.367,1.546
		c-0.25,0.417-0.571,0.754-0.971,1.003c-0.396,0.254-0.854,0.433-1.363,0.534c-0.515,0.104-1.034,0.152-1.563,0.152
		c-0.541,0-1.07-0.057-1.592-0.164c-0.521-0.104-0.979-0.287-1.386-0.543c-0.403-0.25-0.733-0.584-0.993-1.004
		c-0.263-0.414-0.4-0.937-0.428-1.562h2.441C162.622,23.234,162.677,23.471,162.794,23.67z"/>
	<path fill="#E16B25" d="M171.87,23.67c0.114,0.199,0.264,0.363,0.442,0.489c0.182,0.124,0.389,0.222,0.625,0.28
		c0.23,0.06,0.478,0.088,0.729,0.088c0.184,0,0.368-0.021,0.562-0.062c0.199-0.042,0.381-0.107,0.545-0.195
		c0.162-0.096,0.301-0.213,0.406-0.362c0.108-0.149,0.162-0.341,0.162-0.568c0-0.386-0.258-0.677-0.769-0.866
		c-0.515-0.195-1.226-0.389-2.142-0.58c-0.377-0.086-0.738-0.185-1.1-0.3c-0.354-0.112-0.671-0.266-0.949-0.45
		c-0.273-0.188-0.496-0.422-0.668-0.707c-0.166-0.283-0.253-0.631-0.253-1.039c0-0.603,0.117-1.097,0.354-1.482
		c0.229-0.385,0.545-0.69,0.932-0.915c0.389-0.222,0.816-0.378,1.3-0.469c0.483-0.089,0.979-0.135,1.484-0.135
		c0.508,0,0.995,0.048,1.475,0.145c0.478,0.098,0.901,0.26,1.271,0.487c0.375,0.23,0.688,0.535,0.935,0.914
		c0.249,0.379,0.396,0.858,0.444,1.437h-2.439c-0.035-0.495-0.225-0.828-0.561-1.002c-0.344-0.175-0.735-0.264-1.195-0.264
		c-0.143,0-0.299,0.01-0.47,0.027c-0.171,0.018-0.321,0.058-0.462,0.117c-0.141,0.061-0.26,0.148-0.354,0.264
		c-0.1,0.113-0.146,0.269-0.146,0.461c0,0.228,0.085,0.416,0.256,0.561c0.168,0.145,0.39,0.262,0.658,0.352
		c0.271,0.09,0.58,0.17,0.934,0.244c0.352,0.072,0.704,0.15,1.062,0.236c0.375,0.084,0.735,0.188,1.098,0.309
		c0.354,0.119,0.671,0.28,0.947,0.479c0.274,0.196,0.502,0.444,0.671,0.737c0.17,0.297,0.255,0.66,0.255,1.097
		c0,0.612-0.126,1.132-0.372,1.546c-0.248,0.417-0.567,0.754-0.97,1.003c-0.398,0.254-0.854,0.433-1.364,0.534
		c-0.515,0.104-1.034,0.152-1.562,0.152c-0.541,0-1.071-0.057-1.592-0.164c-0.521-0.104-0.979-0.287-1.385-0.543
		c-0.402-0.25-0.734-0.584-0.997-1.004c-0.262-0.414-0.397-0.937-0.426-1.562h2.438C171.7,23.234,171.755,23.471,171.87,23.67z"/>
	<path fill="#E16B25" d="M179.13,18.021c0.265-0.398,0.603-0.718,1.013-0.958c0.409-0.241,0.871-0.413,1.385-0.515
		c0.515-0.102,1.027-0.153,1.549-0.153c0.471,0,0.943,0.034,1.43,0.099c0.479,0.066,0.922,0.196,1.32,0.391
		c0.396,0.192,0.724,0.458,0.977,0.805c0.254,0.342,0.385,0.799,0.385,1.365v4.863c0,0.423,0.021,0.826,0.065,1.211
		c0.048,0.387,0.136,0.678,0.252,0.868H184.9c-0.051-0.144-0.09-0.291-0.119-0.442c-0.03-0.15-0.051-0.304-0.061-0.459
		c-0.412,0.42-0.896,0.719-1.449,0.885c-0.561,0.168-1.121,0.254-1.699,0.254c-0.444,0-0.862-0.057-1.248-0.164
		c-0.385-0.104-0.725-0.273-1.012-0.504c-0.291-0.229-0.521-0.521-0.684-0.867c-0.16-0.35-0.238-0.77-0.238-1.246
		c0-0.529,0.092-0.971,0.276-1.312c0.188-0.342,0.427-0.615,0.726-0.822c0.293-0.202,0.633-0.355,1.014-0.461
		c0.381-0.102,0.763-0.184,1.146-0.242c0.386-0.062,0.767-0.111,1.142-0.146c0.373-0.035,0.703-0.091,0.994-0.16
		c0.289-0.072,0.521-0.18,0.688-0.315c0.171-0.14,0.248-0.341,0.234-0.606c0-0.277-0.047-0.496-0.137-0.66
		c-0.093-0.164-0.209-0.29-0.361-0.377c-0.148-0.09-0.322-0.152-0.522-0.181c-0.194-0.03-0.411-0.046-0.646-0.046
		c-0.506,0-0.899,0.109-1.188,0.326c-0.291,0.217-0.46,0.579-0.507,1.084h-2.565C178.714,18.919,178.865,18.418,179.13,18.021z
		 M184.203,21.646c-0.162,0.054-0.34,0.101-0.523,0.135c-0.188,0.037-0.385,0.066-0.59,0.091c-0.205,0.022-0.408,0.056-0.613,0.091
		c-0.191,0.036-0.384,0.084-0.567,0.146c-0.188,0.061-0.353,0.143-0.486,0.246c-0.146,0.099-0.252,0.229-0.336,0.386
		c-0.083,0.155-0.126,0.358-0.126,0.599c0,0.229,0.043,0.421,0.126,0.577c0.084,0.157,0.199,0.28,0.351,0.371
		c0.144,0.093,0.31,0.153,0.504,0.19c0.189,0.035,0.392,0.054,0.597,0.054c0.508,0,0.899-0.084,1.177-0.253
		c0.277-0.17,0.479-0.369,0.615-0.606c0.131-0.229,0.213-0.47,0.242-0.714c0.029-0.238,0.045-0.434,0.045-0.577V21.42
		C184.5,21.521,184.363,21.593,184.203,21.646z"/>
	<path fill="#E16B25" d="M197.363,26.684c-0.104,0.482-0.323,0.935-0.66,1.346c-0.34,0.421-0.825,0.771-1.465,1.061
		c-0.639,0.289-1.493,0.436-2.566,0.436c-0.459,0-0.925-0.06-1.4-0.17c-0.478-0.112-0.91-0.293-1.303-0.533
		c-0.391-0.24-0.72-0.553-0.977-0.932c-0.258-0.383-0.406-0.839-0.443-1.365h2.553c0.119,0.479,0.354,0.813,0.703,1.004
		c0.354,0.187,0.754,0.279,1.213,0.279c0.727,0,1.25-0.221,1.582-0.65c0.332-0.438,0.49-0.983,0.479-1.646v-1.229h-0.037
		c-0.278,0.496-0.675,0.857-1.185,1.098c-0.512,0.232-1.051,0.352-1.618,0.352c-0.699,0-1.302-0.125-1.81-0.371
		c-0.508-0.244-0.926-0.586-1.246-1.014c-0.324-0.428-0.562-0.93-0.719-1.5c-0.146-0.572-0.225-1.18-0.225-1.818
		c0-0.603,0.086-1.184,0.26-1.744c0.18-0.561,0.436-1.055,0.771-1.482c0.334-0.427,0.756-0.769,1.256-1.022
		c0.498-0.253,1.076-0.379,1.727-0.379c0.616,0,1.157,0.113,1.619,0.343s0.854,0.615,1.167,1.159h0.036v-1.248h2.439v8.751
		C197.521,25.771,197.469,26.201,197.363,26.684z M193.848,23.57c0.276-0.146,0.508-0.336,0.688-0.577
		c0.185-0.24,0.315-0.517,0.407-0.822c0.094-0.308,0.14-0.631,0.14-0.966c0-0.389-0.036-0.753-0.106-1.098
		c-0.072-0.342-0.193-0.646-0.359-0.912c-0.172-0.264-0.396-0.475-0.676-0.633c-0.274-0.156-0.623-0.234-1.045-0.234
		c-0.361,0-0.678,0.073-0.935,0.218c-0.267,0.146-0.479,0.339-0.647,0.587c-0.176,0.247-0.303,0.531-0.379,0.852
		c-0.076,0.322-0.117,0.654-0.117,1c0,0.341,0.033,0.677,0.1,1.009c0.062,0.331,0.182,0.629,0.346,0.896
		c0.16,0.266,0.373,0.479,0.642,0.647c0.271,0.17,0.598,0.254,0.993,0.254C193.25,23.79,193.57,23.717,193.848,23.57z"/>
	<path fill="#E16B25" d="M201.695,23.755c0.387,0.372,0.938,0.56,1.664,0.56c0.518,0,0.966-0.129,1.34-0.392
		c0.367-0.259,0.602-0.532,0.685-0.819h2.261c-0.358,1.121-0.918,1.924-1.664,2.402c-0.746,0.483-1.646,0.725-2.713,0.725
		c-0.73,0-1.396-0.115-1.988-0.354c-0.59-0.234-1.092-0.566-1.502-1.003c-0.405-0.435-0.725-0.954-0.946-1.558
		c-0.228-0.602-0.333-1.268-0.333-1.987c0-0.697,0.111-1.349,0.345-1.952c0.229-0.602,0.556-1.121,0.979-1.564
		c0.422-0.439,0.924-0.787,1.511-1.039c0.585-0.254,1.231-0.379,1.942-0.379c0.797,0,1.488,0.153,2.08,0.459
		c0.592,0.309,1.072,0.722,1.457,1.24c0.379,0.518,0.648,1.108,0.817,1.771c0.169,0.662,0.229,1.355,0.185,2.078h-6.744
		C201.1,22.775,201.311,23.381,201.695,23.755z M204.598,18.834c-0.306-0.336-0.771-0.506-1.397-0.506
		c-0.406,0-0.748,0.069-1.021,0.208c-0.271,0.139-0.486,0.31-0.65,0.514c-0.161,0.206-0.273,0.423-0.342,0.65
		c-0.064,0.229-0.104,0.436-0.117,0.616h4.178C205.12,19.666,204.906,19.171,204.598,18.834z"/>
	<path fill="#E16B25" d="M211.662,23.212v2.781h-2.842v-2.781H211.662z M210.865,22.125h-1.285l-0.688-5.569v-3.473h2.678v3.473
		L210.865,22.125z"/>
</g>
<g>
	<path fill="#FFFFFF" d="M77.691,22.18c0.158,0.299,0.364,0.545,0.625,0.731c0.259,0.188,0.564,0.325,0.912,0.415
		c0.351,0.093,0.711,0.136,1.085,0.136c0.253,0,0.523-0.019,0.814-0.062c0.289-0.043,0.56-0.125,0.814-0.246
		c0.252-0.119,0.462-0.285,0.632-0.498c0.168-0.209,0.252-0.477,0.252-0.805c0-0.353-0.11-0.638-0.333-0.854
		c-0.224-0.221-0.515-0.396-0.879-0.542c-0.36-0.146-0.77-0.271-1.227-0.378c-0.458-0.107-0.923-0.229-1.394-0.363
		c-0.482-0.119-0.951-0.268-1.41-0.441s-0.869-0.4-1.229-0.681c-0.361-0.276-0.655-0.623-0.877-1.038
		c-0.223-0.415-0.334-0.918-0.334-1.511c0-0.664,0.143-1.239,0.425-1.726c0.285-0.489,0.654-0.896,1.113-1.222
		c0.458-0.326,0.978-0.565,1.556-0.723c0.579-0.156,1.157-0.235,1.735-0.235c0.676,0,1.322,0.076,1.944,0.227
		c0.621,0.151,1.172,0.395,1.655,0.731c0.481,0.339,0.864,0.769,1.147,1.293c0.285,0.524,0.425,1.16,0.425,1.907h-2.75
		c-0.023-0.386-0.105-0.705-0.243-0.958c-0.139-0.254-0.323-0.454-0.553-0.598c-0.227-0.145-0.491-0.247-0.786-0.306
		c-0.296-0.059-0.618-0.09-0.968-0.09c-0.228,0-0.458,0.023-0.687,0.072c-0.229,0.048-0.436,0.132-0.625,0.253
		c-0.186,0.12-0.339,0.271-0.461,0.452c-0.12,0.181-0.179,0.41-0.179,0.687c0,0.253,0.048,0.458,0.145,0.615
		c0.097,0.157,0.286,0.301,0.569,0.433c0.282,0.135,0.675,0.267,1.175,0.4c0.501,0.132,1.156,0.301,1.964,0.504
		c0.241,0.049,0.575,0.136,1.003,0.263c0.429,0.125,0.854,0.328,1.274,0.606c0.422,0.275,0.788,0.646,1.095,1.112
		c0.307,0.464,0.46,1.057,0.46,1.778c0,0.592-0.113,1.141-0.343,1.646c-0.228,0.505-0.568,0.94-1.021,1.312
		c-0.453,0.369-1.013,0.652-1.681,0.858c-0.669,0.204-1.444,0.308-2.322,0.308c-0.711,0-1.401-0.088-2.071-0.263
		c-0.669-0.176-1.259-0.446-1.771-0.823c-0.514-0.371-0.919-0.851-1.22-1.428c-0.301-0.579-0.447-1.266-0.435-2.062h2.749
		C77.457,21.509,77.535,21.877,77.691,22.18z"/>
	<path fill="#FFFFFF" d="M89.101,23.117c0.385,0.375,0.941,0.559,1.664,0.559c0.519,0,0.964-0.128,1.338-0.388
		c0.373-0.259,0.604-0.531,0.688-0.819h2.26c-0.36,1.119-0.917,1.922-1.663,2.402c-0.748,0.484-1.651,0.727-2.711,0.727
		c-0.737,0-1.401-0.119-1.99-0.354c-0.592-0.235-1.092-0.569-1.501-1.004c-0.41-0.436-0.727-0.951-0.948-1.557
		c-0.225-0.603-0.335-1.268-0.335-1.988c0-0.697,0.114-1.35,0.342-1.952c0.229-0.602,0.555-1.124,0.978-1.563
		c0.421-0.44,0.925-0.789,1.511-1.04c0.584-0.253,1.232-0.38,1.945-0.38c0.795,0,1.488,0.154,2.078,0.46
		c0.59,0.308,1.075,0.721,1.455,1.24c0.379,0.518,0.656,1.108,0.823,1.772c0.169,0.662,0.228,1.354,0.181,2.078h-6.744
		C88.504,22.143,88.715,22.748,89.101,23.117z M92.004,18.2c-0.307-0.336-0.776-0.505-1.401-0.505c-0.412,0-0.751,0.068-1.022,0.207
		c-0.272,0.139-0.489,0.311-0.651,0.516c-0.162,0.205-0.277,0.421-0.343,0.65c-0.067,0.229-0.107,0.434-0.119,0.615h4.177
		C92.526,19.029,92.312,18.538,92.004,18.2z"/>
	<path fill="#FFFFFF" d="M98.539,16.012v1.302h0.056c0.326-0.542,0.747-0.938,1.266-1.185c0.518-0.247,1.05-0.372,1.591-0.372
		c0.688,0,1.25,0.095,1.691,0.28c0.44,0.188,0.787,0.447,1.04,0.777c0.253,0.333,0.431,0.736,0.535,1.212
		c0.101,0.477,0.153,1.003,0.153,1.583v5.75h-2.568V20.08c0-0.771-0.121-1.346-0.362-1.729c-0.24-0.378-0.669-0.569-1.284-0.569
		c-0.699,0-1.204,0.208-1.518,0.624c-0.315,0.416-0.472,1.101-0.472,2.052v4.901h-2.566v-9.347H98.539z"/>
	<path fill="#FFFFFF" d="M112.825,24.166c-0.302,0.507-0.697,0.873-1.185,1.098c-0.487,0.223-1.039,0.334-1.655,0.334
		c-0.699,0-1.315-0.137-1.844-0.408c-0.531-0.271-0.968-0.639-1.312-1.104c-0.343-0.462-0.603-0.998-0.777-1.6
		c-0.175-0.604-0.264-1.229-0.264-1.881c0-0.625,0.087-1.23,0.264-1.816c0.176-0.583,0.434-1.098,0.777-1.545
		c0.344-0.446,0.775-0.804,1.293-1.075s1.121-0.408,1.807-0.408c0.556,0,1.083,0.118,1.583,0.354c0.5,0.234,0.895,0.581,1.184,1.039
		h0.037V12.45h2.565v12.909h-2.44v-1.193H112.825L112.825,24.166z M112.716,19.548c-0.072-0.356-0.197-0.67-0.371-0.94
		c-0.175-0.271-0.401-0.492-0.679-0.662c-0.277-0.169-0.627-0.252-1.049-0.252c-0.422,0-0.777,0.083-1.066,0.252
		c-0.29,0.168-0.523,0.392-0.697,0.669c-0.176,0.275-0.301,0.593-0.38,0.947s-0.118,0.729-0.118,1.114
		c0,0.359,0.042,0.724,0.127,1.087c0.083,0.357,0.22,0.682,0.406,0.965c0.188,0.285,0.422,0.516,0.705,0.688
		c0.283,0.172,0.623,0.258,1.021,0.258c0.422,0,0.774-0.082,1.057-0.25c0.285-0.171,0.508-0.396,0.68-0.678
		c0.167-0.283,0.289-0.607,0.361-0.971c0.073-0.361,0.108-0.733,0.108-1.119C112.821,20.271,112.79,19.904,112.716,19.548z"/>
	<path fill="#FFFFFF" d="M121.341,17.387c0.265-0.397,0.604-0.717,1.012-0.958c0.41-0.241,0.872-0.413,1.384-0.517
		c0.513-0.102,1.027-0.154,1.547-0.154c0.471,0,0.946,0.035,1.429,0.102c0.482,0.064,0.923,0.196,1.321,0.388
		c0.396,0.193,0.722,0.459,0.976,0.806c0.252,0.343,0.378,0.798,0.378,1.366v4.863c0,0.422,0.025,0.826,0.073,1.212
		c0.049,0.386,0.132,0.675,0.253,0.866h-2.604c-0.049-0.145-0.087-0.291-0.118-0.443c-0.03-0.148-0.052-0.305-0.063-0.458
		c-0.41,0.421-0.892,0.718-1.446,0.888c-0.555,0.166-1.121,0.252-1.699,0.252c-0.447,0-0.863-0.057-1.248-0.162
		c-0.387-0.106-0.723-0.275-1.013-0.51c-0.291-0.228-0.516-0.517-0.678-0.861c-0.164-0.354-0.246-0.769-0.246-1.25
		c0-0.528,0.095-0.971,0.281-1.312c0.187-0.342,0.428-0.616,0.723-0.819c0.296-0.209,0.634-0.36,1.013-0.463
		c0.379-0.102,0.763-0.184,1.148-0.242c0.386-0.062,0.767-0.109,1.14-0.146c0.373-0.037,0.704-0.091,0.995-0.164
		c0.289-0.069,0.517-0.177,0.686-0.313c0.168-0.141,0.246-0.34,0.235-0.606c0-0.276-0.045-0.498-0.136-0.661
		c-0.09-0.163-0.212-0.288-0.361-0.379c-0.15-0.09-0.325-0.152-0.523-0.182c-0.199-0.029-0.414-0.044-0.642-0.044
		c-0.505,0-0.903,0.108-1.194,0.326c-0.289,0.218-0.459,0.579-0.505,1.083h-2.568C120.924,18.286,121.074,17.784,121.341,17.387z
		 M126.412,21.014c-0.162,0.051-0.337,0.102-0.525,0.135c-0.187,0.035-0.382,0.065-0.588,0.095
		c-0.205,0.021-0.409,0.054-0.615,0.089c-0.193,0.036-0.383,0.082-0.568,0.146c-0.187,0.062-0.35,0.144-0.489,0.242
		c-0.139,0.104-0.25,0.23-0.334,0.391c-0.085,0.154-0.127,0.355-0.127,0.598c0,0.229,0.042,0.42,0.127,0.578
		c0.084,0.156,0.199,0.277,0.344,0.369c0.146,0.093,0.312,0.152,0.505,0.191c0.194,0.034,0.392,0.053,0.598,0.053
		c0.506,0,0.897-0.084,1.175-0.256c0.277-0.166,0.482-0.367,0.614-0.604c0.133-0.232,0.214-0.473,0.244-0.713
		c0.029-0.242,0.045-0.438,0.045-0.58v-0.959C126.709,20.884,126.576,20.958,126.412,21.014z"/>
	<path fill="#FFFFFF" d="M137.633,16.012v1.267h0.036c0.337-0.483,0.744-0.854,1.22-1.122c0.476-0.265,1.023-0.398,1.637-0.398
		c0.589,0,1.13,0.115,1.619,0.346c0.487,0.227,0.859,0.631,1.112,1.21c0.277-0.41,0.652-0.771,1.13-1.085
		c0.477-0.313,1.04-0.471,1.691-0.471c0.49,0,0.951,0.062,1.373,0.182c0.422,0.121,0.783,0.313,1.084,0.578
		c0.302,0.266,0.537,0.613,0.703,1.041c0.173,0.427,0.256,0.943,0.256,1.545v6.256h-2.566v-5.297c0-0.312-0.015-0.608-0.037-0.889
		c-0.021-0.275-0.091-0.518-0.197-0.722c-0.105-0.206-0.269-0.368-0.479-0.49c-0.211-0.12-0.498-0.18-0.855-0.18
		c-0.359,0-0.652,0.068-0.877,0.208c-0.225,0.139-0.396,0.318-0.523,0.543c-0.127,0.224-0.211,0.476-0.254,0.759
		c-0.043,0.284-0.062,0.567-0.062,0.856v5.207h-2.572v-5.242c0-0.278-0.006-0.553-0.019-0.822c-0.011-0.271-0.062-0.521-0.153-0.75
		c-0.089-0.229-0.239-0.413-0.452-0.551c-0.209-0.139-0.521-0.208-0.931-0.208c-0.121,0-0.28,0.027-0.479,0.082
		c-0.197,0.055-0.392,0.157-0.579,0.309c-0.188,0.15-0.347,0.368-0.478,0.651c-0.132,0.281-0.198,0.652-0.198,1.111v5.422h-2.569
		v-9.346L137.633,16.012L137.633,16.012z"/>
	<path fill="#FFFFFF" d="M153.634,23.117c0.386,0.375,0.94,0.559,1.663,0.559c0.52,0,0.967-0.128,1.34-0.388
		c0.371-0.259,0.602-0.531,0.688-0.819h2.262c-0.36,1.119-0.917,1.922-1.663,2.402c-0.748,0.484-1.648,0.727-2.713,0.727
		c-0.732,0-1.396-0.119-1.986-0.354c-0.593-0.235-1.094-0.569-1.5-1.004c-0.412-0.436-0.729-0.951-0.949-1.557
		c-0.226-0.603-0.336-1.268-0.336-1.988c0-0.697,0.112-1.35,0.345-1.952c0.229-0.602,0.555-1.124,0.976-1.563
		c0.422-0.44,0.93-0.789,1.512-1.04c0.584-0.253,1.23-0.38,1.943-0.38c0.797,0,1.49,0.154,2.08,0.46
		c0.59,0.308,1.075,0.721,1.456,1.24c0.38,0.518,0.653,1.108,0.819,1.772c0.171,0.662,0.229,1.354,0.184,2.078h-6.744
		C153.039,22.143,153.249,22.748,153.634,23.117z M156.536,18.2c-0.306-0.336-0.772-0.505-1.399-0.505
		c-0.412,0-0.75,0.068-1.023,0.207c-0.271,0.139-0.483,0.311-0.646,0.516c-0.159,0.205-0.274,0.421-0.344,0.65
		c-0.062,0.229-0.104,0.434-0.118,0.615h4.18C157.059,19.029,156.844,18.538,156.536,18.2z"/>
	<path fill="#FFFFFF" d="M162.794,23.037c0.114,0.199,0.265,0.361,0.44,0.488c0.185,0.125,0.392,0.222,0.623,0.279
		c0.233,0.062,0.479,0.09,0.732,0.09c0.182,0,0.367-0.021,0.564-0.062s0.384-0.105,0.547-0.198c0.16-0.09,0.297-0.211,0.402-0.358
		c0.105-0.151,0.162-0.344,0.162-0.569c0-0.388-0.256-0.679-0.767-0.867c-0.515-0.19-1.229-0.387-2.146-0.58
		c-0.373-0.083-0.737-0.183-1.098-0.296c-0.354-0.113-0.673-0.27-0.945-0.455c-0.278-0.188-0.5-0.419-0.67-0.703
		c-0.17-0.283-0.252-0.632-0.252-1.039c0-0.604,0.114-1.1,0.351-1.482c0.235-0.385,0.545-0.69,0.935-0.912
		c0.387-0.225,0.818-0.381,1.303-0.472c0.48-0.089,0.979-0.135,1.481-0.135c0.507,0,0.999,0.049,1.474,0.146
		c0.479,0.096,0.901,0.26,1.273,0.488c0.374,0.228,0.686,0.534,0.932,0.913c0.248,0.379,0.396,0.858,0.442,1.437h-2.438
		c-0.037-0.495-0.225-0.828-0.562-1.002c-0.339-0.174-0.733-0.263-1.192-0.263c-0.146,0-0.304,0.009-0.472,0.027
		c-0.172,0.018-0.321,0.057-0.461,0.116c-0.142,0.062-0.257,0.149-0.353,0.263c-0.101,0.114-0.146,0.269-0.146,0.46
		c0,0.229,0.083,0.417,0.252,0.56c0.17,0.144,0.391,0.263,0.66,0.354c0.271,0.088,0.581,0.17,0.934,0.241
		c0.35,0.073,0.706,0.151,1.062,0.236c0.375,0.083,0.74,0.188,1.098,0.308c0.354,0.122,0.674,0.281,0.947,0.479
		c0.275,0.199,0.501,0.447,0.67,0.742c0.17,0.295,0.253,0.66,0.253,1.092c0,0.615-0.124,1.134-0.367,1.551
		c-0.25,0.416-0.571,0.751-0.971,1.004c-0.396,0.251-0.854,0.434-1.363,0.529c-0.515,0.104-1.034,0.154-1.563,0.154
		c-0.541,0-1.07-0.058-1.592-0.162c-0.521-0.105-0.979-0.291-1.386-0.543c-0.403-0.252-0.733-0.586-0.993-1.004
		c-0.263-0.418-0.4-0.938-0.428-1.562h2.441C162.622,22.602,162.677,22.838,162.794,23.037z"/>
	<path fill="#FFFFFF" d="M171.87,23.037c0.114,0.199,0.264,0.361,0.442,0.488c0.182,0.125,0.389,0.222,0.625,0.279
		c0.23,0.062,0.478,0.09,0.729,0.09c0.184,0,0.368-0.021,0.562-0.062c0.199-0.041,0.381-0.105,0.545-0.198
		c0.162-0.09,0.301-0.211,0.406-0.358c0.108-0.151,0.162-0.344,0.162-0.569c0-0.388-0.258-0.679-0.769-0.867
		c-0.515-0.19-1.226-0.387-2.142-0.58c-0.377-0.083-0.738-0.183-1.1-0.296c-0.354-0.113-0.671-0.27-0.949-0.455
		c-0.273-0.188-0.496-0.419-0.668-0.703c-0.166-0.283-0.253-0.632-0.253-1.039c0-0.604,0.117-1.1,0.354-1.482
		c0.229-0.385,0.545-0.69,0.932-0.912c0.389-0.225,0.816-0.381,1.3-0.472c0.483-0.089,0.979-0.135,1.484-0.135
		c0.508,0,0.995,0.049,1.475,0.146c0.478,0.096,0.901,0.26,1.271,0.488c0.375,0.228,0.688,0.534,0.935,0.913
		c0.249,0.379,0.396,0.858,0.444,1.437h-2.439c-0.035-0.495-0.225-0.828-0.561-1.002c-0.344-0.174-0.735-0.263-1.195-0.263
		c-0.143,0-0.299,0.009-0.47,0.027c-0.171,0.018-0.321,0.057-0.462,0.116c-0.141,0.062-0.26,0.149-0.354,0.263
		c-0.1,0.114-0.146,0.269-0.146,0.46c0,0.229,0.085,0.417,0.256,0.56c0.168,0.144,0.39,0.263,0.658,0.354
		c0.271,0.088,0.58,0.17,0.934,0.241c0.352,0.073,0.704,0.151,1.062,0.236c0.375,0.083,0.735,0.188,1.098,0.308
		c0.354,0.122,0.671,0.281,0.947,0.479c0.274,0.199,0.502,0.447,0.671,0.742c0.17,0.295,0.255,0.66,0.255,1.092
		c0,0.615-0.126,1.134-0.372,1.551c-0.248,0.416-0.567,0.751-0.97,1.004c-0.398,0.251-0.854,0.434-1.364,0.529
		c-0.515,0.104-1.034,0.154-1.562,0.154c-0.541,0-1.071-0.058-1.592-0.162c-0.521-0.105-0.979-0.291-1.385-0.543
		c-0.402-0.252-0.734-0.586-0.997-1.004c-0.262-0.418-0.397-0.938-0.426-1.562h2.438C171.7,22.602,171.755,22.838,171.87,23.037z"/>
	<path fill="#FFFFFF" d="M179.13,17.387c0.265-0.397,0.603-0.717,1.013-0.958c0.412-0.241,0.871-0.413,1.385-0.517
		c0.515-0.102,1.027-0.154,1.549-0.154c0.471,0,0.943,0.035,1.43,0.102c0.479,0.064,0.922,0.196,1.32,0.388
		c0.396,0.193,0.724,0.459,0.977,0.806c0.254,0.343,0.385,0.798,0.385,1.366v4.863c0,0.422,0.021,0.826,0.065,1.212
		c0.048,0.386,0.136,0.675,0.252,0.866H184.9c-0.051-0.145-0.09-0.291-0.119-0.443c-0.03-0.148-0.051-0.305-0.061-0.458
		c-0.412,0.421-0.896,0.718-1.449,0.888c-0.561,0.166-1.121,0.252-1.699,0.252c-0.444,0-0.862-0.057-1.248-0.162
		c-0.385-0.106-0.725-0.275-1.012-0.51c-0.291-0.228-0.521-0.517-0.684-0.861c-0.16-0.354-0.238-0.769-0.238-1.25
		c0-0.528,0.092-0.971,0.276-1.312c0.188-0.342,0.427-0.616,0.726-0.819c0.293-0.209,0.633-0.36,1.014-0.463
		c0.381-0.102,0.763-0.184,1.146-0.242c0.386-0.062,0.767-0.109,1.142-0.146c0.373-0.037,0.703-0.091,0.994-0.164
		c0.289-0.069,0.521-0.177,0.688-0.313c0.171-0.141,0.248-0.34,0.234-0.606c0-0.276-0.047-0.498-0.137-0.661
		c-0.093-0.163-0.209-0.288-0.361-0.379c-0.148-0.09-0.322-0.152-0.522-0.182c-0.194-0.029-0.411-0.044-0.646-0.044
		c-0.506,0-0.899,0.108-1.188,0.326c-0.291,0.218-0.46,0.579-0.507,1.083h-2.565C178.714,18.286,178.865,17.784,179.13,17.387z
		 M184.203,21.014c-0.162,0.051-0.34,0.102-0.523,0.135c-0.188,0.035-0.385,0.065-0.59,0.095c-0.205,0.021-0.408,0.054-0.613,0.089
		c-0.191,0.036-0.384,0.082-0.567,0.146c-0.188,0.062-0.353,0.144-0.486,0.242c-0.146,0.104-0.252,0.23-0.336,0.391
		c-0.083,0.154-0.126,0.355-0.126,0.598c0,0.229,0.043,0.42,0.126,0.578c0.084,0.156,0.199,0.277,0.351,0.369
		c0.144,0.093,0.31,0.152,0.504,0.191c0.189,0.034,0.392,0.053,0.597,0.053c0.508,0,0.899-0.084,1.177-0.256
		c0.277-0.166,0.479-0.367,0.615-0.604c0.131-0.232,0.213-0.473,0.242-0.713c0.029-0.242,0.045-0.438,0.045-0.58v-0.959
		C184.5,20.884,184.363,20.958,184.203,21.014z"/>
	<path fill="#FFFFFF" d="M197.363,26.048c-0.104,0.481-0.323,0.933-0.66,1.347c-0.34,0.416-0.825,0.771-1.465,1.062
		c-0.639,0.288-1.493,0.438-2.566,0.438c-0.459,0-0.925-0.062-1.4-0.174c-0.478-0.113-0.91-0.295-1.303-0.533
		c-0.391-0.24-0.72-0.555-0.977-0.935c-0.258-0.378-0.406-0.836-0.443-1.362h2.553c0.119,0.479,0.354,0.812,0.703,1.004
		c0.354,0.188,0.754,0.278,1.213,0.278c0.727,0,1.25-0.219,1.582-0.649c0.332-0.434,0.49-0.984,0.479-1.646v-1.23h-0.037
		c-0.278,0.496-0.675,0.86-1.185,1.099c-0.512,0.233-1.051,0.354-1.618,0.354c-0.699,0-1.302-0.125-1.81-0.373
		c-0.508-0.246-0.926-0.584-1.246-1.013c-0.324-0.43-0.562-0.932-0.719-1.501c-0.146-0.572-0.225-1.184-0.225-1.818
		c0-0.601,0.086-1.184,0.26-1.744c0.18-0.561,0.436-1.054,0.771-1.48c0.334-0.429,0.756-0.77,1.256-1.022
		c0.498-0.253,1.076-0.38,1.727-0.38c0.616,0,1.157,0.115,1.619,0.345c0.462,0.229,0.854,0.614,1.167,1.157h0.036v-1.248h2.439
		v8.751C197.521,25.139,197.469,25.564,197.363,26.048z M193.848,22.938c0.276-0.145,0.508-0.336,0.688-0.58
		c0.185-0.237,0.315-0.515,0.407-0.818c0.094-0.311,0.14-0.635,0.14-0.969c0-0.385-0.036-0.75-0.106-1.096
		c-0.072-0.343-0.193-0.646-0.359-0.912c-0.172-0.264-0.396-0.477-0.676-0.631c-0.274-0.156-0.623-0.235-1.045-0.235
		c-0.361,0-0.678,0.071-0.935,0.217c-0.267,0.145-0.479,0.339-0.647,0.587c-0.176,0.247-0.303,0.532-0.379,0.852
		c-0.076,0.318-0.117,0.653-0.117,1.004c0,0.334,0.033,0.668,0.1,1.002c0.062,0.33,0.182,0.631,0.346,0.895
		c0.16,0.268,0.373,0.48,0.642,0.65c0.271,0.168,0.598,0.252,0.993,0.252C193.25,23.154,193.57,23.081,193.848,22.938z"/>
	<path fill="#FFFFFF" d="M201.695,23.117c0.387,0.375,0.938,0.559,1.664,0.559c0.518,0,0.966-0.128,1.34-0.388
		c0.367-0.259,0.602-0.531,0.685-0.819h2.261c-0.358,1.119-0.918,1.922-1.664,2.402c-0.746,0.484-1.646,0.727-2.713,0.727
		c-0.73,0-1.396-0.119-1.988-0.354c-0.59-0.235-1.092-0.569-1.502-1.004c-0.405-0.436-0.725-0.951-0.946-1.557
		c-0.228-0.603-0.333-1.268-0.333-1.988c0-0.697,0.111-1.35,0.345-1.952c0.229-0.602,0.556-1.124,0.979-1.563
		c0.422-0.44,0.924-0.789,1.511-1.04c0.585-0.253,1.231-0.38,1.942-0.38c0.797,0,1.488,0.154,2.08,0.46
		c0.592,0.308,1.072,0.721,1.457,1.24c0.379,0.518,0.648,1.108,0.817,1.772c0.169,0.662,0.229,1.354,0.185,2.078h-6.744
		C201.1,22.143,201.311,22.748,201.695,23.117z M204.598,18.2c-0.306-0.336-0.771-0.505-1.397-0.505
		c-0.406,0-0.748,0.068-1.021,0.207c-0.271,0.139-0.486,0.311-0.65,0.516c-0.161,0.205-0.273,0.421-0.342,0.65
		c-0.064,0.229-0.104,0.434-0.117,0.615h4.178C205.12,19.029,204.906,18.538,204.598,18.2z"/>
	<path fill="#FFFFFF" d="M211.662,22.576v2.783h-2.842v-2.783H211.662z M210.865,21.489h-1.285l-0.688-5.567V12.45h2.678v3.472
		L210.865,21.489z"/>
</g>
</svg>
