<?xml version="1.0" encoding="utf-8"?>
<!-- Generator: Adobe Illustrator 15.1.0, SVG Export Plug-In . SVG Version: 6.00 Build 0)  -->
<!DOCTYPE svg PUBLIC "-//W3C//DTD SVG 1.1//EN" "http://www.w3.org/Graphics/SVG/1.1/DTD/svg11.dtd">
<svg version="1.1" id="Livello_1" xmlns="http://www.w3.org/2000/svg" xmlns:xlink="http://www.w3.org/1999/xlink" x="0px" y="0px"
	 width="83px" height="83px" viewBox="0 0 83 83" enable-background="new 0 0 83 83" xml:space="preserve">
<circle fill="#C7C6C7" cx="41.5" cy="41.501" r="32.667"/>
<g>
	<path fill="#939393" d="M19.887,20.264v41.229h8.68v-7.596c0-0.6,0.388-1.085,0.867-1.085h24.304c0.479,0,0.867,0.485,0.867,1.085
		v7.596h8.68V20.264h-8.68v7.595c0,0.601-0.388,1.086-0.867,1.086H29.434c-0.479,0-0.867-0.485-0.867-1.086v-7.595H19.887z
		 M22.924,22.435h2.604c0.48,0,0.868,0.192,0.868,0.433v1.302c0,0.243-0.388,0.437-0.868,0.437h-2.604
		c-0.48,0-0.867-0.193-0.867-0.437v-1.302C22.057,22.627,22.443,22.435,22.924,22.435z M57.643,22.435h2.604
		c0.48,0,0.867,0.192,0.867,0.433v1.302c0,0.243-0.387,0.437-0.867,0.437h-2.604c-0.48,0-0.868-0.193-0.868-0.437v-1.302
		C56.774,22.627,57.162,22.435,57.643,22.435z M22.924,27.004h2.604c0.48,0,0.868,0.193,0.868,0.434v1.302
		c0,0.243-0.388,0.436-0.868,0.436h-2.604c-0.48,0-0.867-0.192-0.867-0.436v-1.302C22.057,27.197,22.443,27.004,22.924,27.004z
		 M57.643,27.004h2.604c0.48,0,0.867,0.193,0.867,0.434v1.302c0,0.243-0.387,0.436-0.867,0.436h-2.604
		c-0.48,0-0.868-0.192-0.868-0.436v-1.302C56.774,27.197,57.162,27.004,57.643,27.004z M22.924,31.112h2.604
		c0.48,0,0.868,0.196,0.868,0.436v1.303c0,0.24-0.388,0.433-0.868,0.433h-2.604c-0.48,0-0.867-0.192-0.867-0.433v-1.303
		C22.057,31.309,22.443,31.112,22.924,31.112z M29.434,31.112h24.304c0.479,0,0.867,0.436,0.867,0.978v17.576
		c0,0.541-0.388,0.977-0.867,0.977H29.434c-0.479,0-0.867-0.436-0.867-0.977V32.09C28.566,31.548,28.954,31.112,29.434,31.112z
		 M57.643,31.112h2.604c0.48,0,0.867,0.196,0.867,0.436v1.303c0,0.24-0.387,0.433-0.867,0.433h-2.604
		c-0.48,0-0.868-0.192-0.868-0.433v-1.303C56.774,31.309,57.162,31.112,57.643,31.112z M22.924,35.454h2.604
		c0.48,0,0.868,0.193,0.868,0.434v1.302c0,0.24-0.388,0.434-0.868,0.434h-2.604c-0.48,0-0.867-0.193-0.867-0.434v-1.302
		C22.057,35.647,22.443,35.454,22.924,35.454z M57.643,35.454h2.604c0.48,0,0.867,0.193,0.867,0.434v1.302
		c0,0.24-0.387,0.434-0.867,0.434h-2.604c-0.48,0-0.868-0.193-0.868-0.434v-1.302C56.774,35.647,57.162,35.454,57.643,35.454z
		 M22.924,39.794h2.604c0.48,0,0.868,0.192,0.868,0.433v1.303c0,0.239-0.388,0.433-0.868,0.433h-2.604
		c-0.48,0-0.867-0.193-0.867-0.433v-1.303C22.057,39.986,22.443,39.794,22.924,39.794z M57.643,39.794h2.604
		c0.48,0,0.867,0.192,0.867,0.433v1.303c0,0.239-0.387,0.433-0.867,0.433h-2.604c-0.48,0-0.868-0.193-0.868-0.433v-1.303
		C56.774,39.986,57.162,39.794,57.643,39.794z M22.924,44.133h2.604c0.48,0,0.868,0.193,0.868,0.434v1.302
		c0,0.242-0.388,0.436-0.868,0.436h-2.604c-0.48,0-0.867-0.193-0.867-0.436v-1.302C22.057,44.326,22.443,44.133,22.924,44.133z
		 M57.643,44.133h2.604c0.48,0,0.867,0.193,0.867,0.434v1.302c0,0.242-0.387,0.436-0.867,0.436h-2.604
		c-0.48,0-0.868-0.193-0.868-0.436v-1.302C56.774,44.326,57.162,44.133,57.643,44.133z M22.924,48.473h2.604
		c0.48,0,0.868,0.192,0.868,0.436v1.302c0,0.24-0.388,0.433-0.868,0.433h-2.604c-0.48,0-0.867-0.192-0.867-0.433v-1.302
		C22.057,48.665,22.443,48.473,22.924,48.473z M57.643,48.473h2.604c0.48,0,0.867,0.192,0.867,0.436v1.302
		c0,0.24-0.387,0.433-0.867,0.433h-2.604c-0.48,0-0.868-0.192-0.868-0.433v-1.302C56.774,48.665,57.162,48.473,57.643,48.473z
		 M22.924,52.812h2.604c0.48,0,0.868,0.195,0.868,0.436v1.302c0,0.24-0.388,0.434-0.868,0.434h-2.604
		c-0.48,0-0.867-0.193-0.867-0.434v-1.302C22.057,53.007,22.443,52.812,22.924,52.812z M57.643,52.812h2.604
		c0.48,0,0.867,0.195,0.867,0.436v1.302c0,0.24-0.387,0.434-0.867,0.434h-2.604c-0.48,0-0.868-0.193-0.868-0.434v-1.302
		C56.774,53.007,57.162,52.812,57.643,52.812z M22.924,57.153h2.604c0.48,0,0.868,0.192,0.868,0.433v1.303
		c0,0.24-0.388,0.433-0.868,0.433h-2.604c-0.48,0-0.867-0.192-0.867-0.433v-1.303C22.057,57.346,22.443,57.153,22.924,57.153z
		 M57.643,57.153h2.604c0.48,0,0.867,0.192,0.867,0.433v1.303c0,0.24-0.387,0.433-0.867,0.433h-2.604
		c-0.48,0-0.868-0.192-0.868-0.433v-1.303C56.774,57.346,57.162,57.153,57.643,57.153z"/>
	<path fill="#EFEEEE" d="M19.887,19.491V60.72h8.68v-7.595c0-0.601,0.388-1.086,0.867-1.086h24.304c0.479,0,0.867,0.485,0.867,1.086
		v7.595h8.68V19.491h-8.68v7.596c0,0.6-0.388,1.085-0.867,1.085H29.434c-0.479,0-0.867-0.485-0.867-1.085v-7.596H19.887z
		 M22.924,21.662h2.604c0.48,0,0.868,0.193,0.868,0.433v1.303c0,0.242-0.388,0.436-0.868,0.436h-2.604
		c-0.48,0-0.867-0.193-0.867-0.436v-1.303C22.057,21.855,22.443,21.662,22.924,21.662z M57.643,21.662h2.604
		c0.48,0,0.867,0.193,0.867,0.433v1.303c0,0.242-0.387,0.436-0.867,0.436h-2.604c-0.48,0-0.868-0.193-0.868-0.436v-1.303
		C56.774,21.855,57.162,21.662,57.643,21.662z M22.924,26.232h2.604c0.48,0,0.868,0.192,0.868,0.433v1.302
		c0,0.243-0.388,0.436-0.868,0.436h-2.604c-0.48,0-0.867-0.192-0.867-0.436v-1.302C22.057,26.425,22.443,26.232,22.924,26.232z
		 M57.643,26.232h2.604c0.48,0,0.867,0.192,0.867,0.433v1.302c0,0.243-0.387,0.436-0.867,0.436h-2.604
		c-0.48,0-0.868-0.192-0.868-0.436v-1.302C56.774,26.425,57.162,26.232,57.643,26.232z M22.924,30.341h2.604
		c0.48,0,0.868,0.195,0.868,0.436v1.302c0,0.24-0.388,0.434-0.868,0.434h-2.604c-0.48,0-0.867-0.193-0.867-0.434v-1.302
		C22.057,30.536,22.443,30.341,22.924,30.341z M29.434,30.341h24.304c0.479,0,0.867,0.436,0.867,0.977v17.576
		c0,0.542-0.388,0.978-0.867,0.978H29.434c-0.479,0-0.867-0.436-0.867-0.978V31.317C28.566,30.776,28.954,30.341,29.434,30.341z
		 M57.643,30.341h2.604c0.48,0,0.867,0.195,0.867,0.436v1.302c0,0.24-0.387,0.434-0.867,0.434h-2.604
		c-0.48,0-0.868-0.193-0.868-0.434v-1.302C56.774,30.536,57.162,30.341,57.643,30.341z M22.924,34.682h2.604
		c0.48,0,0.868,0.193,0.868,0.434v1.302c0,0.24-0.388,0.434-0.868,0.434h-2.604c-0.48,0-0.867-0.193-0.867-0.434v-1.302
		C22.057,34.875,22.443,34.682,22.924,34.682z M57.643,34.682h2.604c0.48,0,0.867,0.193,0.867,0.434v1.302
		c0,0.24-0.387,0.434-0.867,0.434h-2.604c-0.48,0-0.868-0.193-0.868-0.434v-1.302C56.774,34.875,57.162,34.682,57.643,34.682z
		 M22.924,39.021h2.604c0.48,0,0.868,0.193,0.868,0.434v1.302c0,0.24-0.388,0.433-0.868,0.433h-2.604
		c-0.48,0-0.867-0.192-0.867-0.433v-1.302C22.057,39.215,22.443,39.021,22.924,39.021z M57.643,39.021h2.604
		c0.48,0,0.867,0.193,0.867,0.434v1.302c0,0.24-0.387,0.433-0.867,0.433h-2.604c-0.48,0-0.868-0.192-0.868-0.433v-1.302
		C56.774,39.215,57.162,39.021,57.643,39.021z M22.924,43.36h2.604c0.48,0,0.868,0.193,0.868,0.434v1.302
		c0,0.243-0.388,0.436-0.868,0.436h-2.604c-0.48,0-0.867-0.192-0.867-0.436v-1.302C22.057,43.554,22.443,43.36,22.924,43.36z
		 M57.643,43.36h2.604c0.48,0,0.867,0.193,0.867,0.434v1.302c0,0.243-0.387,0.436-0.867,0.436h-2.604
		c-0.48,0-0.868-0.192-0.868-0.436v-1.302C56.774,43.554,57.162,43.36,57.643,43.36z M22.924,47.7h2.604
		c0.48,0,0.868,0.192,0.868,0.436v1.302c0,0.24-0.388,0.434-0.868,0.434h-2.604c-0.48,0-0.867-0.193-0.867-0.434v-1.302
		C22.057,47.893,22.443,47.7,22.924,47.7z M57.643,47.7h2.604c0.48,0,0.867,0.192,0.867,0.436v1.302c0,0.24-0.387,0.434-0.867,0.434
		h-2.604c-0.48,0-0.868-0.193-0.868-0.434v-1.302C56.774,47.893,57.162,47.7,57.643,47.7z M22.924,52.039h2.604
		c0.48,0,0.868,0.195,0.868,0.436v1.302c0,0.24-0.388,0.434-0.868,0.434h-2.604c-0.48,0-0.867-0.193-0.867-0.434v-1.302
		C22.057,52.234,22.443,52.039,22.924,52.039z M57.643,52.039h2.604c0.48,0,0.867,0.195,0.867,0.436v1.302
		c0,0.24-0.387,0.434-0.867,0.434h-2.604c-0.48,0-0.868-0.193-0.868-0.434v-1.302C56.774,52.234,57.162,52.039,57.643,52.039z
		 M22.924,56.381h2.604c0.48,0,0.868,0.193,0.868,0.434v1.302c0,0.24-0.388,0.433-0.868,0.433h-2.604
		c-0.48,0-0.867-0.192-0.867-0.433v-1.302C22.057,56.574,22.443,56.381,22.924,56.381z M57.643,56.381h2.604
		c0.48,0,0.867,0.193,0.867,0.434v1.302c0,0.24-0.387,0.433-0.867,0.433h-2.604c-0.48,0-0.868-0.192-0.868-0.433v-1.302
		C56.774,56.574,57.162,56.381,57.643,56.381z"/>
</g>
</svg>
