<?xml version="1.0" encoding="utf-8"?>
<!-- Generator: Adobe Illustrator 15.1.0, SVG Export Plug-In . SVG Version: 6.00 Build 0)  -->
<!DOCTYPE svg PUBLIC "-//W3C//DTD SVG 1.1//EN" "http://www.w3.org/Graphics/SVG/1.1/DTD/svg11.dtd">
<svg version="1.1" id="Livello_1" xmlns="http://www.w3.org/2000/svg" xmlns:xlink="http://www.w3.org/1999/xlink" x="0px" y="0px"
	 width="42.52px" height="42.52px" viewBox="0 0 42.52 42.52" enable-background="new 0 0 42.52 42.52" xml:space="preserve">
<g>
	<path fill="none" stroke="#DD6C10" stroke-width="1.99" stroke-miterlimit="10" d="M33.032,3.207H9.612
		c-1.556,0-2.816,1.258-2.816,2.815v23.419c0,1.555,1.261,2.817,2.816,2.817h7.385l4.075,6.952l4.468-6.952h7.492
		c1.556,0,2.815-1.263,2.815-2.817V6.022C35.848,4.465,34.588,3.207,33.032,3.207z"/>
</g>
<g>
	<path fill="#F4F4F4" d="M32.721,2.969H9.3c-1.555,0-2.815,1.262-2.815,2.823v23.481c0,1.559,1.261,2.825,2.815,2.825h7.386
		l4.075,6.97l4.468-6.97h7.492c1.556,0,2.814-1.267,2.814-2.825V5.792C35.535,4.231,34.276,2.969,32.721,2.969z"/>
</g>
<g>
	<linearGradient id="SVGID_1_" gradientUnits="userSpaceOnUse" x1="21.8428" y1="3.5469" x2="21.8428" y2="39.5513">
		<stop  offset="0" style="stop-color:#F7A93B"/>
		<stop  offset="1" style="stop-color:#F29042"/>
	</linearGradient>
	<path fill="url(#SVGID_1_)" d="M33.553,3.547H10.133c-1.556,0-2.816,1.258-2.816,2.815v23.419c0,1.555,1.261,2.817,2.816,2.817
		h7.385l4.075,6.952l4.467-6.952h7.492c1.557,0,2.816-1.263,2.816-2.817V6.362C36.369,4.805,35.109,3.547,33.553,3.547z"/>
</g>
</svg>
