<?xml version="1.0" encoding="utf-8"?>
<!-- Generator: Adobe Illustrator 15.1.0, SVG Export Plug-In . SVG Version: 6.00 Build 0)  -->
<!DOCTYPE svg PUBLIC "-//W3C//DTD SVG 1.1//EN" "http://www.w3.org/Graphics/SVG/1.1/DTD/svg11.dtd">
<svg version="1.1" id="Livello_1" xmlns="http://www.w3.org/2000/svg" xmlns:xlink="http://www.w3.org/1999/xlink" x="0px" y="0px"
	 width="160px" height="112.333px" viewBox="0 0 160 112.333" enable-background="new 0 0 160 112.333" xml:space="preserve">
<g>
	<path fill="#FFFFFF" d="M40.876,46.317c0.642,1.285,1.124,2.642,1.445,4.071c0.321,1.429,0.482,2.797,0.482,4.104
		c0,1.307-0.144,2.625-0.432,3.954s-0.704,2.614-1.246,3.855c-0.543,1.241-1.208,2.404-1.994,3.489
		c-0.787,1.086-1.684,2.027-2.692,2.825c-1.008,0.797-2.11,1.429-3.307,1.894c-1.196,0.466-2.471,0.698-3.822,0.698
		c-1.95,0-3.617-0.427-5.001-1.279c-1.385-0.853-2.521-1.966-3.406-3.34c-0.887-1.374-1.535-2.925-1.944-4.653
		c-0.41-1.728-0.615-3.478-0.615-5.25c0-2.438,0.366-4.714,1.097-6.83c0.731-2.115,1.778-3.954,3.141-5.517
		c1.362-1.562,3.029-2.791,5.001-3.688c1.972-0.897,4.188-1.347,6.646-1.347c2.105,0,4.077,0.327,5.916,0.98
		c1.839,0.654,3.562,1.529,5.168,2.626c1.606,1.097,3.102,2.354,4.486,3.771c1.384,1.418,2.675,2.881,3.872,4.387l-0.631,4.687
		c-0.598-0.798-1.407-1.662-2.426-2.593c-1.02-0.931-2.1-1.839-3.24-2.725c-1.142-0.886-2.266-1.723-3.374-2.51
		c-1.108-0.786-2.06-1.445-2.858-1.977L40.876,46.317z M30.607,64.828c0.753,0,1.484-0.382,2.193-1.146
		c0.708-0.765,1.329-1.729,1.861-2.892s0.958-2.447,1.28-3.854c0.321-1.407,0.481-2.753,0.481-4.038
		c0-1.019-0.078-1.966-0.232-2.842c-0.155-0.875-0.388-1.633-0.698-2.276c-0.311-0.642-0.709-1.151-1.197-1.528
		s-1.075-0.565-1.761-0.565c-0.909,0-1.772,0.389-2.592,1.163c-0.82,0.776-1.54,1.768-2.16,2.975
		c-0.62,1.208-1.108,2.543-1.462,4.005c-0.355,1.462-0.532,2.869-0.532,4.221c0,0.931,0.088,1.806,0.266,2.625
		c0.177,0.82,0.454,1.535,0.831,2.144c0.376,0.609,0.875,1.097,1.496,1.463C29,64.646,29.743,64.828,30.607,64.828z"/>
	<path fill="#FFFFFF" d="M56.895,71.209c-1.197,0-2.31-0.526-3.34-1.578c-1.03-1.053-1.927-2.465-2.692-4.237
		c-0.764-1.772-1.362-3.827-1.794-6.165c-0.432-2.337-0.648-4.791-0.648-7.361c0-1.972,0.144-4.115,0.432-6.431
		c0.288-2.314,0.708-4.702,1.263-7.162c0.554-2.459,1.213-4.929,1.978-7.41c0.764-2.481,1.628-4.863,2.592-7.146
		c0.963-2.281,2.01-4.414,3.14-6.397c1.13-1.982,2.315-3.711,3.556-5.185c1.241-1.473,2.537-2.63,3.888-3.473
		c1.351-0.842,2.725-1.263,4.121-1.263c0.952,0,1.739,0.216,2.359,0.647c0.62,0.433,1.107,1.003,1.462,1.712
		c0.354,0.709,0.604,1.512,0.748,2.409s0.216,1.812,0.216,2.742c0,2.083-0.239,4.204-0.715,6.364
		c-0.477,2.16-1.119,4.331-1.927,6.514c-0.809,2.183-1.745,4.37-2.808,6.563c-1.063,2.193-2.172,4.37-3.324,6.53
		s-2.31,4.287-3.473,6.381s-2.255,4.138-3.273,6.132c-0.111,0.222-0.228,0.51-0.349,0.863c-0.122,0.354-0.238,0.737-0.349,1.146
		c-0.111,0.41-0.222,0.848-0.333,1.313c-0.111,0.465-0.199,0.919-0.266,1.362v0.465c0,0.576,0.061,1.136,0.183,1.679
		c0.122,0.543,0.271,1.03,0.449,1.462c0.177,0.433,0.365,0.776,0.565,1.03c0.199,0.255,0.387,0.382,0.565,0.382
		c0.42,0,0.902-0.088,1.445-0.266c0.543-0.177,1.119-0.415,1.729-0.714c0.609-0.3,1.235-0.643,1.877-1.03s1.263-0.781,1.861-1.18
		c1.396-0.931,2.858-2.005,4.387-3.224l2.725,6.979c-1.972,1.418-3.922,2.681-5.849,3.789c-0.842,0.465-1.711,0.925-2.609,1.379
		s-1.8,0.858-2.708,1.213c-0.909,0.354-1.794,0.637-2.659,0.848C58.457,71.104,57.648,71.209,56.895,71.209z M56.928,44.622
		c0.997-1.771,2.055-3.766,3.174-5.981c1.118-2.216,2.177-4.497,3.173-6.847c0.997-2.348,1.861-4.69,2.592-7.028
		c0.731-2.337,1.196-4.514,1.396-6.53c0-0.643-0.017-1.19-0.05-1.646c-0.033-0.453-0.139-0.681-0.316-0.681
		c-0.643,0-1.335,0.415-2.077,1.246s-1.484,1.955-2.227,3.373c-0.743,1.418-1.451,3.069-2.127,4.952s-1.279,3.888-1.811,6.015
		s-0.953,4.315-1.263,6.563C57.083,40.308,56.928,42.495,56.928,44.622z"/>
	<path fill="#FFFFFF" d="M76.004,71.209c-1.197,0-2.31-0.526-3.34-1.578c-1.03-1.053-1.927-2.465-2.692-4.237
		c-0.764-1.772-1.362-3.827-1.794-6.165c-0.432-2.337-0.648-4.791-0.648-7.361c0-1.972,0.144-4.115,0.432-6.431
		c0.288-2.314,0.708-4.702,1.263-7.162c0.554-2.459,1.213-4.929,1.978-7.41c0.764-2.481,1.628-4.863,2.592-7.146
		c0.963-2.281,2.01-4.414,3.14-6.397c1.13-1.982,2.315-3.711,3.556-5.185c1.241-1.473,2.537-2.63,3.888-3.473
		c1.351-0.842,2.726-1.263,4.121-1.263c0.952,0,1.739,0.216,2.359,0.647c0.62,0.433,1.107,1.003,1.462,1.712
		s0.604,1.512,0.748,2.409s0.217,1.812,0.217,2.742c0,2.083-0.239,4.204-0.715,6.364c-0.477,2.16-1.119,4.331-1.928,6.514
		s-1.745,4.37-2.809,6.563c-1.062,2.193-2.172,4.37-3.323,6.53s-2.31,4.287-3.473,6.381s-2.255,4.138-3.273,6.132
		c-0.111,0.222-0.228,0.51-0.349,0.863c-0.122,0.354-0.238,0.737-0.349,1.146c-0.111,0.41-0.222,0.848-0.333,1.313
		c-0.111,0.465-0.199,0.919-0.266,1.362v0.465c0,0.576,0.061,1.136,0.183,1.679c0.122,0.543,0.271,1.03,0.449,1.462
		c0.177,0.433,0.365,0.776,0.565,1.03c0.199,0.255,0.387,0.382,0.565,0.382c0.42,0,0.902-0.088,1.445-0.266
		c0.543-0.177,1.119-0.415,1.729-0.714c0.609-0.3,1.235-0.643,1.877-1.03s1.263-0.781,1.861-1.18
		c1.396-0.931,2.857-2.005,4.387-3.224l2.725,6.979c-1.972,1.418-3.922,2.681-5.849,3.789c-0.843,0.465-1.712,0.925-2.608,1.379
		c-0.898,0.454-1.801,0.858-2.709,1.213c-0.909,0.354-1.794,0.637-2.659,0.848C77.566,71.104,76.757,71.209,76.004,71.209z
		 M76.037,44.622c0.997-1.771,2.055-3.766,3.174-5.981c1.118-2.216,2.177-4.497,3.173-6.847c0.997-2.348,1.861-4.69,2.593-7.028
		c0.73-2.337,1.195-4.514,1.396-6.53c0-0.643-0.017-1.19-0.05-1.646c-0.033-0.453-0.139-0.681-0.316-0.681
		c-0.643,0-1.334,0.415-2.076,1.246s-1.484,1.955-2.227,3.373c-0.743,1.418-1.452,3.069-2.127,4.952s-1.279,3.888-1.811,6.015
		s-0.953,4.315-1.263,6.563C76.192,40.308,76.037,42.495,76.037,44.622z"/>
	<path fill="#FFFFFF" d="M107.907,64.13c-0.797,0.731-1.789,1.513-2.974,2.344c-1.186,0.83-2.465,1.595-3.839,2.293
		c-1.373,0.697-2.774,1.279-4.203,1.744c-1.43,0.466-2.787,0.698-4.072,0.698c-1.151,0-2.121-0.16-2.907-0.481
		s-1.424-0.77-1.911-1.347c-0.487-0.575-0.836-1.279-1.047-2.11c-0.211-0.83-0.315-1.744-0.315-2.741
		c0-1.396,0.161-3.019,0.481-4.869c0.321-1.85,0.715-3.766,1.18-5.749c0.466-1.982,0.959-3.96,1.479-5.933
		c0.521-1.971,0.98-3.788,1.379-5.45c0.155-0.575,0.466-1.068,0.931-1.479c0.465-0.409,0.991-0.742,1.578-0.997
		c0.588-0.254,1.197-0.442,1.828-0.564s1.201-0.184,1.711-0.184c0.932,0,1.562,0.172,1.895,0.516
		c0.333,0.344,0.499,0.804,0.499,1.379c0,0.488-0.111,1.191-0.333,2.11c-0.221,0.92-0.498,1.961-0.83,3.124
		s-0.688,2.415-1.063,3.756c-0.377,1.34-0.731,2.681-1.063,4.021c-0.332,1.341-0.609,2.648-0.831,3.922
		c-0.222,1.274-0.332,2.421-0.332,3.439c0,0.997,0.11,1.789,0.332,2.376c0.222,0.588,0.676,0.881,1.362,0.881
		c0.798,0,1.684-0.276,2.659-0.831c0.975-0.554,1.96-1.224,2.958-2.011c0.996-0.786,1.971-1.6,2.924-2.442
		c0.953-0.842,1.795-1.562,2.525-2.16V64.13z M93.052,29.967c0-0.51,0.11-1.086,0.332-1.729s0.581-1.246,1.08-1.811
		c0.499-0.565,1.163-1.042,1.994-1.43c0.831-0.387,1.866-0.581,3.107-0.581c0.775,0,1.507,0.089,2.193,0.266
		c0.687,0.178,1.284,0.448,1.794,0.814c0.51,0.365,0.914,0.847,1.213,1.445c0.3,0.599,0.449,1.308,0.449,2.127
		c0,0.754-0.122,1.484-0.365,2.193c-0.244,0.709-0.632,1.341-1.164,1.895c-0.531,0.554-1.201,1.003-2.01,1.346
		c-0.809,0.344-1.778,0.515-2.908,0.515c-1.949,0-3.39-0.459-4.32-1.379C93.518,32.72,93.052,31.495,93.052,29.967z"/>
	<path fill="#FFFFFF" d="M116.782,71.209c-2.084,0-3.906-0.377-5.467-1.13c-1.562-0.753-2.864-1.767-3.906-3.041
		c-1.041-1.273-1.822-2.747-2.342-4.42c-0.521-1.673-0.781-3.428-0.781-5.268c0-1.24,0.121-2.553,0.365-3.938
		s0.615-2.742,1.113-4.071s1.125-2.598,1.878-3.806c0.753-1.207,1.634-2.271,2.642-3.19c1.008-0.919,2.139-1.65,3.391-2.193
		c1.251-0.542,2.642-0.814,4.17-0.814c1.24,0,2.393,0.2,3.457,0.599c1.062,0.398,1.988,0.959,2.774,1.679s1.401,1.59,1.845,2.608
		c0.443,1.02,0.664,2.16,0.664,3.423c0,1.374-0.338,2.748-1.014,4.121c-0.676,1.374-1.611,2.67-2.808,3.889s-2.62,2.304-4.271,3.257
		c-1.65,0.952-3.439,1.694-5.367,2.227c0.332,0.598,0.658,1.097,0.98,1.495c0.32,0.398,0.648,0.709,0.98,0.931
		s0.682,0.377,1.047,0.465c0.365,0.089,0.758,0.133,1.18,0.133c1.329,0,2.73-0.266,4.203-0.797c1.474-0.532,2.908-1.196,4.305-1.994
		c1.396-0.798,2.713-1.667,3.955-2.609c1.24-0.941,2.293-1.833,3.156-2.675l4.287,4.453c-1.949,2.017-4.021,3.8-6.215,5.351
		c-0.952,0.665-1.977,1.318-3.074,1.961c-1.096,0.643-2.248,1.213-3.455,1.711c-1.209,0.499-2.46,0.897-3.756,1.197
		C119.423,71.06,118.11,71.209,116.782,71.209z M112.361,55.59c0.798,0,1.667-0.205,2.608-0.615s1.816-0.936,2.626-1.578
		c0.809-0.643,1.489-1.341,2.044-2.094c0.554-0.753,0.831-1.484,0.831-2.193c0-0.997-0.183-1.816-0.548-2.46
		c-0.366-0.642-0.814-0.964-1.347-0.964c-0.952,0-1.767,0.178-2.442,0.532s-1.241,0.814-1.695,1.379
		c-0.454,0.565-0.82,1.208-1.097,1.928c-0.277,0.72-0.487,1.445-0.632,2.177c-0.144,0.731-0.238,1.44-0.281,2.127
		C112.383,54.515,112.361,55.103,112.361,55.59z"/>
</g>
<g>
	<path fill="#3C3C3B" d="M22.503,97.971c-0.032,0.239-0.108,0.436-0.228,0.587c-0.12,0.152-0.264,0.272-0.432,0.36
		s-0.348,0.149-0.54,0.186s-0.376,0.054-0.552,0.054c-0.208,0-0.41-0.021-0.606-0.065s-0.37-0.112-0.521-0.204
		s-0.272-0.204-0.36-0.336s-0.132-0.281-0.132-0.449c0-0.328,0.016-0.63,0.048-0.906c0.032-0.275,0.08-0.553,0.144-0.833
		c0.224-0.936,0.42-1.805,0.588-2.608c0.167-0.804,0.312-1.565,0.432-2.284c0.12-0.72,0.224-1.417,0.312-2.093
		s0.166-1.355,0.234-2.039s0.13-1.389,0.186-2.116c0.056-0.728,0.116-1.507,0.18-2.339c0-0.072,0-0.164,0-0.275
		c0-0.112-0.012-0.218-0.036-0.318c-0.024-0.1-0.066-0.186-0.126-0.258s-0.15-0.107-0.27-0.107c-0.192,0-0.426,0.065-0.702,0.197
		s-0.565,0.311-0.869,0.534c-0.304,0.224-0.608,0.485-0.912,0.785s-0.583,0.622-0.839,0.966c-0.048,0.119-0.124,0.205-0.228,0.258
		c-0.104,0.052-0.22,0.077-0.348,0.077c-0.04,0-0.082-0.033-0.126-0.102c-0.044-0.067-0.084-0.149-0.12-0.246
		c-0.036-0.096-0.066-0.197-0.09-0.306c-0.024-0.107-0.036-0.205-0.036-0.294c0-0.048,0.016-0.088,0.048-0.119
		c0.288-0.943,0.614-1.733,0.978-2.369c0.363-0.636,0.747-1.143,1.151-1.522s0.815-0.649,1.235-0.81s0.821-0.24,1.205-0.24
		c0.496,0,0.908,0.094,1.235,0.282c0.328,0.188,0.588,0.451,0.78,0.791s0.326,0.75,0.401,1.229c0.076,0.479,0.114,1.012,0.114,1.595
		c0,0.448-0.036,0.972-0.108,1.571c-0.072,0.6-0.162,1.229-0.27,1.889s-0.226,1.321-0.354,1.984
		c-0.128,0.664-0.251,1.283-0.372,1.859c0.256-1.063,0.558-2.085,0.905-3.064c0.348-0.979,0.728-1.895,1.14-2.746
		c0.412-0.852,0.849-1.623,1.313-2.314c0.463-0.691,0.941-1.285,1.433-1.781c0.492-0.495,0.989-0.879,1.493-1.151
		c0.503-0.271,1.003-0.407,1.499-0.407c0.368,0,0.708,0.08,1.019,0.24c0.312,0.159,0.58,0.407,0.804,0.743
		c0.224,0.336,0.397,0.76,0.521,1.271s0.186,1.119,0.186,1.822c0,0.064-0.006,0.164-0.018,0.3c-0.012,0.136-0.028,0.292-0.048,0.468
		s-0.044,0.366-0.072,0.569c-0.028,0.204-0.054,0.406-0.078,0.606c-0.064,0.479-0.132,0.999-0.204,1.559l0.252-0.012
		c0.312-1.184,0.696-2.247,1.151-3.19s0.967-1.745,1.535-2.404c0.567-0.659,1.179-1.165,1.834-1.517
		c0.656-0.353,1.335-0.528,2.039-0.528c0.487,0,0.921,0.145,1.301,0.432c0.379,0.288,0.697,0.678,0.953,1.17
		c0.256,0.491,0.452,1.067,0.588,1.727c0.136,0.659,0.204,1.357,0.204,2.093c0,0.688-0.046,1.394-0.138,2.116
		c-0.092,0.724-0.206,1.439-0.342,2.147c-0.136,0.707-0.282,1.4-0.438,2.08c-0.156,0.68-0.302,1.323-0.438,1.931
		c-0.136,0.607-0.25,1.17-0.342,1.686c-0.092,0.516-0.138,0.961-0.138,1.337c0,0.472,0.086,0.813,0.258,1.025
		s0.422,0.317,0.75,0.317c0.184,0,0.378-0.05,0.582-0.149c0.204-0.101,0.408-0.232,0.611-0.396c0.204-0.163,0.406-0.352,0.605-0.563
		c0.2-0.212,0.392-0.43,0.576-0.653c0.424-0.512,0.844-1.1,1.259-1.763c0,0.008,0.036,0.092,0.108,0.252
		c0.056,0.136,0.148,0.367,0.276,0.695s0.308,0.8,0.54,1.415c-0.4,0.704-0.812,1.3-1.235,1.787
		c-0.424,0.487-0.856,0.886-1.295,1.193c-0.44,0.308-0.885,0.529-1.337,0.665c-0.452,0.137-0.902,0.204-1.349,0.204
		c-0.432,0-0.854-0.076-1.266-0.228c-0.412-0.152-0.777-0.378-1.097-0.678s-0.576-0.672-0.768-1.115
		c-0.192-0.444-0.288-0.953-0.288-1.529c0-0.063,0.002-0.132,0.006-0.204c0.004-0.071,0.01-0.144,0.018-0.216
		c0.032-0.535,0.1-1.104,0.204-1.709c0.104-0.604,0.222-1.225,0.354-1.864s0.27-1.291,0.414-1.955
		c0.144-0.663,0.276-1.325,0.396-1.984c0.12-0.66,0.22-1.312,0.3-1.955c0.08-0.644,0.12-1.261,0.12-1.853
		c0-0.36-0.012-0.686-0.036-0.978s-0.072-0.54-0.144-0.743c-0.072-0.204-0.176-0.362-0.312-0.475
		c-0.136-0.111-0.316-0.167-0.54-0.167c-0.424,0-0.823,0.147-1.199,0.443s-0.731,0.703-1.067,1.223
		c-0.335,0.521-0.649,1.136-0.941,1.848c-0.292,0.711-0.567,1.48-0.827,2.309c-0.26,0.827-0.502,1.694-0.726,2.602
		c-0.224,0.908-0.432,1.821-0.624,2.74c-0.192,0.92-0.372,1.827-0.54,2.723c-0.167,0.896-0.324,1.743-0.467,2.542
		c-0.064,0.225-0.162,0.414-0.294,0.57c-0.132,0.155-0.284,0.281-0.456,0.378c-0.172,0.096-0.354,0.166-0.546,0.209
		c-0.192,0.045-0.384,0.066-0.576,0.066c-0.168,0-0.334-0.032-0.498-0.096c-0.164-0.064-0.308-0.166-0.432-0.306
		c-0.124-0.141-0.224-0.318-0.3-0.534c-0.076-0.216-0.114-0.479-0.114-0.791c0-0.208,0.048-0.565,0.144-1.073
		c0.096-0.508,0.218-1.115,0.366-1.823s0.308-1.483,0.48-2.326c0.172-0.844,0.332-1.703,0.479-2.579
		c0.148-0.875,0.27-1.74,0.366-2.596c0.096-0.855,0.144-1.644,0.144-2.362c0-0.496-0.012-0.939-0.036-1.332
		c-0.024-0.392-0.08-0.723-0.168-0.995c-0.088-0.271-0.214-0.479-0.377-0.623c-0.164-0.145-0.382-0.216-0.654-0.216
		c-0.224,0-0.479,0.151-0.768,0.455c-0.288,0.304-0.598,0.724-0.929,1.26c-0.332,0.535-0.674,1.165-1.025,1.889
		c-0.352,0.724-0.702,1.505-1.049,2.345c-0.348,0.839-0.684,1.717-1.007,2.632c-0.324,0.916-0.622,1.831-0.894,2.746
		c-0.272,0.916-0.512,1.811-0.72,2.687C22.763,96.381,22.607,97.203,22.503,97.971z"/>
	<path fill="#3C3C3B" d="M48.898,99.146c-0.751,0-1.409-0.136-1.973-0.408c-0.563-0.271-1.033-0.637-1.409-1.097
		s-0.658-0.991-0.845-1.595c-0.188-0.604-0.282-1.237-0.282-1.901c0-0.447,0.044-0.921,0.132-1.421
		c0.088-0.5,0.222-0.989,0.401-1.469c0.18-0.48,0.406-0.938,0.678-1.373c0.271-0.437,0.589-0.82,0.954-1.151
		c0.363-0.332,0.771-0.596,1.223-0.792c0.452-0.195,0.953-0.294,1.505-0.294c0.448,0,0.863,0.072,1.247,0.216
		c0.384,0.145,0.718,0.347,1.001,0.605c0.284,0.261,0.506,0.574,0.666,0.941c0.16,0.368,0.24,0.78,0.24,1.235
		c0,0.496-0.122,0.992-0.366,1.487c-0.244,0.496-0.582,0.964-1.013,1.403s-0.945,0.831-1.541,1.175s-1.241,0.612-1.937,0.804
		c0.12,0.216,0.238,0.396,0.354,0.54c0.116,0.144,0.234,0.256,0.354,0.336c0.12,0.079,0.246,0.136,0.377,0.167
		c0.132,0.032,0.274,0.049,0.426,0.049c0.48,0,0.985-0.097,1.517-0.288c0.532-0.192,1.049-0.432,1.553-0.72
		c0.503-0.288,0.979-0.602,1.427-0.941s0.828-0.661,1.14-0.965l1.547,1.606c-0.704,0.728-1.451,1.371-2.243,1.931
		c-0.344,0.24-0.713,0.476-1.109,0.708c-0.396,0.231-0.812,0.438-1.247,0.617c-0.436,0.18-0.888,0.324-1.355,0.432
		C49.852,99.092,49.378,99.146,48.898,99.146z M47.304,93.509c0.288,0,0.601-0.073,0.941-0.222c0.339-0.147,0.655-0.338,0.947-0.569
		c0.292-0.232,0.538-0.483,0.737-0.756c0.2-0.271,0.3-0.535,0.3-0.791c0-0.36-0.066-0.656-0.198-0.888s-0.294-0.348-0.486-0.348
		c-0.344,0-0.637,0.063-0.881,0.191c-0.244,0.128-0.448,0.294-0.611,0.498c-0.164,0.204-0.296,0.436-0.396,0.695
		s-0.176,0.521-0.228,0.786c-0.052,0.264-0.086,0.52-0.102,0.767C47.312,93.121,47.304,93.333,47.304,93.509z"/>
	<path fill="#3C3C3B" d="M58.336,99.146c-0.751,0-1.409-0.136-1.973-0.408c-0.563-0.271-1.033-0.637-1.409-1.097
		s-0.658-0.991-0.845-1.595c-0.188-0.604-0.282-1.237-0.282-1.901c0-0.447,0.044-0.921,0.132-1.421
		c0.088-0.5,0.222-0.989,0.401-1.469c0.18-0.48,0.406-0.938,0.678-1.373c0.271-0.437,0.589-0.82,0.954-1.151
		c0.363-0.332,0.771-0.596,1.223-0.792c0.452-0.195,0.953-0.294,1.505-0.294c0.448,0,0.863,0.072,1.247,0.216
		c0.384,0.145,0.718,0.347,1.001,0.605c0.284,0.261,0.506,0.574,0.666,0.941c0.16,0.368,0.24,0.78,0.24,1.235
		c0,0.496-0.122,0.992-0.366,1.487c-0.244,0.496-0.582,0.964-1.013,1.403s-0.945,0.831-1.541,1.175s-1.241,0.612-1.937,0.804
		c0.12,0.216,0.238,0.396,0.354,0.54c0.116,0.144,0.234,0.256,0.354,0.336c0.12,0.079,0.246,0.136,0.377,0.167
		c0.132,0.032,0.274,0.049,0.426,0.049c0.48,0,0.985-0.097,1.517-0.288c0.532-0.192,1.049-0.432,1.553-0.72
		c0.503-0.288,0.979-0.602,1.427-0.941s0.828-0.661,1.14-0.965l1.547,1.606c-0.704,0.728-1.451,1.371-2.243,1.931
		c-0.344,0.24-0.713,0.476-1.109,0.708c-0.396,0.231-0.812,0.438-1.247,0.617c-0.436,0.18-0.888,0.324-1.355,0.432
		C59.29,99.092,58.816,99.146,58.336,99.146z M56.742,93.509c0.288,0,0.601-0.073,0.941-0.222c0.339-0.147,0.655-0.338,0.947-0.569
		c0.292-0.232,0.538-0.483,0.737-0.756c0.2-0.271,0.3-0.535,0.3-0.791c0-0.36-0.066-0.656-0.198-0.888s-0.294-0.348-0.486-0.348
		c-0.344,0-0.637,0.063-0.881,0.191c-0.244,0.128-0.448,0.294-0.611,0.498c-0.164,0.204-0.296,0.436-0.396,0.695
		s-0.176,0.521-0.228,0.786c-0.052,0.264-0.086,0.52-0.102,0.767C56.75,93.121,56.742,93.333,56.742,93.509z"/>
	<path fill="#3C3C3B" d="M73.699,96.459c-0.768,0.448-1.451,0.84-2.051,1.176s-1.133,0.615-1.601,0.839
		c-0.467,0.225-0.883,0.393-1.247,0.504c-0.364,0.112-0.694,0.168-0.989,0.168c-0.608,0-1.144-0.184-1.607-0.552
		c-0.464-0.367-0.852-0.897-1.164-1.589c-0.312-0.691-0.545-1.529-0.701-2.513c-0.156-0.983-0.234-2.091-0.234-3.321
		c0-0.48,0.02-0.991,0.06-1.535s0.096-1.083,0.168-1.619c-0.24-0.032-0.426-0.062-0.558-0.09s-0.272-0.056-0.419-0.084
		c-0.148-0.028-0.336-0.058-0.564-0.09c-0.228-0.032-0.558-0.072-0.989-0.12c-0.192-0.024-0.34-0.07-0.444-0.138
		c-0.104-0.068-0.18-0.148-0.228-0.24c-0.048-0.092-0.076-0.188-0.084-0.288c-0.008-0.1-0.012-0.186-0.012-0.258
		c0-0.159,0.078-0.281,0.234-0.365s0.356-0.146,0.6-0.186c0.244-0.04,0.512-0.062,0.804-0.066c0.292-0.004,0.571-0.002,0.839,0.006
		c0.268,0.008,0.508,0.015,0.72,0.019c0.211,0.004,0.357-0.002,0.438-0.019c0.216-1.079,0.49-2.124,0.821-3.136
		c0.332-1.012,0.704-1.911,1.116-2.698c0.412-0.787,0.861-1.419,1.349-1.895c0.487-0.476,0.999-0.714,1.535-0.714
		c0.344,0,0.658,0.096,0.941,0.288c0.284,0.191,0.526,0.447,0.726,0.768c0.2,0.319,0.354,0.693,0.462,1.121s0.162,0.873,0.162,1.337
		c0,0.392-0.056,0.806-0.168,1.241c-0.112,0.436-0.264,0.88-0.456,1.331c-0.192,0.452-0.418,0.909-0.677,1.373
		c-0.26,0.464-0.534,0.924-0.822,1.379c0.072,0.009,0.192,0.015,0.36,0.019s0.362,0.01,0.582,0.018s0.458,0.019,0.713,0.03
		s0.504,0.022,0.744,0.03s0.464,0.016,0.672,0.023c0.208,0.008,0.379,0.017,0.516,0.024c0.16,0.008,0.276,0.088,0.348,0.239
		c0.072,0.152,0.108,0.344,0.108,0.576c0,0.279-0.08,0.508-0.24,0.684c-0.16,0.176-0.336,0.264-0.528,0.264h-4.605
		c-0.232,0.319-0.466,0.634-0.702,0.941s-0.454,0.586-0.653,0.833c-0.032,0.496-0.06,0.983-0.084,1.464
		c-0.008,0.208-0.016,0.422-0.024,0.642c-0.008,0.22-0.016,0.438-0.024,0.653c-0.008,0.216-0.014,0.424-0.018,0.623
		c-0.004,0.2-0.006,0.384-0.006,0.552c0,0.432,0.04,0.796,0.12,1.092c0.08,0.296,0.196,0.537,0.348,0.726
		c0.152,0.188,0.338,0.323,0.558,0.407s0.466,0.126,0.738,0.126c0.168,0,0.377-0.04,0.629-0.12c0.252-0.079,0.528-0.189,0.828-0.329
		s0.615-0.306,0.947-0.498c0.332-0.191,0.66-0.401,0.983-0.63c0.324-0.228,0.634-0.468,0.929-0.719
		c0.296-0.252,0.564-0.51,0.804-0.774V96.459z M69.861,81.276c0-0.088-0.006-0.186-0.018-0.293c-0.012-0.108-0.038-0.21-0.078-0.307
		c-0.04-0.096-0.102-0.176-0.186-0.239c-0.084-0.064-0.202-0.096-0.354-0.096c-0.208,0-0.418,0.184-0.629,0.552
		c-0.212,0.367-0.416,0.837-0.612,1.408c-0.196,0.572-0.38,1.202-0.552,1.89s-0.33,1.354-0.474,2.002
		c0.12,0.017,0.24,0.03,0.36,0.042c0.12,0.013,0.244,0.026,0.372,0.042c0.24-0.407,0.49-0.849,0.75-1.325
		c0.26-0.476,0.494-0.943,0.702-1.402c0.208-0.46,0.38-0.89,0.516-1.29C69.793,81.86,69.861,81.533,69.861,81.276z"/>
	<path fill="#3C3C3B" d="M84.755,97.011c0.808,0,1.543-0.08,2.207-0.239c0.663-0.16,1.265-0.376,1.805-0.648
		c0.54-0.271,1.027-0.589,1.463-0.953c0.436-0.363,0.829-0.753,1.181-1.169l0.133,2.746c-0.256,0.312-0.566,0.613-0.93,0.905
		S89.852,98.2,89.42,98.42s-0.885,0.396-1.361,0.527c-0.476,0.132-0.945,0.198-1.408,0.198c-0.057,0-0.127-0.008-0.211-0.024
		c-0.084-0.016-0.229-0.043-0.438-0.084c-0.207-0.039-0.506-0.094-0.893-0.161c-0.389-0.068-0.914-0.15-1.578-0.246v0.216
		c0,1.455-0.121,2.776-0.365,3.964c-0.244,1.187-0.569,2.2-0.978,3.04c-0.407,0.839-0.875,1.486-1.403,1.942
		s-1.075,0.684-1.643,0.684c-0.456,0-0.835-0.112-1.139-0.336s-0.546-0.525-0.726-0.905s-0.308-0.823-0.384-1.331
		c-0.076-0.508-0.114-1.046-0.114-1.613c0-0.328,0.052-0.697,0.156-1.109c0.104-0.411,0.244-0.844,0.42-1.295
		c0.176-0.452,0.374-0.911,0.593-1.379c0.22-0.468,0.446-0.922,0.678-1.361c0.543-1.023,1.163-2.079,1.859-3.166
		c0.088-0.624,0.178-1.263,0.27-1.919c0.092-0.655,0.208-1.291,0.348-1.906c0.14-0.616,0.315-1.199,0.527-1.751
		s0.484-1.031,0.816-1.439c0.331-0.407,0.729-0.731,1.192-0.972c0.464-0.239,1.023-0.359,1.679-0.359
		c0.488,0,0.943,0.066,1.367,0.198s0.796,0.346,1.115,0.642c0.32,0.296,0.572,0.677,0.756,1.145s0.275,1.042,0.275,1.722
		c0,0.543-0.08,1.069-0.239,1.576c-0.16,0.508-0.41,0.994-0.749,1.457c-0.34,0.464-0.772,0.898-1.296,1.302
		s-1.146,0.766-1.864,1.085L84.755,97.011z M79.071,104.435c0,0.063,0.014,0.167,0.042,0.312c0.028,0.144,0.074,0.288,0.138,0.432
		s0.148,0.271,0.252,0.384c0.104,0.111,0.232,0.168,0.384,0.168c0.136,0,0.248-0.074,0.336-0.222
		c0.088-0.148,0.16-0.347,0.216-0.594c0.056-0.248,0.096-0.528,0.12-0.84s0.044-0.632,0.06-0.959c0.016-0.328,0.026-0.647,0.03-0.96
		c0.004-0.312,0.014-0.592,0.03-0.839c0.024-0.432,0.042-0.798,0.054-1.098c0.012-0.3,0.022-0.55,0.03-0.749
		c0.008-0.225,0.016-0.412,0.024-0.564c-0.152,0.265-0.3,0.57-0.444,0.918s-0.28,0.709-0.408,1.085s-0.244,0.752-0.348,1.128
		c-0.104,0.375-0.194,0.725-0.27,1.049s-0.136,0.604-0.18,0.84C79.093,104.16,79.071,104.33,79.071,104.435z M83.245,95.8
		c0.479-0.24,0.894-0.508,1.241-0.804s0.647-0.611,0.899-0.947s0.457-0.684,0.617-1.043c0.16-0.36,0.288-0.728,0.385-1.104
		c0.039-0.176,0.065-0.382,0.077-0.618c0.013-0.235-0.012-0.457-0.071-0.665c-0.061-0.208-0.164-0.386-0.312-0.534
		c-0.148-0.147-0.354-0.222-0.617-0.222c-0.296,0-0.557,0.082-0.779,0.246c-0.225,0.164-0.418,0.386-0.582,0.665
		c-0.164,0.28-0.3,0.612-0.408,0.996c-0.107,0.384-0.195,0.795-0.264,1.235c-0.068,0.439-0.115,0.897-0.144,1.373
		S83.245,95.328,83.245,95.8z"/>
	<path fill="#3C3C3B" d="M94.158,99.146c-0.751,0-1.409-0.136-1.973-0.408c-0.563-0.271-1.033-0.637-1.409-1.097
		s-0.658-0.991-0.846-1.595s-0.281-1.237-0.281-1.901c0-0.447,0.043-0.921,0.132-1.421c0.088-0.5,0.222-0.989,0.401-1.469
		c0.18-0.48,0.406-0.938,0.678-1.373c0.271-0.437,0.59-0.82,0.953-1.151c0.363-0.332,0.771-0.596,1.224-0.792
		c0.452-0.195,0.953-0.294,1.505-0.294c0.447,0,0.863,0.072,1.247,0.216c0.384,0.145,0.718,0.347,1.001,0.605
		c0.284,0.261,0.506,0.574,0.666,0.941c0.16,0.368,0.24,0.78,0.24,1.235c0,0.496-0.122,0.992-0.366,1.487
		c-0.243,0.496-0.581,0.964-1.013,1.403s-0.945,0.831-1.541,1.175s-1.242,0.612-1.938,0.804c0.12,0.216,0.238,0.396,0.354,0.54
		c0.116,0.144,0.234,0.256,0.354,0.336c0.12,0.079,0.245,0.136,0.378,0.167c0.131,0.032,0.273,0.049,0.426,0.049
		c0.479,0,0.984-0.097,1.517-0.288c0.532-0.192,1.05-0.432,1.554-0.72c0.503-0.288,0.979-0.602,1.426-0.941
		c0.448-0.34,0.828-0.661,1.141-0.965l1.547,1.606c-0.704,0.728-1.451,1.371-2.243,1.931c-0.344,0.24-0.714,0.476-1.109,0.708
		c-0.396,0.231-0.812,0.438-1.247,0.617s-0.888,0.324-1.355,0.432C95.112,99.092,94.637,99.146,94.158,99.146z M92.563,93.509
		c0.287,0,0.602-0.073,0.941-0.222c0.34-0.147,0.655-0.338,0.947-0.569c0.291-0.232,0.537-0.483,0.737-0.756
		c0.2-0.271,0.3-0.535,0.3-0.791c0-0.36-0.066-0.656-0.197-0.888c-0.133-0.231-0.295-0.348-0.486-0.348
		c-0.344,0-0.637,0.063-0.881,0.191s-0.448,0.294-0.611,0.498c-0.164,0.204-0.297,0.436-0.396,0.695s-0.176,0.521-0.228,0.786
		c-0.052,0.264-0.087,0.52-0.103,0.767C92.571,93.121,92.563,93.333,92.563,93.509z"/>
	<path fill="#3C3C3B" d="M106.906,90.163c0.231,0.464,0.405,0.953,0.521,1.469s0.174,1.01,0.174,1.481s-0.052,0.947-0.155,1.427
		c-0.104,0.48-0.254,0.944-0.45,1.392s-0.437,0.867-0.72,1.259c-0.283,0.393-0.607,0.731-0.971,1.02
		c-0.364,0.288-0.762,0.516-1.193,0.684s-0.893,0.252-1.379,0.252c-0.704,0-1.306-0.154-1.806-0.462
		c-0.499-0.308-0.909-0.709-1.229-1.205c-0.319-0.495-0.553-1.056-0.701-1.679c-0.148-0.624-0.222-1.255-0.222-1.895
		c0-0.88,0.132-1.701,0.396-2.465s0.642-1.427,1.133-1.991c0.492-0.563,1.094-1.007,1.806-1.331
		c0.712-0.323,1.511-0.485,2.398-0.485c0.759,0,1.471,0.118,2.135,0.354c0.663,0.236,1.284,0.552,1.864,0.947
		c0.58,0.396,1.119,0.85,1.619,1.361s0.965,1.04,1.397,1.583l-0.228,1.691c-0.217-0.288-0.508-0.6-0.876-0.936
		s-0.757-0.664-1.169-0.983s-0.818-0.622-1.217-0.905c-0.4-0.284-0.744-0.521-1.032-0.714L106.906,90.163z M103.2,96.843
		c0.271,0,0.535-0.138,0.792-0.413c0.255-0.276,0.479-0.624,0.671-1.044c0.192-0.42,0.346-0.883,0.463-1.391
		c0.115-0.508,0.174-0.993,0.174-1.457c0-0.368-0.029-0.71-0.084-1.025c-0.057-0.316-0.141-0.59-0.252-0.822
		c-0.112-0.231-0.256-0.415-0.432-0.551c-0.176-0.137-0.389-0.204-0.637-0.204c-0.327,0-0.639,0.14-0.936,0.42
		c-0.295,0.279-0.555,0.638-0.779,1.073c-0.224,0.436-0.399,0.917-0.527,1.444c-0.128,0.528-0.191,1.036-0.191,1.523
		c0,0.336,0.031,0.651,0.096,0.947s0.164,0.554,0.3,0.773c0.136,0.221,0.315,0.396,0.54,0.528
		C102.62,96.777,102.888,96.843,103.2,96.843z"/>
	<path fill="#3C3C3B" d="M114.905,97.011c0.807,0,1.543-0.08,2.207-0.239c0.662-0.16,1.265-0.376,1.805-0.648
		c0.539-0.271,1.027-0.589,1.463-0.953c0.436-0.363,0.829-0.753,1.181-1.169l0.132,2.746c-0.256,0.312-0.565,0.613-0.93,0.905
		c-0.363,0.292-0.761,0.548-1.193,0.768c-0.432,0.22-0.885,0.396-1.36,0.527s-0.946,0.198-1.409,0.198
		c-0.057,0-0.126-0.008-0.21-0.024c-0.084-0.016-0.229-0.043-0.438-0.084c-0.208-0.039-0.506-0.094-0.894-0.161
		c-0.388-0.068-0.914-0.15-1.577-0.246v0.216c0,1.455-0.122,2.776-0.366,3.964c-0.244,1.187-0.568,2.2-0.977,3.04
		c-0.408,0.839-0.875,1.486-1.403,1.942s-1.075,0.684-1.644,0.684c-0.455,0-0.835-0.112-1.139-0.336s-0.546-0.525-0.726-0.905
		s-0.308-0.823-0.384-1.331s-0.113-1.046-0.113-1.613c0-0.328,0.051-0.697,0.155-1.109c0.104-0.411,0.244-0.844,0.42-1.295
		c0.176-0.452,0.374-0.911,0.593-1.379c0.221-0.468,0.446-0.922,0.678-1.361c0.544-1.023,1.164-2.079,1.859-3.166
		c0.088-0.624,0.178-1.263,0.27-1.919c0.092-0.655,0.208-1.291,0.348-1.906c0.141-0.616,0.316-1.199,0.527-1.751
		c0.213-0.552,0.484-1.031,0.816-1.439c0.332-0.407,0.729-0.731,1.193-0.972c0.463-0.239,1.023-0.359,1.679-0.359
		c0.487,0,0.943,0.066,1.367,0.198c0.423,0.132,0.796,0.346,1.115,0.642s0.571,0.677,0.755,1.145
		c0.185,0.468,0.276,1.042,0.276,1.722c0,0.543-0.08,1.069-0.239,1.576c-0.16,0.508-0.41,0.994-0.75,1.457
		c-0.34,0.464-0.771,0.898-1.295,1.302s-1.146,0.766-1.865,1.085L114.905,97.011z M109.22,104.435c0,0.063,0.014,0.167,0.042,0.312
		c0.027,0.144,0.074,0.288,0.138,0.432s0.147,0.271,0.252,0.384c0.104,0.111,0.231,0.168,0.384,0.168
		c0.136,0,0.248-0.074,0.336-0.222c0.088-0.148,0.16-0.347,0.216-0.594c0.056-0.248,0.096-0.528,0.12-0.84
		c0.023-0.312,0.043-0.632,0.06-0.959c0.017-0.328,0.026-0.647,0.03-0.96c0.004-0.312,0.014-0.592,0.029-0.839
		c0.024-0.432,0.043-0.798,0.055-1.098s0.021-0.55,0.029-0.749c0.008-0.225,0.016-0.412,0.024-0.564
		c-0.151,0.265-0.3,0.57-0.444,0.918c-0.144,0.348-0.279,0.709-0.407,1.085s-0.244,0.752-0.348,1.128
		c-0.104,0.375-0.194,0.725-0.271,1.049s-0.135,0.604-0.18,0.84C109.243,104.16,109.22,104.33,109.22,104.435z M113.393,95.8
		c0.48-0.24,0.895-0.508,1.242-0.804s0.646-0.611,0.898-0.947s0.458-0.684,0.618-1.043c0.159-0.36,0.288-0.728,0.384-1.104
		c0.039-0.176,0.066-0.382,0.078-0.618c0.012-0.235-0.012-0.457-0.072-0.665s-0.164-0.386-0.312-0.534
		c-0.147-0.147-0.354-0.222-0.617-0.222c-0.295,0-0.556,0.082-0.779,0.246c-0.225,0.164-0.418,0.386-0.582,0.665
		c-0.164,0.28-0.299,0.612-0.407,0.996s-0.196,0.795-0.265,1.235c-0.067,0.439-0.115,0.897-0.143,1.373
		C113.407,94.854,113.393,95.328,113.393,95.8z"/>
	<path fill="#3C3C3B" d="M122.928,99.146c-0.432,0-0.834-0.189-1.206-0.569s-0.695-0.89-0.972-1.529
		c-0.275-0.64-0.491-1.381-0.646-2.225c-0.156-0.844-0.234-1.729-0.234-2.656c0-0.712,0.052-1.485,0.156-2.32
		c0.104-0.836,0.256-1.697,0.455-2.585c0.199-0.887,0.438-1.778,0.714-2.674s0.587-1.755,0.935-2.578
		c0.349-0.824,0.727-1.594,1.134-2.309c0.407-0.716,0.835-1.34,1.283-1.871s0.915-0.949,1.403-1.253
		c0.487-0.304,0.983-0.456,1.486-0.456c0.344,0,0.629,0.078,0.852,0.233c0.225,0.156,0.4,0.362,0.528,0.618s0.218,0.546,0.27,0.869
		c0.052,0.324,0.078,0.653,0.078,0.989c0,0.752-0.086,1.518-0.258,2.297s-0.403,1.563-0.695,2.351s-0.63,1.577-1.014,2.368
		c-0.384,0.792-0.784,1.577-1.199,2.356c-0.415,0.78-0.833,1.547-1.253,2.303s-0.814,1.493-1.182,2.213
		c-0.04,0.08-0.082,0.184-0.125,0.312c-0.045,0.128-0.087,0.266-0.127,0.414c-0.039,0.147-0.08,0.306-0.119,0.474
		c-0.041,0.168-0.072,0.332-0.096,0.491v0.168c0,0.208,0.021,0.41,0.065,0.605c0.044,0.196,0.098,0.372,0.161,0.528
		c0.064,0.155,0.133,0.279,0.205,0.371c0.071,0.093,0.139,0.139,0.203,0.139c0.152,0,0.326-0.032,0.521-0.097
		c0.196-0.063,0.404-0.149,0.624-0.258c0.22-0.107,0.445-0.231,0.677-0.371c0.232-0.14,0.457-0.282,0.672-0.426
		c0.504-0.336,1.031-0.724,1.584-1.163l0.982,2.518c-0.711,0.512-1.414,0.968-2.11,1.367c-0.304,0.168-0.618,0.334-0.941,0.498
		s-0.649,0.31-0.978,0.438s-0.647,0.23-0.959,0.306C123.491,99.107,123.2,99.146,122.928,99.146z M122.94,89.552
		c0.359-0.64,0.741-1.359,1.145-2.159c0.404-0.799,0.786-1.622,1.146-2.47c0.36-0.848,0.672-1.693,0.936-2.537
		c0.264-0.843,0.432-1.629,0.504-2.356c0-0.231-0.007-0.43-0.019-0.594c-0.012-0.163-0.05-0.245-0.113-0.245
		c-0.232,0-0.482,0.149-0.75,0.449s-0.535,0.706-0.803,1.218c-0.269,0.512-0.524,1.107-0.768,1.786
		c-0.244,0.68-0.463,1.403-0.654,2.171s-0.344,1.558-0.455,2.368C122.996,87.995,122.94,88.784,122.94,89.552z"/>
	<path fill="#3C3C3B" d="M131.202,99.146c-0.751,0-1.408-0.136-1.973-0.408c-0.562-0.271-1.033-0.637-1.408-1.097
		c-0.377-0.46-0.658-0.991-0.846-1.595s-0.282-1.237-0.282-1.901c0-0.447,0.044-0.921,0.132-1.421s0.223-0.989,0.402-1.469
		c0.18-0.48,0.405-0.938,0.678-1.373c0.271-0.437,0.589-0.82,0.953-1.151c0.363-0.332,0.771-0.596,1.223-0.792
		c0.452-0.195,0.953-0.294,1.506-0.294c0.447,0,0.863,0.072,1.246,0.216c0.385,0.145,0.719,0.347,1.002,0.605
		c0.283,0.261,0.506,0.574,0.666,0.941c0.16,0.368,0.239,0.78,0.239,1.235c0,0.496-0.122,0.992-0.366,1.487
		c-0.243,0.496-0.581,0.964-1.013,1.403s-0.945,0.831-1.541,1.175s-1.241,0.612-1.937,0.804c0.119,0.216,0.238,0.396,0.354,0.54
		c0.115,0.144,0.234,0.256,0.354,0.336c0.12,0.079,0.246,0.136,0.378,0.167c0.132,0.032,0.274,0.049,0.426,0.049
		c0.479,0,0.985-0.097,1.517-0.288c0.532-0.192,1.05-0.432,1.554-0.72c0.503-0.288,0.979-0.602,1.427-0.941s0.828-0.661,1.14-0.965
		l1.547,1.606c-0.704,0.728-1.451,1.371-2.243,1.931c-0.344,0.24-0.713,0.476-1.109,0.708c-0.395,0.231-0.811,0.438-1.246,0.617
		c-0.437,0.18-0.889,0.324-1.355,0.432C132.156,99.092,131.682,99.146,131.202,99.146z M129.608,93.509
		c0.287,0,0.601-0.073,0.941-0.222c0.339-0.147,0.654-0.338,0.947-0.569c0.291-0.232,0.537-0.483,0.736-0.756
		c0.2-0.271,0.301-0.535,0.301-0.791c0-0.36-0.066-0.656-0.198-0.888s-0.294-0.348-0.485-0.348c-0.344,0-0.638,0.063-0.882,0.191
		c-0.243,0.128-0.448,0.294-0.611,0.498c-0.164,0.204-0.296,0.436-0.396,0.695c-0.101,0.26-0.176,0.521-0.229,0.786
		c-0.052,0.264-0.086,0.52-0.102,0.767C129.616,93.121,129.608,93.333,129.608,93.509z"/>
</g>
</svg>
