<?xml version="1.0" encoding="utf-8"?>
<!-- Generator: Adobe Illustrator 15.1.0, SVG Export Plug-In . SVG Version: 6.00 Build 0)  -->
<!DOCTYPE svg PUBLIC "-//W3C//DTD SVG 1.1//EN" "http://www.w3.org/Graphics/SVG/1.1/DTD/svg11.dtd">
<svg version="1.1" id="Livello_1" xmlns="http://www.w3.org/2000/svg" xmlns:xlink="http://www.w3.org/1999/xlink" x="0px" y="0px"
	 width="65px" height="42px" viewBox="0 0 65 42" enable-background="new 0 0 65 42" xml:space="preserve">
<g>
	<g>
		<g>
			<path fill="#751F01" d="M12.804,10.788c-0.478,0-0.867,0.395-0.867,0.88v20.701c0,0.484,0.389,0.879,0.867,0.879h31.024
				c0.478,0,0.867-0.395,0.867-0.879V11.668c0-0.485-0.39-0.88-0.867-0.88H12.804z"/>
		</g>
		<g>
			<path fill="#E8601C" d="M43.994,36.644H12.97c-2.252,0-4.085-1.839-4.085-4.098V11.844c0-2.259,1.833-4.097,4.085-4.097h31.024
				c2.251,0,4.084,1.838,4.084,4.097v20.702C48.078,34.805,46.245,36.644,43.994,36.644z M12.97,10.965
				c-0.478,0-0.867,0.395-0.867,0.879v20.702c0,0.484,0.389,0.879,0.867,0.879h31.024c0.477,0,0.866-0.395,0.866-0.879V11.844
				c0-0.484-0.39-0.879-0.866-0.879H12.97z"/>
		</g>
	</g>
	<g>
		<path fill="#FCF8F0" d="M27.162,34.23h16.873c1.354,0,2.454-1.101,2.454-2.456V11.363c0-1.358-1.1-2.455-2.454-2.455H13.279
			c-1.356,0-2.455,1.097-2.455,2.455v20.412c0,1.355,1.099,2.456,2.455,2.456h6.436H27.162z"/>
	</g>
	<g>
		<g>
			<path fill="#751F01" d="M27.152,35.482h16.873c1.356,0,2.454-1.104,2.454-2.463V12.553c0-1.361-1.098-2.46-2.454-2.46H13.269
				c-1.356,0-2.455,1.099-2.455,2.46V33.02c0,1.359,1.099,2.463,2.455,2.463h6.437H27.152z"/>
		</g>
		<g>
			<linearGradient id="SVGID_1_" gradientUnits="userSpaceOnUse" x1="28.6562" y1="9.5767" x2="28.6562" y2="34.8999">
				<stop  offset="0" style="stop-color:#F79C3B"/>
				<stop  offset="1" style="stop-color:#F38241"/>
			</linearGradient>
			<path fill="url(#SVGID_1_)" d="M27.162,34.899h16.873c1.354,0,2.454-1.101,2.454-2.456V12.032c0-1.358-1.1-2.455-2.454-2.455
				H13.279c-1.356,0-2.455,1.097-2.455,2.455v20.412c0,1.355,1.099,2.456,2.455,2.456h6.436H27.162z"/>
		</g>
	</g>
	<g>
		<path fill="#751F01" d="M41.811,17.179c0,0.509-0.414,0.922-0.924,0.922H16.424c-0.509,0-0.921-0.413-0.921-0.922v-1.374
			c0-0.509,0.412-0.921,0.921-0.921h24.463c0.51,0,0.924,0.412,0.924,0.921V17.179z"/>
		<path fill="#751F01" d="M41.811,22.76c0,0.51-0.414,0.921-0.924,0.921H16.424c-0.509,0-0.921-0.411-0.921-0.921v-1.374
			c0-0.509,0.412-0.921,0.921-0.921h24.463c0.51,0,0.924,0.412,0.924,0.921V22.76z"/>
		<path fill="#751F01" d="M41.811,28.342c0,0.508-0.414,0.921-0.924,0.921H16.424c-0.509,0-0.921-0.413-0.921-0.921v-1.375
			c0-0.509,0.412-0.921,0.921-0.921h24.463c0.51,0,0.924,0.412,0.924,0.921V28.342z"/>
	</g>
	<g>
		<path fill="#FCF8F0" d="M41.811,17.564c0,0.509-0.414,0.92-0.924,0.92H16.424c-0.509,0-0.921-0.412-0.921-0.92v-1.375
			c0-0.508,0.412-0.921,0.921-0.921h24.463c0.51,0,0.924,0.413,0.924,0.921V17.564z"/>
		<path fill="#FCF8F0" d="M41.811,23.146c0,0.509-0.414,0.921-0.924,0.921H16.424c-0.509,0-0.921-0.412-0.921-0.921v-1.375
			c0-0.509,0.412-0.921,0.921-0.921h24.463c0.51,0,0.924,0.412,0.924,0.921V23.146z"/>
		<path fill="#FCF8F0" d="M41.811,28.726c0,0.51-0.414,0.922-0.924,0.922H16.424c-0.509,0-0.921-0.412-0.921-0.922v-1.375
			c0-0.507,0.412-0.92,0.921-0.92h24.463c0.51,0,0.924,0.413,0.924,0.92V28.726z"/>
	</g>
</g>
</svg>
