<?xml version="1.0" encoding="utf-8"?>
<!-- Generator: Adobe Illustrator 15.1.0, SVG Export Plug-In . SVG Version: 6.00 Build 0)  -->
<!DOCTYPE svg PUBLIC "-//W3C//DTD SVG 1.1//EN" "http://www.w3.org/Graphics/SVG/1.1/DTD/svg11.dtd">
<svg version="1.1" id="Livello_1" xmlns="http://www.w3.org/2000/svg" xmlns:xlink="http://www.w3.org/1999/xlink" x="0px" y="0px"
	 width="45px" height="50px" viewBox="0 0 45 50" enable-background="new 0 0 45 50" xml:space="preserve">
<path fill="#2E2D2E" d="M8.125,35.061c-3.802-3.799-5.897-8.853-5.897-14.229S4.323,10.4,8.126,6.599
	c3.801-3.803,8.855-5.898,14.232-5.898c5.376,0,10.432,2.095,14.234,5.899c3.803,3.8,5.896,8.854,5.896,14.231
	c0,5.376-2.094,10.431-5.896,14.229L22.36,49.299L8.125,35.061z M22.359,10.461c-2.77,0-5.374,1.079-7.333,3.038
	c-1.96,1.958-3.039,4.562-3.039,7.332c0,2.771,1.079,5.375,3.039,7.334c1.959,1.959,4.563,3.038,7.333,3.038
	c2.769,0,5.375-1.079,7.333-3.038c1.959-1.959,3.037-4.563,3.037-7.334c0-2.77-1.078-5.374-3.037-7.332
	C27.732,11.54,25.128,10.461,22.359,10.461z"/>
<path fill="#9C9B9B" d="M8.804,6.975c-7.342,7.336-7.342,19.237,0,26.572l13.289,13.292l13.29-13.292
	c7.34-7.335,7.34-19.235,0-26.572C28.041-0.368,16.142-0.368,8.804,6.975z M30.369,28.541c-4.571,4.572-11.983,4.572-16.555,0
	c-4.573-4.573-4.573-11.985,0-16.556c4.572-4.573,11.984-4.573,16.555,0C34.941,16.556,34.941,23.968,30.369,28.541z"/>
<path fill="#3D3D3B" d="M9.688,7.821c-7.341,7.336-7.341,19.238,0,26.572L22.977,48.25l13.289-13.857
	c7.34-7.334,7.34-19.234,0-26.571C28.925,0.478,17.026,0.478,9.688,7.821z M31.253,29.387c-4.569,4.573-11.983,4.573-16.555,0
	c-4.573-4.572-4.573-11.985,0-16.555c4.572-4.573,11.983-4.573,16.555,0C35.825,17.401,35.825,24.814,31.253,29.387z"/>
<circle fill="#3D3D3B" cx="22.527" cy="21.658" r="17.345"/>
<g>
	<path fill="#EFEEEE" d="M21.693,13.45c-2.828-1.615-5.863-2.589-8.804-2.826v16.548c2.939,0.23,5.97,1.178,8.804,2.751V13.45z"/>
	<path fill="#EFEEEE" d="M31.017,10.624c-2.94,0.238-5.975,1.211-8.805,2.826v16.473c2.834-1.573,5.864-2.521,8.805-2.751V10.624z"
		/>
	<path fill="#EFEEEE" d="M21.597,30.779c0.231,0.078,0.474,0.082,0.705,0.003c3.305-1.431,6.768-2.074,10.152-1.927V12.472
		c-0.305-0.013-0.61-0.017-0.919-0.016v15.2l-0.241,0.017c-3.027,0.197-6.164,1.183-9.082,2.849c-0.168,0.058-0.35,0.058-0.519,0
		c-2.918-1.666-6.053-2.651-9.081-2.849l-0.243-0.017v-15.2c-0.307-0.001-0.614,0.002-0.918,0.016v16.383
		C14.835,28.708,18.291,29.349,21.597,30.779z"/>
	<path fill="#EFEEEE" d="M33.892,14.312c-0.303-0.044-0.611-0.064-0.918-0.095v15.187l-0.274-0.016
		c-3.459-0.198-7.108,0.504-10.487,2.003l-0.259,0.107l-0.259-0.107c-3.38-1.499-7.027-2.203-10.487-2.003l-0.273,0.016V14.217
		c-0.308,0.031-0.615,0.053-0.918,0.095v16.648c0.168,0.087,0.295,0.211,0.295,0.211c3.674-0.495,7.485-0.435,11.112,0.753
		c0.167-0.016,0.343-0.025,0.531-0.025s0.364,0.01,0.531,0.025c3.627-1.188,7.439-1.248,11.11-0.753c0,0,0.136-0.129,0.298-0.211
		V14.312z"/>
</g>
</svg>
