<?xml version="1.0" encoding="utf-8"?>
<!-- Generator: Adobe Illustrator 15.1.0, SVG Export Plug-In . SVG Version: 6.00 Build 0)  -->
<!DOCTYPE svg PUBLIC "-//W3C//DTD SVG 1.1//EN" "http://www.w3.org/Graphics/SVG/1.1/DTD/svg11.dtd">
<svg version="1.1" id="Livello_1" xmlns="http://www.w3.org/2000/svg" xmlns:xlink="http://www.w3.org/1999/xlink" x="0px" y="0px"
	 width="45px" height="50px" viewBox="0 0 45 50" enable-background="new 0 0 45 50" xml:space="preserve">
<path fill="#2E2D2E" d="M8.125,35.061c-3.802-3.799-5.897-8.853-5.897-14.229S4.323,10.4,8.126,6.599
	c3.801-3.803,8.855-5.898,14.232-5.898c5.376,0,10.432,2.095,14.234,5.899c3.803,3.8,5.896,8.854,5.896,14.231
	c0,5.376-2.094,10.431-5.896,14.229L22.36,49.299L8.125,35.061z M22.359,10.461c-2.77,0-5.374,1.079-7.333,3.038
	c-1.96,1.958-3.039,4.562-3.039,7.332c0,2.771,1.079,5.375,3.039,7.334c1.959,1.959,4.563,3.038,7.333,3.038
	c2.769,0,5.375-1.079,7.333-3.038c1.959-1.959,3.037-4.563,3.037-7.334c0-2.77-1.078-5.374-3.037-7.332
	C27.732,11.54,25.128,10.461,22.359,10.461z"/>
<path fill="#9C9B9B" d="M8.804,6.975c-7.342,7.336-7.342,19.237,0,26.572l13.289,13.292l13.29-13.292
	c7.34-7.335,7.34-19.235,0-26.572C28.041-0.368,16.142-0.368,8.804,6.975z M30.369,28.541c-4.571,4.572-11.983,4.572-16.555,0
	c-4.573-4.573-4.573-11.985,0-16.556c4.572-4.573,11.984-4.573,16.555,0C34.941,16.556,34.941,23.968,30.369,28.541z"/>
<path fill="#3D3D3B" d="M9.688,7.821c-7.341,7.336-7.341,19.238,0,26.572L22.977,48.25l13.289-13.857
	c7.34-7.334,7.34-19.233,0-26.571C28.925,0.478,17.026,0.478,9.688,7.821z M31.253,29.387c-4.569,4.573-11.983,4.573-16.555,0
	c-4.573-4.572-4.573-11.985,0-16.555c4.572-4.573,11.983-4.573,16.555,0C35.825,17.401,35.825,24.814,31.253,29.387z"/>
<circle fill="#3D3D3B" cx="22.527" cy="21.658" r="17.345"/>
<g>
	<path fill="#EFEEEE" d="M18.263,30.23c0.196,1.053,0.475,2.061,0.837,3.006c1.095,0.291,2.242,0.445,3.428,0.445
		c1.556,0,3.049-0.268,4.438-0.756c-1.955-0.441-3.397-0.99-4.694-1.482C20.938,30.936,19.746,30.482,18.263,30.23z"/>
	<path fill="#EFEEEE" d="M13.446,30.135c1.397,1.287,3.07,2.281,4.918,2.883c-0.322-0.918-0.569-1.883-0.749-2.881
		C16.469,29.998,15.136,29.979,13.446,30.135z"/>
	<path fill="#EFEEEE" d="M17.512,29.514c-0.094-0.621-0.162-1.252-0.209-1.891c-3.402-0.668-6.099-1.898-7.614-3.48
		c0.623,2.068,1.73,3.921,3.19,5.435C14.761,29.375,16.25,29.375,17.512,29.514z"/>
	<path fill="#EFEEEE" d="M16.195,23.733c0.308,0.159,0.662,0.301,1.064,0.397c0.319-7.398,3.072-14.88,5.306-17.264
		c-0.013,0-0.024-0.001-0.037-0.001c-4.008,0-7.604,1.762-10.061,4.55C11.218,14.897,12.348,21.728,16.195,23.733z"/>
	<path fill="#EFEEEE" d="M17.264,26.984c-0.036-0.736-0.044-1.484-0.026-2.232c-0.506-0.109-0.948-0.28-1.326-0.478
		c-3.706-1.932-5.064-7.75-4.382-11.668c-1.518,2.173-2.411,4.815-2.411,7.666c0,0.801,0.074,1.582,0.209,2.343
		C10.332,24.578,13.306,26.172,17.264,26.984z"/>
	<path fill="#EFEEEE" d="M17.892,24.242c2.887,0.31,7.756-1.711,14.8-12.707c-2.275-2.644-5.562-4.39-9.262-4.636
		C21.271,8.417,18.221,16.433,17.892,24.242z"/>
	<path fill="#EFEEEE" d="M21.354,28.125c-1.192-0.07-2.333-0.199-3.412-0.385c0.047,0.629,0.118,1.248,0.213,1.857
		c1.66,0.254,2.947,0.744,4.334,1.273c1.466,0.557,3.122,1.186,5.505,1.645c3.392-1.518,6.038-4.402,7.237-7.956
		C32.133,27.57,26.069,28.396,21.354,28.125z"/>
	<path fill="#EFEEEE" d="M17.873,24.85c-0.018,0.757-0.009,1.513,0.029,2.257c1.101,0.197,2.27,0.336,3.487,0.406
		c5.064,0.293,11.712-0.688,14.231-4.349c0.204-0.933,0.315-1.898,0.315-2.892c0-3.108-1.062-5.966-2.836-8.241
		C26.009,23.041,20.951,25.144,17.873,24.85z"/>
</g>
</svg>
