<?xml version="1.0" encoding="utf-8"?>
<!-- Generator: Adobe Illustrator 15.1.0, SVG Export Plug-In . SVG Version: 6.00 Build 0)  -->
<!DOCTYPE svg PUBLIC "-//W3C//DTD SVG 1.1//EN" "http://www.w3.org/Graphics/SVG/1.1/DTD/svg11.dtd">
<svg version="1.1" id="Livello_1" xmlns="http://www.w3.org/2000/svg" xmlns:xlink="http://www.w3.org/1999/xlink" x="0px" y="0px"
	 width="45px" height="50px" viewBox="0 0 45 50" enable-background="new 0 0 45 50" xml:space="preserve">
<g>
	<path fill="#FFFFFF" d="M22.391,31.185c2.424,0,4.722-0.826,6.569-2.345C27.112,30.358,24.813,31.185,22.391,31.185L22.391,31.185z
		"/>
	<path fill="#FFFFFF" d="M36.624,6.581c-3.803-3.804-8.857-5.898-14.234-5.898S11.958,2.777,8.158,6.581
		C4.355,10.382,2.26,15.438,2.26,20.813s2.095,10.43,5.897,14.229L22.392,49.28l14.232-14.238c3.803-3.799,5.896-8.854,5.896-14.229
		C42.521,15.436,40.427,10.382,36.624,6.581z M22.441,31.226c-5.778,0-10.461-4.686-10.461-10.462s4.684-10.46,10.461-10.46
		c5.777,0,10.46,4.684,10.46,10.46S28.218,31.226,22.441,31.226z"/>
</g>
<g opacity="0.63">
	<path fill="none" d="M29.691,28.165c1.959-1.959,3.037-4.563,3.037-7.334c0-2.77-1.078-5.374-3.037-7.332
		c-1.959-1.959-4.563-3.038-7.333-3.038s-5.374,1.079-7.333,3.038c-1.96,1.958-3.039,4.562-3.039,7.332
		c0,2.771,1.079,5.375,3.039,7.334c1.959,1.959,4.563,3.038,7.333,3.038S27.734,30.124,29.691,28.165z"/>
	<path fill="#2E2D2E" d="M30.369,28.541c4.486-4.489,4.561-11.705,0.238-16.293c-4.601-3.969-11.545-3.782-15.909,0.584
		c-4.492,4.488-4.561,11.713-0.229,16.301C19.068,33.093,26.008,32.902,30.369,28.541z M11.987,20.831
		c0-2.77,1.079-5.374,3.039-7.332c1.959-1.959,4.563-3.038,7.333-3.038c2.769,0,5.374,1.079,7.333,3.038
		c1.959,1.958,3.037,4.562,3.037,7.332c0,2.771-1.078,5.375-3.037,7.334c-1.957,1.959-4.562,3.038-7.333,3.038
		s-5.374-1.079-7.333-3.038C13.066,26.206,11.987,23.602,11.987,20.831z"/>
	<path fill="#2E2D2E" d="M36.592,6.6c-3.802-3.804-8.857-5.899-14.234-5.899c-5.377,0-10.431,2.095-14.232,5.898
		C4.323,10.4,2.228,15.456,2.228,20.832s2.095,10.43,5.897,14.229L22.36,49.299l14.232-14.238c3.803-3.799,5.896-8.854,5.896-14.229
		C42.488,15.454,40.395,10.4,36.592,6.6z M36.266,34.393L22.977,48.25L10.589,35.332l-1.785-1.785
		c-7.342-7.335-7.342-19.236,0-26.572c7.338-7.343,19.237-7.343,26.579,0c0.085,0.085,0.156,0.179,0.24,0.265
		c0.213,0.195,0.436,0.375,0.643,0.582C43.605,15.158,43.605,27.059,36.266,34.393z"/>
	<path fill="#9C9B9B" d="M30.369,28.541c-4.361,4.361-11.301,4.552-15.9,0.592c0.079,0.084,0.148,0.172,0.229,0.254
		c4.572,4.573,11.985,4.573,16.555,0c4.572-4.573,4.572-11.986,0-16.555c-0.208-0.208-0.427-0.396-0.646-0.584
		C34.93,16.836,34.855,24.052,30.369,28.541z"/>
	<path fill="#9C9B9B" d="M9.688,7.821c7.131-7.136,18.558-7.316,25.935-0.581c-0.084-0.086-0.155-0.18-0.24-0.265
		c-7.342-7.343-19.241-7.343-26.579,0c-7.342,7.336-7.342,19.237,0,26.572l1.785,1.785l-0.901-0.939
		C2.347,27.059,2.347,15.157,9.688,7.821z"/>
	<path fill="#3D3D3B" d="M36.266,7.822c-0.207-0.207-0.43-0.386-0.643-0.582C28.246,0.505,16.819,0.685,9.688,7.821
		c-7.341,7.336-7.341,19.238,0,26.572l0.901,0.939L22.977,48.25l13.289-13.857C43.605,27.059,43.605,15.158,36.266,7.822z
		 M31.253,29.387c-4.569,4.573-11.983,4.573-16.555,0c-0.082-0.082-0.151-0.17-0.229-0.254c-4.332-4.588-4.262-11.812,0.229-16.301
		c4.364-4.366,11.31-4.553,15.909-0.584c0.219,0.188,0.438,0.376,0.646,0.584C35.825,17.401,35.825,24.814,31.253,29.387z"/>
</g>
</svg>
