<?xml version="1.0" encoding="utf-8"?>
<!-- Generator: Adobe Illustrator 15.1.0, SVG Export Plug-In . SVG Version: 6.00 Build 0)  -->
<!DOCTYPE svg PUBLIC "-//W3C//DTD SVG 1.1//EN" "http://www.w3.org/Graphics/SVG/1.1/DTD/svg11.dtd">
<svg version="1.1" id="Livello_1" xmlns="http://www.w3.org/2000/svg" xmlns:xlink="http://www.w3.org/1999/xlink" x="0px" y="0px"
	 width="76px" height="93px" viewBox="0 0 76 93" enable-background="new 0 0 76 93" xml:space="preserve">
<g>
	<g>
		<path fill="#DD6C10" d="M37.507,92.5L26.69,74.051H10.216c-4.827,0-8.753-3.928-8.753-8.755V9.367
			c0-4.826,3.926-8.751,8.753-8.751h55.929c4.827,0,8.752,3.925,8.752,8.751v55.929c0,4.827-3.925,8.755-8.752,8.755H49.361
			L37.507,92.5z M10.216,4.672c-2.588,0-4.695,2.107-4.695,4.694v55.929c0,2.59,2.106,4.697,4.695,4.697h18.798l8.651,14.754
			l9.482-14.754h18.998c2.589,0,4.694-2.107,4.694-4.697V9.367c0-2.587-2.105-4.694-4.694-4.694H10.216z"/>
	</g>
	<g>
		<path fill="#F4F4F4" d="M65.403,2.077H9.473c-3.714,0-6.724,3.012-6.724,6.741v56.076c0,3.721,3.01,6.745,6.724,6.745h17.635
			l9.733,16.646l10.669-16.646h17.893c3.716,0,6.723-3.024,6.723-6.745V8.817C72.126,5.089,69.119,2.077,65.403,2.077z"/>
	</g>
	<g>
		<linearGradient id="SVGID_1_" gradientUnits="userSpaceOnUse" x1="38.6279" y1="3.4551" x2="38.6279" y2="89.4351">
			<stop  offset="0" style="stop-color:#F7A93B"/>
			<stop  offset="0.3441" style="stop-color:#F7A53D"/>
			<stop  offset="0.7451" style="stop-color:#F59A3F"/>
			<stop  offset="1" style="stop-color:#F29042"/>
		</linearGradient>
		<path fill="url(#SVGID_1_)" d="M66.596,3.455H10.664c-3.713,0-6.724,3.005-6.724,6.724v55.928c0,3.711,3.011,6.729,6.724,6.729
			h17.635l9.734,16.6l10.667-16.6h17.895c3.713,0,6.721-3.018,6.721-6.729V10.179C73.316,6.46,70.309,3.455,66.596,3.455z"/>
	</g>
</g>
</svg>
