<?xml version="1.0" encoding="utf-8"?>
<!-- Generator: Adobe Illustrator 15.1.0, SVG Export Plug-In . SVG Version: 6.00 Build 0)  -->
<!DOCTYPE svg PUBLIC "-//W3C//DTD SVG 1.1//EN" "http://www.w3.org/Graphics/SVG/1.1/DTD/svg11.dtd">
<svg version="1.1" id="Livello_1" xmlns="http://www.w3.org/2000/svg" xmlns:xlink="http://www.w3.org/1999/xlink" x="0px" y="0px"
	 width="83px" height="83px" viewBox="0 0 83 83" enable-background="new 0 0 83 83" xml:space="preserve">
<circle fill="#C7C6C7" cx="41.5" cy="41.501" r="32.667"/>
<g>
	<path fill="#939393" d="M66.637,48.485c-0.385-0.632-0.899-1.176-1.55-1.581c-0.366-0.229-0.977-0.593-1.784-1.068
		c-5.636-3.321-20.784-12.01-20.788-12.012l-0.48-0.235v-3.04c0-1.874,3.599-2.379,3.599-5.831c0-2.715-2.547-4.125-4.904-4.125
		c-2.82,0-4.399,1.747-4.399,1.747l2.021,2.463c0,0,0.988-0.905,1.999-0.905c0.799,0,1.496,0.526,1.496,1.241
		c0,1.769-3.306,2.273-3.306,5.115v3.357l-0.59,0.242c-0.001,0-4.33,2.699-9.034,5.658c-2.353,1.479-4.797,3.023-6.846,4.329
		c-1.024,0.653-1.948,1.248-2.713,1.744c-0.767,0.499-1.369,0.897-1.771,1.178c-0.732,0.509-1.31,1.073-1.724,1.716
		c-0.414,0.641-0.644,1.373-0.642,2.093c-0.001,0.587,0.151,1.145,0.394,1.617c0.367,0.712,0.919,1.242,1.539,1.612
		c0.583,0.342,1.238,0.553,1.945,0.582l0.022,0.004h0.138c0.354-0.001,0.903-0.001,1.616-0.001c5.529,0,20.872,0.017,31.392,0.017
		c5.136,0,9.108-0.006,10.27-0.016c0.678-0.008,1.291-0.082,1.855-0.236c0.841-0.229,1.596-0.659,2.124-1.305
		c0.262-0.319,0.46-0.683,0.585-1.055c0.124-0.372,0.179-0.75,0.179-1.111C67.275,49.85,67.016,49.117,66.637,48.485z
		 M63.809,50.685c-0.096,0.068-0.491,0.242-1.307,0.248c-1.117,0.012-5.109,0.016-10.236,0.016c-10.518,0-25.857-0.017-31.391-0.017
		c-0.7,0-1.244,0-1.602,0.001c-0.012-0.001-0.022-0.001-0.029-0.001h-0.003l0,0c-0.001,0.001-0.002,0.001-0.004,0.001
		c-0.001,0-0.002,0-0.002,0c-0.102-0.001-0.314-0.075-0.433-0.184c-0.063-0.055-0.101-0.108-0.114-0.137
		c-0.015-0.032-0.012-0.033-0.014-0.043c0.003-0.012-0.007-0.063,0.099-0.232c0.104-0.164,0.338-0.431,0.783-0.741
		c0.342-0.237,0.933-0.63,1.684-1.117c2.637-1.714,7.277-4.643,11.251-7.137c1.988-1.247,3.809-2.387,5.134-3.216
		c0.662-0.415,1.202-0.749,1.574-0.981c0.056-0.036,0.108-0.07,0.159-0.101l1.839,0.003c0.126,0.074,0.278,0.161,0.458,0.263
		c1.911,1.098,6.731,3.866,11.368,6.544c2.319,1.34,4.593,2.656,6.433,3.729c0.92,0.537,1.732,1.012,2.386,1.399
		c0.653,0.385,1.151,0.684,1.425,0.855c0.137,0.08,0.311,0.253,0.418,0.436c0.106,0.171,0.144,0.341,0.144,0.398
		C63.82,50.675,63.814,50.679,63.809,50.685z"/>
</g>
<g>
	<path fill="#EFEEEE" d="M66.637,47.737c-0.385-0.632-0.899-1.176-1.55-1.581c-0.366-0.229-0.977-0.593-1.784-1.068
		c-5.636-3.321-20.784-12.01-20.788-12.012l-0.48-0.235v-3.04c0-1.874,3.599-2.379,3.599-5.831c0-2.715-2.547-4.125-4.904-4.125
		c-2.82,0-4.399,1.747-4.399,1.747l2.021,2.462c0,0,0.988-0.905,1.999-0.905c0.799,0,1.496,0.526,1.496,1.241
		c0,1.769-3.306,2.273-3.306,5.115v3.357l-0.59,0.241c-0.001,0-4.33,2.699-9.034,5.658c-2.353,1.479-4.797,3.024-6.846,4.329
		c-1.024,0.653-1.948,1.248-2.713,1.744c-0.767,0.499-1.369,0.897-1.771,1.178c-0.732,0.509-1.31,1.073-1.724,1.716
		c-0.414,0.641-0.644,1.373-0.642,2.092c-0.001,0.588,0.151,1.146,0.394,1.618c0.367,0.712,0.919,1.242,1.539,1.612
		c0.583,0.342,1.238,0.553,1.945,0.582l0.022,0.004h0.138c0.354-0.001,0.903-0.001,1.616-0.001c5.529,0,20.872,0.017,31.392,0.017
		c5.136,0,9.108-0.006,10.27-0.016c0.678-0.008,1.291-0.082,1.855-0.236c0.841-0.229,1.596-0.659,2.124-1.305
		c0.262-0.319,0.46-0.684,0.585-1.056c0.124-0.372,0.179-0.749,0.179-1.11C67.275,49.102,67.016,48.369,66.637,47.737z
		 M63.809,49.937c-0.096,0.068-0.491,0.242-1.307,0.248c-1.117,0.012-5.109,0.016-10.236,0.016c-10.518,0-25.857-0.017-31.391-0.017
		c-0.7,0-1.244,0-1.602,0.001c-0.012-0.001-0.022-0.001-0.029-0.001h-0.003l0,0c-0.001,0.001-0.002,0.001-0.004,0.001
		c-0.001,0-0.002,0-0.002,0c-0.102-0.001-0.314-0.075-0.433-0.184c-0.063-0.055-0.101-0.108-0.114-0.137
		c-0.015-0.032-0.012-0.033-0.014-0.044c0.003-0.011-0.007-0.062,0.099-0.231c0.104-0.164,0.338-0.431,0.783-0.741
		c0.342-0.237,0.933-0.63,1.684-1.117c2.637-1.714,7.277-4.643,11.251-7.138c1.988-1.247,3.809-2.387,5.134-3.215
		c0.662-0.415,1.202-0.75,1.574-0.981c0.056-0.036,0.108-0.07,0.159-0.101l1.839,0.003c0.126,0.073,0.278,0.161,0.458,0.262
		c1.911,1.098,6.731,3.867,11.368,6.545c2.319,1.34,4.593,2.656,6.433,3.729c0.92,0.537,1.732,1.012,2.386,1.399
		c0.653,0.385,1.151,0.684,1.425,0.855c0.137,0.08,0.311,0.253,0.418,0.436c0.106,0.171,0.144,0.341,0.144,0.397
		C63.82,49.927,63.814,49.931,63.809,49.937z"/>
</g>
</svg>
