<?xml version="1.0" encoding="utf-8"?>
<!-- Generator: Adobe Illustrator 15.1.0, SVG Export Plug-In . SVG Version: 6.00 Build 0)  -->
<!DOCTYPE svg PUBLIC "-//W3C//DTD SVG 1.1//EN" "http://www.w3.org/Graphics/SVG/1.1/DTD/svg11.dtd">
<svg version="1.1" id="Livello_1" xmlns="http://www.w3.org/2000/svg" xmlns:xlink="http://www.w3.org/1999/xlink" x="0px" y="0px"
	 width="83px" height="43px" viewBox="0 0 83 43" enable-background="new 0 0 83 43" xml:space="preserve">
<rect x="6" y="6.81" fill="#E16B25" width="71.243" height="23.372"/>
<rect x="6.07" y="4.636" fill="none" stroke="#E16B25" stroke-width="0.8347" stroke-miterlimit="10" width="71.103" height="24.154"/>
<linearGradient id="SVGID_1_" gradientUnits="userSpaceOnUse" x1="750.6211" y1="575.1875" x2="750.6211" y2="597.79" gradientTransform="matrix(1 0 0 1 -709 -569)">
	<stop  offset="0" style="stop-color:#F7A93B"/>
	<stop  offset="1" style="stop-color:#F29042"/>
</linearGradient>
<rect x="6.11" y="6.188" fill="url(#SVGID_1_)" width="71.023" height="22.602"/>
<g enable-background="new    ">
	<path fill="#FFFFFF" d="M29.345,12.731v8.344H27.51v-8.344H29.345z"/>
	<path fill="#FFFFFF" d="M32.36,15.033v0.842h0.035c0.21-0.351,0.483-0.605,0.818-0.766c0.335-0.159,0.678-0.239,1.028-0.239
		c0.444,0,0.808,0.061,1.093,0.181c0.284,0.121,0.508,0.289,0.672,0.503c0.164,0.214,0.278,0.476,0.345,0.783
		c0.066,0.308,0.1,0.648,0.1,1.022v3.716h-1.66v-3.412c0-0.499-0.078-0.871-0.234-1.116c-0.156-0.245-0.432-0.368-0.83-0.368
		c-0.452,0-0.779,0.135-0.981,0.403s-0.304,0.711-0.304,1.326v3.167h-1.66v-6.042H32.36z"/>
	<path fill="#FFFFFF" d="M39.208,21.075l-2.068-6.042h1.741l1.273,4.126h0.023l1.273-4.126H43.1l-2.045,6.042H39.208z"/>
	<path fill="#FFFFFF" d="M43.835,14.099v-1.367h1.659v1.367H43.835z M45.494,15.033v6.042h-1.659v-6.042H45.494z"/>
	<path fill="#FFFFFF" d="M50.121,15.033v1.11h-1.215v2.992c0,0.28,0.047,0.467,0.141,0.561c0.094,0.094,0.28,0.141,0.561,0.141
		c0.095,0,0.185-0.004,0.271-0.012c0.085-0.008,0.166-0.02,0.244-0.035v1.285c-0.14,0.023-0.295,0.039-0.468,0.047
		c-0.172,0.008-0.338,0.012-0.502,0.012c-0.258,0-0.502-0.018-0.729-0.053c-0.229-0.035-0.434-0.104-0.608-0.204
		c-0.174-0.102-0.312-0.246-0.414-0.433c-0.103-0.188-0.151-0.433-0.151-0.736v-3.564h-1.005v-1.11h1.005v-1.811h1.659v1.811
		L50.121,15.033L50.121,15.033z"/>
	<path fill="#FFFFFF" d="M52.691,19.626c0.25,0.242,0.608,0.362,1.076,0.362c0.334,0,0.623-0.083,0.864-0.251
		c0.24-0.168,0.39-0.345,0.443-0.532h1.461c-0.234,0.725-0.593,1.243-1.075,1.555c-0.482,0.312-1.066,0.468-1.753,0.468
		c-0.476,0-0.903-0.076-1.285-0.229c-0.382-0.151-0.705-0.368-0.971-0.648c-0.265-0.28-0.47-0.615-0.613-1.005
		c-0.144-0.39-0.216-0.818-0.216-1.285c0-0.452,0.072-0.873,0.223-1.263c0.147-0.389,0.357-0.726,0.631-1.011
		c0.272-0.284,0.598-0.508,0.977-0.672c0.377-0.163,0.797-0.245,1.256-0.245c0.514,0,0.962,0.1,1.344,0.298
		c0.383,0.199,0.695,0.466,0.941,0.801c0.245,0.335,0.422,0.717,0.531,1.146c0.108,0.429,0.147,0.877,0.117,1.345h-4.359
		C52.307,18.995,52.443,19.385,52.691,19.626z M54.568,16.447c-0.199-0.218-0.502-0.327-0.906-0.327
		c-0.266,0-0.484,0.045-0.66,0.135c-0.176,0.09-0.314,0.2-0.42,0.333c-0.105,0.133-0.18,0.272-0.223,0.421
		c-0.043,0.147-0.068,0.28-0.076,0.397h2.699C54.904,16.985,54.768,16.666,54.568,16.447z"/>
</g>
</svg>
