<?xml version="1.0" encoding="utf-8"?>
<!-- Generator: Adobe Illustrator 15.1.0, SVG Export Plug-In . SVG Version: 6.00 Build 0)  -->
<!DOCTYPE svg PUBLIC "-//W3C//DTD SVG 1.1//EN" "http://www.w3.org/Graphics/SVG/1.1/DTD/svg11.dtd">
<svg version="1.1" id="Livello_1" xmlns="http://www.w3.org/2000/svg" xmlns:xlink="http://www.w3.org/1999/xlink" x="0px" y="0px"
	 width="106px" height="36.833px" viewBox="0 0 106 36.833" enable-background="new 0 0 106 36.833" xml:space="preserve">
<g>
	<g>
		<path fill="#030405" d="M59.947,18.878c0,0-0.252,0.785-0.293,0.89c-0.039,0.104-0.281,0.429-0.229,0.429s0.588,0.248,0.588,0.248
			l2.078,0.646l-0.029,0.979c-0.183,0.027-0.899,0.503-1.004,0.736c-0.068,0.153-0.221,0.428-0.367,0.617
			c1.894,0.764,3,1.881,3.045,3.133c0.031,0.223,1.181,4.323,1.246,5.246h8.748c0.008-0.037-0.264-5.341-0.267-5.381
			c0,0-0.502-1.277-1.298-1.406c-0.796-0.132-1.818-0.41-2.247-0.732c-0.249-0.189-1.063-0.52-1.44-0.656
			c-0.177-0.062-0.479-0.584-0.582-0.818c-0.104-0.234-0.822-0.711-1.006-0.736l-0.029-0.98l2.078-0.646
			c0,0,0.537-0.248,0.588-0.248c0.053,0-0.248-0.394-0.287-0.498c-0.039-0.106-0.234-0.82-0.234-0.82s0.702,0.858,1.057,1.018
			c0,0-0.697-1.311-0.905-2.041c-0.209-0.733-0.347-1.875-0.347-1.979c0-0.105-0.432-3.171-0.666-3.68
			c-0.234-0.51-0.554-1.201-1.099-1.54c-0.546-0.34-1.354-0.824-2.517-0.887c-0.016-0.001-0.034-0.001-0.051-0.003
			C64.46,9.77,64.443,9.77,64.425,9.771c-1.161,0.063-1.97,0.547-2.516,0.887c-0.544,0.339-0.864,1.03-1.099,1.54
			c-0.235,0.509-0.666,3.575-0.666,3.68c0,0.104-0.123,1.293-0.33,2.024c-0.209,0.73-0.922,1.995-0.922,1.995
			C59.247,19.736,59.947,18.878,59.947,18.878z"/>
	</g>
	<g>
		<path fill="#030405" d="M41.858,27.374V27.32l0.005-0.051c0.566-2.444,3.51-3.611,5.117-4.312c0.003-0.001-0.002,0,0,0
			c-0.975-0.446-1.491-0.779-1.731-0.833c-0.098-0.196-0.31-1.689-0.31-1.689s1.172-1.037,1.436-3.021c0,0,0.577,0.319,0.613-0.889
			c0.027-0.93,0.187-1.293-0.446-1.565c0,0,0.046-0.644,0.066-1.215c0.031-0.846,0.188-2.035-1.278-2.99
			c-0.208-0.137-1.282-0.734-1.29-0.731c-0.383-0.233-0.87-0.381-0.87-0.381l0.016,0.349c-0.027-0.026-0.053-0.053-0.077-0.077
			c-0.097-0.1-0.152-0.485-0.142-0.636c0.019-0.271,0.019-0.271,0.019-0.271c-0.694,0.517-1.173,1.187-1.173,1.187l0.062-0.647
			c0,0-0.128,0.198-1.716,1.189c-1.559,0.973-1.3,2.409-1.257,3.258c0.028,0.571,0.085,0.965,0.085,0.965
			c-0.632,0.272-0.301,0.66-0.285,1.59c0.021,1.287,0.669,1.061,0.669,1.061c0.299,1.751,1.22,2.822,1.22,2.822
			s-0.261,1.502-0.361,1.693c-0.288,0.063-0.95,0.521-2.341,1.101c-2.05,0.854-1.406,0.357-3.075,1.191
			c-2.637,1.318-2.114,6.816-2.114,6.816h8.306L41.858,27.374z"/>
	</g>
	<g>
		<path fill="#030405" d="M64.498,34.833c0-1.567-1.77-8.196-1.77-8.196c0-0.969-1.274-2.076-3.787-2.721
			c-1.305-0.335-2.397-1.083-2.397-1.083c-0.162-0.093-0.136-0.938-0.136-0.938L55.6,21.773c0-0.068-0.068-1.084-0.068-1.084
			c0.967-0.323,0.867-2.228,0.867-2.228c0.615,0.339,1.015-1.167,1.015-1.167c0.728-2.095-0.362-1.969-0.362-1.969
			c0.346-1.567,0-3.857,0-3.857c-0.484-4.242-7.773-3.09-6.908-1.705c-2.13-0.392-1.645,4.425-1.645,4.425l0.462,1.245
			c-0.907,0.583-0.276,1.29-0.246,2.104c0.044,1.202,0.783,0.953,0.783,0.953c0.047,1.982,1.029,2.243,1.029,2.243
			c0.186,1.246,0.071,1.035,0.071,1.035l-0.876,0.104c0.039,0.314-0.069,0.845-0.069,0.845c-1.033,0.456-1.252,0.724-2.275,1.168
			c-1.977,0.86-4.126,1.98-4.508,3.489c-0.382,1.507-1.516,7.46-1.516,7.46H64.498L64.498,34.833z"/>
	</g>
	<g>
		<path fill="#EFEEEE" d="M59.93,17.973c0,0-0.252,0.784-0.291,0.888c-0.041,0.105-0.283,0.43-0.229,0.43
			c0.053,0,0.587,0.248,0.587,0.248l2.079,0.646l-0.03,0.979c-0.184,0.027-0.9,0.502-1.004,0.738
			c-0.068,0.152-0.223,0.427-0.368,0.617c1.894,0.764,3.002,1.881,3.048,3.133c0.03,0.223,1.178,4.324,1.244,5.246h8.747
			c0.007-0.039-0.263-5.34-0.267-5.381c0,0-0.502-1.278-1.297-1.408c-0.797-0.131-1.818-0.408-2.248-0.731
			c-0.25-0.188-1.062-0.521-1.44-0.655c-0.176-0.063-0.478-0.584-0.582-0.82c-0.104-0.233-0.821-0.709-1.005-0.736l-0.03-0.979
			l2.078-0.646c0,0,0.536-0.249,0.588-0.249s-0.247-0.393-0.286-0.499c-0.041-0.104-0.234-0.818-0.234-0.818
			s0.701,0.858,1.057,1.018c0,0-0.699-1.312-0.906-2.042c-0.209-0.732-0.346-1.874-0.346-1.979s-0.432-3.171-0.667-3.681
			c-0.235-0.508-0.553-1.201-1.099-1.54c-0.547-0.339-1.355-0.823-2.516-0.888c-0.019,0-0.035,0-0.053-0.002
			c-0.018,0.002-0.035,0.002-0.053,0.002c-1.162,0.065-1.971,0.549-2.516,0.888s-0.865,1.031-1.099,1.54
			c-0.235,0.509-0.667,3.576-0.667,3.681s-0.121,1.293-0.331,2.024c-0.208,0.731-0.922,1.996-0.922,1.996
			C59.229,18.831,59.93,17.973,59.93,17.973z"/>
	</g>
	<g>
		<path fill="#EFEEEE" d="M41.841,26.467v-0.053l0.005-0.053c0.566-2.442,3.51-3.609,5.117-4.312c0.002-0.001-0.002,0.001,0,0
			c-0.976-0.446-1.49-0.778-1.731-0.833c-0.099-0.198-0.311-1.689-0.311-1.689s1.173-1.038,1.436-3.022c0,0,0.577,0.32,0.613-0.887
			c0.027-0.93,0.188-1.293-0.445-1.565c0,0,0.045-0.645,0.065-1.215c0.032-0.847,0.188-2.036-1.277-2.991
			c-0.208-0.136-1.283-0.735-1.291-0.731c-0.383-0.233-0.87-0.38-0.87-0.38l0.016,0.35c-0.027-0.026-0.053-0.054-0.078-0.077
			c-0.096-0.099-0.151-0.485-0.141-0.636c0.019-0.272,0.019-0.272,0.019-0.272c-0.694,0.519-1.173,1.187-1.173,1.187l0.062-0.647
			c0,0-0.128,0.198-1.716,1.19c-1.558,0.972-1.3,2.408-1.257,3.257c0.029,0.57,0.085,0.966,0.085,0.966
			c-0.632,0.272-0.301,0.659-0.285,1.59c0.021,1.287,0.669,1.059,0.669,1.059c0.298,1.754,1.219,2.824,1.219,2.824
			s-0.261,1.502-0.36,1.69c-0.287,0.066-0.95,0.522-2.34,1.103c-2.05,0.854-1.407,0.359-3.075,1.19
			c-2.637,1.319-2.113,6.818-2.113,6.818h8.306L41.841,26.467z"/>
	</g>
	<g>
		<path fill="#EFEEEE" d="M64.48,33.928c0-1.568-1.77-8.197-1.77-8.197c0-0.969-1.273-2.076-3.787-2.721
			c-1.304-0.334-2.396-1.083-2.396-1.083c-0.162-0.092-0.137-0.938-0.137-0.938l-0.811-0.122c0-0.07-0.068-1.083-0.068-1.083
			c0.969-0.323,0.868-2.228,0.868-2.228c0.615,0.338,1.015-1.169,1.015-1.169c0.728-2.093-0.361-1.967-0.361-1.967
			c0.346-1.567,0-3.857,0-3.857c-0.484-4.242-7.773-3.09-6.908-1.704c-2.129-0.393-1.645,4.424-1.645,4.424l0.462,1.245
			c-0.908,0.583-0.276,1.291-0.246,2.106c0.044,1.2,0.783,0.952,0.783,0.952c0.046,1.982,1.03,2.243,1.03,2.243
			c0.185,1.245,0.069,1.034,0.069,1.034l-0.876,0.104c0.04,0.314-0.068,0.844-0.068,0.844c-1.032,0.457-1.252,0.725-2.275,1.17
			c-1.978,0.86-4.126,1.979-4.508,3.486c-0.382,1.508-1.517,7.461-1.517,7.461H64.48L64.48,33.928z"/>
	</g>
	<g>
		<g>
			
				<linearGradient id="SVGID_1_" gradientUnits="userSpaceOnUse" x1="349.8105" y1="-337.4102" x2="349.8105" y2="-359.4478" gradientTransform="matrix(1 0 0 -1 -283.5 -328)">
				<stop  offset="0" style="stop-color:#A6A6A6"/>
				<stop  offset="0.2237" style="stop-color:#9F9F9F"/>
				<stop  offset="0.5324" style="stop-color:#8E8E8E"/>
				<stop  offset="0.8892" style="stop-color:#717171"/>
				<stop  offset="1" style="stop-color:#666666"/>
			</linearGradient>
			<path fill="url(#SVGID_1_)" d="M59.947,18.522c0,0-0.252,0.783-0.293,0.888c-0.039,0.105-0.281,0.43-0.229,0.43
				s0.588,0.249,0.588,0.249l2.078,0.646l-0.029,0.979c-0.183,0.027-0.899,0.501-1.004,0.738c-0.068,0.153-0.221,0.427-0.367,0.618
				c1.894,0.763,3,1.88,3.045,3.132c0.031,0.223,1.181,4.321,1.246,5.245h8.748c0.008-0.037-0.264-5.342-0.267-5.383
				c0,0-0.502-1.276-1.298-1.404c-0.796-0.133-1.818-0.411-2.247-0.733c-0.249-0.188-1.063-0.519-1.44-0.655
				c-0.177-0.063-0.479-0.586-0.582-0.819c-0.104-0.235-0.822-0.711-1.006-0.738l-0.029-0.979l2.078-0.646
				c0,0,0.537-0.249,0.588-0.249c0.053,0-0.248-0.395-0.287-0.499c-0.039-0.105-0.234-0.819-0.234-0.819s0.702,0.857,1.057,1.018
				c0,0-0.697-1.312-0.905-2.042c-0.209-0.731-0.347-1.873-0.347-1.977c0-0.106-0.432-3.172-0.666-3.681
				c-0.234-0.509-0.554-1.201-1.099-1.54c-0.546-0.34-1.354-0.823-2.517-0.887c-0.016-0.001-0.034-0.001-0.051-0.003
				c-0.019,0.002-0.035,0.002-0.054,0.003c-1.161,0.064-1.97,0.547-2.516,0.887c-0.544,0.339-0.864,1.031-1.099,1.54
				c-0.235,0.509-0.666,3.575-0.666,3.681c0,0.104-0.123,1.292-0.33,2.022c-0.209,0.732-0.922,1.997-0.922,1.997
				C59.247,19.379,59.947,18.522,59.947,18.522z"/>
		</g>
		<g>
			
				<linearGradient id="SVGID_2_" gradientUnits="userSpaceOnUse" x1="323.3418" y1="-336.6489" x2="323.3418" y2="-358.8755" gradientTransform="matrix(1 0 0 -1 -283.5 -328)">
				<stop  offset="0" style="stop-color:#A6A6A6"/>
				<stop  offset="0.2237" style="stop-color:#9F9F9F"/>
				<stop  offset="0.5324" style="stop-color:#8E8E8E"/>
				<stop  offset="0.8892" style="stop-color:#717171"/>
				<stop  offset="1" style="stop-color:#666666"/>
			</linearGradient>
			<path fill="url(#SVGID_2_)" d="M41.858,27.016v-0.053l0.005-0.053c0.566-2.444,3.51-3.611,5.117-4.311c0.003-0.002-0.002,0,0,0
				c-0.975-0.445-1.491-0.779-1.731-0.834c-0.098-0.197-0.31-1.69-0.31-1.69s1.172-1.035,1.436-3.02c0,0,0.577,0.32,0.613-0.887
				c0.027-0.931,0.187-1.295-0.446-1.566c0,0,0.046-0.644,0.066-1.216c0.031-0.846,0.188-2.034-1.278-2.991
				c-0.208-0.135-1.282-0.733-1.29-0.73c-0.383-0.232-0.87-0.38-0.87-0.38l0.016,0.348c-0.027-0.026-0.053-0.053-0.077-0.077
				c-0.097-0.1-0.152-0.484-0.142-0.638c0.019-0.269,0.019-0.269,0.019-0.269c-0.694,0.517-1.173,1.187-1.173,1.187l0.062-0.647
				c0,0-0.128,0.199-1.716,1.189c-1.559,0.974-1.3,2.409-1.257,3.257c0.028,0.572,0.085,0.966,0.085,0.966
				c-0.632,0.271-0.301,0.66-0.285,1.591c0.021,1.286,0.669,1.059,0.669,1.059c0.299,1.752,1.22,2.823,1.22,2.823
				s-0.261,1.501-0.361,1.693c-0.288,0.062-0.95,0.521-2.341,1.1c-2.05,0.854-1.406,0.357-3.075,1.191
				c-2.637,1.317-2.114,6.816-2.114,6.816h8.306L41.858,27.016z"/>
		</g>
		<g>
			
				<linearGradient id="SVGID_3_" gradientUnits="userSpaceOnUse" x1="336.4248" y1="-336.1436" x2="336.4248" y2="-362.4771" gradientTransform="matrix(1 0 0 -1 -283.5 -328)">
				<stop  offset="0" style="stop-color:#A6A6A6"/>
				<stop  offset="0.2237" style="stop-color:#9F9F9F"/>
				<stop  offset="0.5324" style="stop-color:#8E8E8E"/>
				<stop  offset="0.8892" style="stop-color:#717171"/>
				<stop  offset="1" style="stop-color:#666666"/>
			</linearGradient>
			<path fill="url(#SVGID_3_)" d="M64.498,34.477c0-1.567-1.77-8.197-1.77-8.197c0-0.969-1.274-2.075-3.787-2.721
				c-1.305-0.334-2.397-1.084-2.397-1.084c-0.162-0.092-0.136-0.938-0.136-0.938L55.6,21.415c0-0.069-0.068-1.085-0.068-1.085
				c0.967-0.321,0.867-2.226,0.867-2.226c0.615,0.338,1.015-1.168,1.015-1.168c0.728-2.095-0.362-1.968-0.362-1.968
				c0.346-1.567,0-3.857,0-3.857c-0.484-4.241-7.773-3.091-6.908-1.704c-2.13-0.392-1.645,4.423-1.645,4.423l0.462,1.246
				c-0.907,0.584-0.276,1.29-0.246,2.105c0.044,1.201,0.783,0.953,0.783,0.953c0.047,1.982,1.029,2.243,1.029,2.243
				c0.186,1.246,0.071,1.034,0.071,1.034l-0.876,0.104c0.039,0.314-0.069,0.844-0.069,0.844c-1.033,0.455-1.252,0.725-2.275,1.168
				c-1.977,0.861-4.126,1.98-4.508,3.49c-0.382,1.506-1.516,7.457-1.516,7.457h23.145V34.477z"/>
		</g>
	</g>
</g>
</svg>
