<?xml version="1.0" encoding="utf-8"?>
<!-- Generator: Adobe Illustrator 15.1.0, SVG Export Plug-In . SVG Version: 6.00 Build 0)  -->
<!DOCTYPE svg PUBLIC "-//W3C//DTD SVG 1.1//EN" "http://www.w3.org/Graphics/SVG/1.1/DTD/svg11.dtd">
<svg version="1.1" id="Livello_1" xmlns="http://www.w3.org/2000/svg" xmlns:xlink="http://www.w3.org/1999/xlink" x="0px" y="0px"
	 width="100.5px" height="36.167px" viewBox="0 0 100.5 36.167" enable-background="new 0 0 100.5 36.167" xml:space="preserve">
<g>
	<g>
		<path fill="#030405" d="M49.574,25.878v-7.211c0-1.866,1.444-3.378,3.226-3.378h7.056v-1.718c0-2.308-1.787-4.177-3.989-4.177
			H37.36c-2.204,0-3.991,1.869-3.991,4.177v8.923c0,2.307,1.787,4.178,3.991,4.178h3.054c0,1.644,0,3.287,0,4.933
			c0,0.271,0.374,0.465,0.567,0.235c1.456-1.723,2.909-3.444,4.364-5.168h4.321C49.608,26.417,49.574,26.152,49.574,25.878z"/>
		<path fill="#030405" d="M51.406,19.855v8.053c0,1.682,1.302,3.045,2.908,3.045h7.67c1.061,1.256,2.121,2.51,3.182,3.766
			c0.143,0.169,0.413,0.027,0.413-0.17c0-1.198,0-2.397,0-3.596h4.802c1.607,0,2.91-1.363,2.91-3.045v-8.053
			c0-1.68-1.303-3.046-2.91-3.046H54.314C52.708,16.809,51.406,18.173,51.406,19.855z"/>
	</g>
	<g>
		<path fill="#EFEEEE" d="M49.574,25.025v-7.212c0-1.864,1.444-3.377,3.226-3.377h7.056v-1.72c0-2.306-1.787-4.176-3.989-4.176
			H37.36c-2.204,0-3.991,1.87-3.991,4.176v8.925c0,2.308,1.787,4.178,3.991,4.178h3.054c0,1.644,0,3.287,0,4.933
			c0,0.271,0.374,0.465,0.567,0.235c1.456-1.723,2.909-3.444,4.364-5.168h4.321C49.608,25.562,49.574,25.298,49.574,25.025z"/>
		<path fill="#EFEEEE" d="M51.406,19v8.054c0,1.682,1.302,3.045,2.908,3.045h7.67c1.061,1.256,2.121,2.512,3.182,3.767
			c0.143,0.17,0.413,0.026,0.413-0.171c0-1.198,0-2.396,0-3.596h4.802c1.607,0,2.91-1.363,2.91-3.045V19
			c0-1.68-1.303-3.045-2.91-3.045H54.314C52.708,15.955,51.406,17.32,51.406,19z"/>
	</g>
	<g>
		
			<linearGradient id="SVGID_1_" gradientUnits="userSpaceOnUse" x1="618.6133" y1="754.5562" x2="618.6133" y2="777.105" gradientTransform="matrix(1 0 0 1 -572 -745.5)">
			<stop  offset="0" style="stop-color:#A6A6A6"/>
			<stop  offset="0.2237" style="stop-color:#9F9F9F"/>
			<stop  offset="0.5324" style="stop-color:#8E8E8E"/>
			<stop  offset="0.8892" style="stop-color:#717171"/>
			<stop  offset="1" style="stop-color:#666666"/>
		</linearGradient>
		<path fill="url(#SVGID_1_)" d="M49.574,25.542V18.33c0-1.863,1.444-3.376,3.226-3.376h7.056v-1.719
			c0-2.308-1.787-4.178-3.989-4.178H37.36c-2.204,0-3.991,1.87-3.991,4.178v8.923c0,2.309,1.787,4.178,3.991,4.178h3.054
			c0,1.644,0,3.287,0,4.933c0,0.271,0.374,0.465,0.567,0.235c1.456-1.723,2.909-3.444,4.364-5.168h4.321
			C49.608,26.082,49.574,25.816,49.574,25.542z"/>
		
			<linearGradient id="SVGID_2_" gradientUnits="userSpaceOnUse" x1="634.3496" y1="761.9722" x2="634.3496" y2="779.9556" gradientTransform="matrix(1 0 0 1 -572 -745.5)">
			<stop  offset="0" style="stop-color:#A6A6A6"/>
			<stop  offset="0.2237" style="stop-color:#9F9F9F"/>
			<stop  offset="0.5324" style="stop-color:#8E8E8E"/>
			<stop  offset="0.8892" style="stop-color:#717171"/>
			<stop  offset="1" style="stop-color:#666666"/>
		</linearGradient>
		<path fill="url(#SVGID_2_)" d="M51.406,19.519v8.051c0,1.682,1.302,3.045,2.908,3.045h7.67c1.061,1.256,2.121,2.512,3.182,3.768
			c0.143,0.166,0.413,0.025,0.413-0.172c0-1.196,0-2.396,0-3.596h4.802c1.607,0,2.91-1.363,2.91-3.045v-8.051
			c0-1.682-1.303-3.047-2.91-3.047H54.314C52.708,16.472,51.406,17.837,51.406,19.519z"/>
	</g>
</g>
</svg>
