<?xml version="1.0" encoding="utf-8"?>
<!-- Generator: Adobe Illustrator 15.1.0, SVG Export Plug-In . SVG Version: 6.00 Build 0)  -->
<!DOCTYPE svg PUBLIC "-//W3C//DTD SVG 1.1//EN" "http://www.w3.org/Graphics/SVG/1.1/DTD/svg11.dtd">
<svg version="1.1" id="Livello_1" xmlns="http://www.w3.org/2000/svg" xmlns:xlink="http://www.w3.org/1999/xlink" x="0px" y="0px"
	 width="45px" height="50px" viewBox="0 0 45 50" enable-background="new 0 0 45 50" xml:space="preserve">
<path fill="#2E2D2E" d="M8.125,35.061c-3.802-3.799-5.897-8.853-5.897-14.229S4.323,10.4,8.126,6.599
	c3.801-3.803,8.855-5.898,14.232-5.898c5.376,0,10.432,2.095,14.234,5.899c3.803,3.8,5.896,8.854,5.896,14.231
	c0,5.376-2.094,10.431-5.896,14.229L22.36,49.299L8.125,35.061z M22.359,10.461c-2.77,0-5.374,1.079-7.333,3.038
	c-1.96,1.958-3.039,4.562-3.039,7.332c0,2.771,1.079,5.375,3.039,7.334c1.959,1.959,4.563,3.038,7.333,3.038
	c2.769,0,5.375-1.079,7.333-3.038c1.959-1.959,3.037-4.563,3.037-7.334c0-2.77-1.078-5.374-3.037-7.332
	C27.732,11.54,25.128,10.461,22.359,10.461z"/>
<path fill="#9C9B9B" d="M8.804,6.975c-7.342,7.336-7.342,19.237,0,26.572l13.289,13.292l13.29-13.292
	c7.34-7.335,7.34-19.235,0-26.572C28.041-0.368,16.142-0.368,8.804,6.975z M30.369,28.541c-4.571,4.572-11.983,4.572-16.555,0
	c-4.573-4.573-4.573-11.985,0-16.556c4.572-4.573,11.984-4.573,16.555,0C34.941,16.556,34.941,23.968,30.369,28.541z"/>
<path fill="#3D3D3B" d="M9.688,7.821c-7.341,7.336-7.341,19.238,0,26.572L22.977,48.25l13.289-13.857
	c7.34-7.334,7.34-19.23,0-26.571C28.925,0.478,17.026,0.478,9.688,7.821z M31.253,29.387c-4.569,4.573-11.983,4.573-16.555,0
	c-4.573-4.572-4.573-11.985,0-16.555c4.572-4.573,11.983-4.573,16.555,0C35.825,17.401,35.825,24.814,31.253,29.387z"/>
<circle fill="#3D3D3B" cx="22.527" cy="21.658" r="17.345"/>
<g>
	<path id="path4906" fill="#EFEEEE" d="M34.46,14.352l-2.102,16.54h-7.093l-2.094-16.54h8.662l1.715-5.981l0.969,0.272l-1.64,5.706
		L34.46,14.352z"/>
	<path id="path4908" fill="#EFEEEE" d="M22.886,23.264c0,0,0.292-2.643-3.749-2.643h-6.438c-4.033,0-3.75,2.643-3.75,2.643H22.886z"
		/>
	<path id="path4910" fill="#EFEEEE" d="M8.949,28.202c0,0-0.284,2.648,3.75,2.648h6.438c4.041,0,3.749-2.648,3.749-2.648H8.949z"/>
	<path id="path4912" fill="#EFEEEE" d="M22.28,26.923c0.664,0,1.197-0.536,1.197-1.195c0-0.656-0.534-1.189-1.197-1.189H9.498
		c-0.658,0-1.196,0.534-1.196,1.189c0,0.659,0.538,1.195,1.196,1.195H22.28z"/>
</g>
</svg>
