<?xml version="1.0" encoding="utf-8"?>
<!-- Generator: Adobe Illustrator 15.1.0, SVG Export Plug-In . SVG Version: 6.00 Build 0)  -->
<!DOCTYPE svg PUBLIC "-//W3C//DTD SVG 1.1//EN" "http://www.w3.org/Graphics/SVG/1.1/DTD/svg11.dtd">
<svg version="1.1" id="Livello_1" xmlns="http://www.w3.org/2000/svg" xmlns:xlink="http://www.w3.org/1999/xlink" x="0px" y="0px"
	 width="45px" height="50px" viewBox="0 0 45 50" enable-background="new 0 0 45 50" xml:space="preserve">
<path fill="#2E2D2E" d="M8.125,35.061c-3.802-3.799-5.897-8.853-5.897-14.229S4.323,10.4,8.126,6.599
	c3.801-3.803,8.855-5.898,14.232-5.898c5.376,0,10.432,2.095,14.234,5.899c3.803,3.8,5.896,8.854,5.896,14.231
	c0,5.376-2.094,10.431-5.896,14.229L22.36,49.299L8.125,35.061z M22.359,10.461c-2.77,0-5.374,1.079-7.333,3.038
	c-1.96,1.958-3.039,4.562-3.039,7.332c0,2.771,1.079,5.375,3.039,7.334c1.959,1.959,4.563,3.038,7.333,3.038
	c2.769,0,5.375-1.079,7.333-3.038c1.959-1.959,3.037-4.563,3.037-7.334c0-2.77-1.078-5.374-3.037-7.332
	C27.732,11.54,25.128,10.461,22.359,10.461z"/>
<path fill="#9C9B9B" d="M8.804,6.975c-7.342,7.336-7.342,19.237,0,26.572l13.289,13.292l13.29-13.292
	c7.34-7.335,7.34-19.235,0-26.572C28.041-0.368,16.142-0.368,8.804,6.975z M30.369,28.541c-4.571,4.572-11.983,4.572-16.555,0
	c-4.573-4.573-4.573-11.985,0-16.556c4.572-4.573,11.984-4.573,16.555,0C34.941,16.556,34.941,23.968,30.369,28.541z"/>
<path fill="#3D3D3B" d="M9.688,7.821c-7.341,7.336-7.341,19.238,0,26.572L22.977,48.25l13.289-13.857
	c7.34-7.334,7.34-19.231,0-26.571C28.925,0.478,17.026,0.478,9.688,7.821z M31.253,29.387c-4.569,4.573-11.983,4.573-16.555,0
	c-4.573-4.572-4.573-11.985,0-16.555c4.572-4.573,11.983-4.573,16.555,0C35.825,17.401,35.825,24.814,31.253,29.387z"/>
<circle fill="#3D3D3B" cx="22.527" cy="21.658" r="17.345"/>
<g>
	<polygon fill="#EFEEEE" points="22.527,6.79 10.65,13.504 34.403,13.504 	"/>
	<rect x="10.65" y="14.255" fill="#EFEEEE" width="23.753" height="1.869"/>
	<polygon fill="#EFEEEE" points="34.041,28.193 34.041,27.093 32.803,27.093 32.803,16.846 29.592,16.846 29.592,27.093 
		27.024,27.093 27.024,16.846 23.815,16.846 23.815,27.093 21.247,27.093 21.247,16.846 18.037,16.846 18.037,27.093 15.468,27.093 
		15.468,16.846 12.259,16.846 12.257,27.093 11.014,27.093 11.014,28.193 10.013,28.193 10.013,30.543 35.042,30.543 35.042,28.193 
			"/>
</g>
</svg>
