<?xml version="1.0" encoding="utf-8"?>
<!-- Generator: Adobe Illustrator 15.1.0, SVG Export Plug-In . SVG Version: 6.00 Build 0)  -->
<!DOCTYPE svg PUBLIC "-//W3C//DTD SVG 1.1//EN" "http://www.w3.org/Graphics/SVG/1.1/DTD/svg11.dtd">
<svg version="1.1" id="Livello_1" xmlns="http://www.w3.org/2000/svg" xmlns:xlink="http://www.w3.org/1999/xlink" x="0px" y="0px"
	 width="45px" height="50px" viewBox="0 0 45 50" enable-background="new 0 0 45 50" xml:space="preserve">
<path fill="#2E2D2E" d="M8.125,35.061c-3.802-3.799-5.897-8.853-5.897-14.229S4.323,10.4,8.126,6.599
	c3.801-3.803,8.855-5.898,14.232-5.898c5.376,0,10.432,2.095,14.234,5.899c3.803,3.8,5.896,8.854,5.896,14.231
	c0,5.376-2.094,10.431-5.896,14.229L22.36,49.299L8.125,35.061z M22.359,10.461c-2.77,0-5.374,1.079-7.333,3.038
	c-1.96,1.958-3.039,4.562-3.039,7.332c0,2.771,1.079,5.375,3.039,7.334c1.959,1.959,4.563,3.038,7.333,3.038
	c2.769,0,5.375-1.079,7.333-3.038c1.959-1.959,3.037-4.563,3.037-7.334c0-2.77-1.078-5.374-3.037-7.332
	C27.732,11.54,25.128,10.461,22.359,10.461z"/>
<path fill="#9C9B9B" d="M8.804,6.975c-7.342,7.336-7.342,19.237,0,26.572l13.289,13.292l13.29-13.292
	c7.34-7.335,7.34-19.235,0-26.572C28.041-0.368,16.142-0.368,8.804,6.975z M30.369,28.541c-4.571,4.572-11.983,4.572-16.555,0
	c-4.573-4.573-4.573-11.985,0-16.556c4.572-4.573,11.984-4.573,16.555,0C34.941,16.556,34.941,23.968,30.369,28.541z"/>
<path fill="#3D3D3B" d="M9.688,7.821c-7.341,7.336-7.341,19.238,0,26.572L22.977,48.25l13.289-13.857
	c7.34-7.334,7.34-19.232,0-26.571C28.925,0.478,17.026,0.478,9.688,7.821z M31.253,29.387c-4.569,4.573-11.983,4.573-16.555,0
	c-4.573-4.572-4.573-11.985,0-16.555c4.572-4.573,11.983-4.573,16.555,0C35.825,17.401,35.825,24.814,31.253,29.387z"/>
<circle fill="#3D3D3B" cx="22.527" cy="21.658" r="17.345"/>
<g>
	<path fill="#EFEEEE" d="M35.567,14.268c0,0.228-0.186,0.413-0.413,0.413C35.382,14.681,35.567,14.496,35.567,14.268
		c0-0.229-0.186-0.415-0.413-0.415C35.382,13.854,35.567,14.039,35.567,14.268z"/>
	<path fill="#EFEEEE" d="M35.154,27.905c0.228,0,0.413,0.185,0.413,0.413C35.567,28.09,35.382,27.905,35.154,27.905z"/>
	<path fill="#EFEEEE" d="M34.951,27.959c0.023-0.012,0.046-0.022,0.071-0.029C34.997,27.937,34.975,27.947,34.951,27.959z"/>
	<path fill="#EFEEEE" d="M35.154,14.681c-0.229,0-0.414-0.185-0.414-0.413c0-0.229,0.185-0.415,0.414-0.415
		c-0.229,0-0.415,0.185-0.415,0.415C34.739,14.496,34.925,14.681,35.154,14.681z"/>
	<path fill="#EFEEEE" d="M34.739,28.318c0,0.229,0.186,0.415,0.415,0.415C34.925,28.733,34.739,28.548,34.739,28.318z"/>
	<path fill="#EFEEEE" d="M35.154,28.733c0.228,0,0.413-0.186,0.413-0.415C35.567,28.548,35.382,28.733,35.154,28.733z"/>
	<path fill="#EFEEEE" d="M19.608,21.744c0.003,0.016,0.008,0.031,0.012,0.046C19.617,21.775,19.611,21.76,19.608,21.744z"/>
	<path fill="#EFEEEE" d="M28.705,25.284c1.604,0,2.907-1.305,2.907-2.909C31.612,23.979,30.31,25.284,28.705,25.284z"/>
	<path fill="#EFEEEE" d="M16.771,25.284c1.604,0,2.908-1.305,2.908-2.909C19.679,23.979,18.374,25.284,16.771,25.284z"/>
	<path fill="#EFEEEE" d="M31.612,22.375c0-1.503-1.146-2.743-2.61-2.892C30.467,19.632,31.612,20.872,31.612,22.375z"/>
	<path fill="#EFEEEE" d="M34.899,27.995c0.009-0.007,0.013-0.013,0.022-0.019C34.912,27.982,34.908,27.988,34.899,27.995z"/>
	<path fill="#EFEEEE" d="M16.206,14.397c0.037,0.179,0.194,0.312,0.383,0.312C16.399,14.709,16.242,14.576,16.206,14.397z"/>
	<path fill="#EFEEEE" d="M27.316,15.152c-0.01,0.009-0.021,0.012-0.029,0.021C27.296,15.164,27.307,15.161,27.316,15.152z"/>
	<path fill="#EFEEEE" d="M27.221,15.217c-0.035,0.015-0.075,0.023-0.117,0.023C27.146,15.24,27.186,15.232,27.221,15.217z"/>
	<path fill="#EFEEEE" d="M27.104,15.24c-0.167,0-0.301-0.135-0.303-0.3l0,0C26.801,15.105,26.937,15.24,27.104,15.24z"/>
	<path fill="#EFEEEE" d="M27.104,14.639c-0.114,0-0.206,0.064-0.259,0.154C26.897,14.703,26.989,14.639,27.104,14.639z"/>
	<path fill="#EFEEEE" d="M28.823,14.318c0,0.215-0.174,0.392-0.389,0.392C28.649,14.709,28.824,14.533,28.823,14.318
		c0.001-0.216-0.174-0.391-0.389-0.391C28.649,13.927,28.823,14.102,28.823,14.318z"/>
	<path fill="#EFEEEE" d="M28.336,13.943c-0.143,0.036-0.255,0.151-0.285,0.297C28.081,14.095,28.193,13.979,28.336,13.943z"/>
	<path fill="#EFEEEE" d="M26.82,14.845c0.002-0.007,0.002-0.016,0.005-0.023C26.822,14.829,26.822,14.838,26.82,14.845z"/>
	<path fill="#EFEEEE" d="M17.919,15.24c-0.167,0-0.303-0.135-0.303-0.3l0,0C17.617,15.105,17.751,15.24,17.919,15.24z"/>
	<path fill="#EFEEEE" d="M17.919,15.24c0.166,0,0.3-0.135,0.3-0.3l0,0C18.22,15.105,18.085,15.24,17.919,15.24z"/>
	<path fill="#EFEEEE" d="M34.771,28.163c0-0.001,0.001-0.004,0.001-0.005C34.772,28.159,34.771,28.162,34.771,28.163z"/>
	<path fill="#EFEEEE" d="M16.588,13.927c-0.216,0-0.39,0.175-0.39,0.391C16.198,14.102,16.373,13.927,16.588,13.927z"/>
	<path fill="#EFEEEE" d="M34.847,28.044c0.005-0.006,0.009-0.013,0.014-0.017C34.855,28.031,34.852,28.038,34.847,28.044z"/>
	<path fill="#EFEEEE" d="M16.967,14.229c0,0.004,0.002,0.007,0.003,0.011C16.969,14.236,16.967,14.233,16.967,14.229z"/>
	<path fill="#EFEEEE" d="M10.237,28.48c0,0.002-0.002,0.004-0.003,0.005C10.235,28.484,10.236,28.482,10.237,28.48z"/>
	<path fill="#EFEEEE" d="M9.442,28.318c0-0.041,0.007-0.08,0.019-0.118C9.45,28.238,9.442,28.277,9.442,28.318z"/>
	<path fill="#EFEEEE" d="M10.27,28.318c0,0.042-0.008,0.082-0.019,0.119C10.261,28.4,10.27,28.36,10.27,28.318z"/>
	<path fill="#EFEEEE" d="M9.475,28.158c0-0.003,0.001-0.003,0.003-0.005C9.477,28.153,9.476,28.155,9.475,28.158z"/>
	<path fill="#EFEEEE" d="M10.233,28.153c0.001,0,0.003,0.002,0.003,0.005C10.236,28.155,10.235,28.153,10.233,28.153z"/>
	<path fill="#EFEEEE" d="M10.251,28.2c0.01,0.038,0.019,0.077,0.019,0.118C10.27,28.277,10.261,28.238,10.251,28.2z"/>
	<path fill="#EFEEEE" d="M9.479,28.485c-0.002-0.001-0.003-0.003-0.003-0.007C9.476,28.482,9.477,28.484,9.479,28.485z"/>
	<path fill="#EFEEEE" d="M9.442,28.318c0,0.042,0.007,0.082,0.019,0.119C9.45,28.4,9.442,28.36,9.442,28.318z"/>
	<path fill="#EFEEEE" d="M16.005,17.19H28.99c0.515,0,1.137-0.42,1.137-0.937l0.001,0.013l0.317-3.488H14.552l0.318,3.511
		C14.87,16.805,15.491,17.19,16.005,17.19z M28.336,13.943c0.032-0.009,0.063-0.016,0.099-0.016c0.215,0,0.389,0.175,0.389,0.391
		c0,0.215-0.174,0.392-0.389,0.392c-0.216,0-0.392-0.176-0.392-0.392c0-0.026,0.003-0.053,0.008-0.078
		C28.081,14.094,28.193,13.979,28.336,13.943z M26.801,14.94c0-0.034,0.01-0.065,0.02-0.095c0.002-0.007,0.002-0.016,0.005-0.023
		c0.005-0.01,0.014-0.018,0.02-0.029c0.052-0.09,0.145-0.154,0.259-0.154c0.167,0,0.3,0.134,0.3,0.301
		c0,0.083-0.032,0.159-0.087,0.212c-0.01,0.009-0.021,0.014-0.029,0.021c-0.022,0.015-0.042,0.034-0.066,0.044
		c-0.037,0.015-0.075,0.023-0.117,0.023C26.937,15.24,26.801,15.105,26.801,14.94L26.801,14.94L26.801,14.94z M17.617,14.94
		c0-0.125,0.076-0.233,0.185-0.279c0.037-0.015,0.076-0.022,0.118-0.022c0.041,0,0.08,0.007,0.116,0.022
		c0.108,0.046,0.184,0.154,0.184,0.279l0,0l0,0c0,0.166-0.134,0.3-0.3,0.3C17.751,15.24,17.617,15.105,17.617,14.94L17.617,14.94
		L17.617,14.94z M16.588,13.927c0.184,0,0.338,0.129,0.378,0.302c0,0.004,0.002,0.007,0.003,0.011
		c0.006,0.025,0.009,0.051,0.009,0.078c0,0.215-0.174,0.392-0.39,0.392c-0.189,0-0.346-0.133-0.383-0.312
		c-0.006-0.025-0.007-0.052-0.007-0.079C16.198,14.102,16.373,13.927,16.588,13.927z"/>
	<path fill="#EFEEEE" d="M16.967,14.229c-0.041-0.173-0.195-0.302-0.378-0.302C16.771,13.927,16.926,14.056,16.967,14.229z"/>
	<path fill="#EFEEEE" d="M16.97,14.24c0.006,0.025,0.009,0.051,0.009,0.078C16.979,14.292,16.976,14.265,16.97,14.24z"/>
	<path fill="#EFEEEE" d="M16.588,14.709c0.216,0,0.39-0.176,0.39-0.392C16.979,14.533,16.804,14.709,16.588,14.709z"/>
	<path fill="#EFEEEE" d="M17.801,14.661c-0.108,0.046-0.185,0.154-0.185,0.279l0,0C17.617,14.815,17.693,14.707,17.801,14.661z"/>
	<path fill="#EFEEEE" d="M18.22,14.94L18.22,14.94c0-0.125-0.076-0.233-0.184-0.279C18.144,14.707,18.22,14.815,18.22,14.94z"/>
	<path fill="#EFEEEE" d="M28.051,14.24c-0.004,0.025-0.008,0.051-0.008,0.078C28.043,14.292,28.047,14.265,28.051,14.24z"/>
	<path fill="#EFEEEE" d="M28.043,14.318c0,0.215,0.176,0.392,0.392,0.392C28.219,14.709,28.043,14.533,28.043,14.318z"/>
	<path fill="#EFEEEE" d="M28.336,13.943c0.032-0.009,0.063-0.016,0.099-0.016C28.399,13.927,28.368,13.934,28.336,13.943z"/>
	<path fill="#EFEEEE" d="M27.403,14.94c0,0.083-0.032,0.159-0.087,0.212C27.371,15.099,27.403,15.022,27.403,14.94
		c0-0.167-0.133-0.301-0.3-0.301C27.271,14.639,27.403,14.773,27.403,14.94z"/>
	<path fill="#EFEEEE" d="M27.287,15.173c-0.022,0.015-0.042,0.034-0.066,0.044C27.245,15.207,27.267,15.188,27.287,15.173z"/>
	<path fill="#EFEEEE" d="M26.825,14.822c0.005-0.01,0.014-0.018,0.02-0.029C26.839,14.804,26.83,14.812,26.825,14.822z"/>
	<path fill="#EFEEEE" d="M26.801,14.94L26.801,14.94c0-0.034,0.01-0.065,0.02-0.095C26.811,14.875,26.801,14.906,26.801,14.94z"/>
	<path fill="#EFEEEE" d="M28.705,24.878c1.383,0,2.503-1.12,2.503-2.503c0-1.383-1.12-2.502-2.503-2.502
		c-1.208,0-2.219,0.857-2.451,1.999c-0.034,0.164-0.052,0.33-0.052,0.504C26.202,23.758,27.323,24.878,28.705,24.878z
		 M27.329,21.283l0.383,0.384l0.294-0.292l-0.384-0.384c0.241-0.191,0.535-0.318,0.855-0.357v0.544h0.415v-0.544
		c0.321,0.039,0.615,0.166,0.859,0.357l-0.387,0.384l0.293,0.292l0.384-0.384c0.19,0.243,0.316,0.537,0.355,0.858h-0.542v0.414h0.54
		c-0.039,0.32-0.167,0.613-0.356,0.855l-0.381-0.381l-0.293,0.292l0.38,0.38c-0.24,0.189-0.532,0.316-0.854,0.354v-0.538h-0.414
		v0.538c-0.319-0.038-0.611-0.164-0.852-0.354l0.38-0.38l-0.294-0.292l-0.381,0.381c-0.19-0.242-0.316-0.535-0.355-0.855h0.541
		v-0.414h-0.542C27.013,21.819,27.14,21.526,27.329,21.283z"/>
	<path fill="#EFEEEE" d="M16.771,24.878c1.083,0,2.004-0.688,2.352-1.651c0.058-0.161,0.1-0.332,0.124-0.505
		c0.016-0.114,0.027-0.229,0.027-0.347c0-0.086-0.005-0.171-0.013-0.256c-0.128-1.262-1.194-2.247-2.491-2.247
		c-1.295,0-2.362,0.985-2.49,2.247c-0.009,0.085-0.013,0.169-0.013,0.256C14.268,23.758,15.389,24.878,16.771,24.878z
		 M15.385,21.301l0.384,0.383l0.293-0.292l-0.386-0.385c0.243-0.19,0.536-0.317,0.858-0.356v0.545h0.415v-0.545
		c0.321,0.039,0.615,0.167,0.857,0.356l-0.385,0.385l0.292,0.292l0.384-0.383c0.19,0.242,0.316,0.536,0.355,0.857H17.91v0.413h0.541
		c-0.039,0.32-0.166,0.613-0.355,0.855l-0.382-0.381l-0.292,0.293l0.38,0.381c-0.241,0.188-0.534,0.314-0.854,0.352v-0.539h-0.414
		v0.539c-0.321-0.038-0.613-0.164-0.854-0.352l0.381-0.381l-0.293-0.293l-0.38,0.381c-0.19-0.242-0.317-0.535-0.356-0.855h0.541
		v-0.413h-0.542C15.068,21.837,15.194,21.543,15.385,21.301z"/>
	<path fill="#EFEEEE" d="M9.877,29.324H35.12c0.626,0,1.151-0.492,1.151-1.118V14.318c0-0.627-0.525-1.265-1.151-1.265h-4.273
		l-0.322,3.085c-0.007,0.745-0.827,1.329-1.534,1.329H16.005c-0.707,0-1.526-0.583-1.535-1.329l-0.321-3.085H9.878
		c-0.626,0-1.186,0.638-1.186,1.265v13.888C8.692,28.832,9.25,29.324,9.877,29.324z M35.154,28.733
		c-0.229,0-0.415-0.186-0.415-0.415c0-0.054,0.013-0.107,0.032-0.155c0-0.001,0.001-0.004,0.001-0.005
		c0.018-0.043,0.043-0.082,0.074-0.114c0.005-0.006,0.009-0.013,0.014-0.017c0.012-0.013,0.025-0.022,0.039-0.032
		c0.009-0.007,0.016-0.013,0.023-0.019c0.009-0.007,0.019-0.012,0.028-0.018c0.023-0.012,0.046-0.022,0.071-0.029
		c0.041-0.015,0.084-0.024,0.132-0.024c0.228,0,0.413,0.185,0.413,0.413C35.567,28.548,35.382,28.733,35.154,28.733z M35.154,13.854
		c0.228,0,0.413,0.185,0.413,0.415c0,0.228-0.186,0.413-0.413,0.413c-0.229,0-0.415-0.185-0.415-0.413
		C34.739,14.039,34.925,13.854,35.154,13.854z M10.347,18.017h24.544v7.675c0,0.939-0.763,1.702-1.701,1.702H12.048
		c-0.938,0-1.702-0.763-1.702-1.702V18.017z M9.855,13.852c0.229,0,0.414,0.187,0.414,0.416c0,0.228-0.186,0.413-0.414,0.413
		c-0.228,0-0.413-0.185-0.413-0.413C9.442,14.039,9.627,13.852,9.855,13.852z M9.461,28.2c0.004-0.015,0.008-0.029,0.014-0.044
		c0-0.001,0.001-0.003,0.003-0.003c0.063-0.148,0.208-0.248,0.377-0.248c0.169,0,0.314,0.1,0.378,0.248
		c0.001,0,0.003,0.002,0.003,0.003c0.006,0.015,0.009,0.029,0.014,0.044c0.01,0.038,0.019,0.077,0.019,0.118
		s-0.008,0.082-0.019,0.119c-0.005,0.015-0.008,0.027-0.014,0.041c0,0.004-0.002,0.006-0.003,0.007
		c-0.064,0.145-0.208,0.246-0.378,0.246c-0.169,0-0.314-0.102-0.377-0.246c-0.002-0.001-0.003-0.003-0.003-0.007
		c-0.005-0.014-0.01-0.026-0.014-0.041C9.45,28.4,9.442,28.359,9.442,28.318S9.45,28.238,9.461,28.2z"/>
	<path fill="#EFEEEE" d="M34.922,27.977c0.01-0.007,0.02-0.012,0.029-0.018C34.941,27.965,34.932,27.97,34.922,27.977z"/>
	<path fill="#EFEEEE" d="M35.022,27.93c0.041-0.015,0.084-0.024,0.132-0.024C35.106,27.905,35.063,27.915,35.022,27.93z"/>
	<path fill="#EFEEEE" d="M34.86,28.027c0.012-0.013,0.025-0.022,0.039-0.032C34.885,28.005,34.872,28.015,34.86,28.027z"/>
	<path fill="#EFEEEE" d="M34.772,28.158c0.018-0.043,0.043-0.082,0.074-0.114C34.815,28.076,34.79,28.115,34.772,28.158z"/>
	<path fill="#EFEEEE" d="M34.739,28.318c0-0.054,0.013-0.107,0.032-0.155C34.752,28.211,34.739,28.265,34.739,28.318z"/>
	<path fill="#EFEEEE" d="M9.855,14.681c-0.228,0-0.413-0.185-0.413-0.413C9.442,14.496,9.627,14.681,9.855,14.681z"/>
	<path fill="#EFEEEE" d="M10.27,14.268c0-0.229-0.186-0.416-0.414-0.416C10.084,13.852,10.27,14.039,10.27,14.268z"/>
	<path fill="#EFEEEE" d="M9.855,13.852c-0.228,0-0.413,0.187-0.413,0.416C9.442,14.039,9.627,13.852,9.855,13.852z"/>
	<path fill="#EFEEEE" d="M9.855,14.681c0.229,0,0.414-0.185,0.414-0.413C10.27,14.496,10.084,14.681,9.855,14.681z"/>
	<path fill="#EFEEEE" d="M9.855,27.905c-0.169,0-0.314,0.1-0.377,0.248C9.542,28.005,9.687,27.905,9.855,27.905z"/>
	<path fill="#EFEEEE" d="M10.251,28.438c-0.005,0.015-0.008,0.027-0.015,0.043C10.243,28.465,10.246,28.452,10.251,28.438z"/>
	<path fill="#EFEEEE" d="M10.237,28.158c0.006,0.013,0.009,0.027,0.014,0.042C10.246,28.186,10.243,28.171,10.237,28.158z"/>
	<path fill="#EFEEEE" d="M9.475,28.48c-0.005-0.016-0.01-0.028-0.014-0.043C9.465,28.452,9.469,28.465,9.475,28.48z"/>
	<path fill="#EFEEEE" d="M9.479,28.485c0.063,0.145,0.208,0.246,0.377,0.246C9.687,28.733,9.542,28.63,9.479,28.485z"/>
	<path fill="#EFEEEE" d="M9.855,28.733c0.169,0,0.314-0.104,0.378-0.248C10.169,28.63,10.024,28.733,9.855,28.733z"/>
	<path fill="#EFEEEE" d="M9.461,28.2c0.004-0.015,0.008-0.029,0.014-0.044C9.469,28.171,9.465,28.186,9.461,28.2z"/>
	<path fill="#EFEEEE" d="M10.233,28.153c-0.064-0.148-0.208-0.248-0.378-0.248C10.024,27.905,10.169,28.005,10.233,28.153z"/>
	<path fill="#EFEEEE" d="M12.048,27.119h21.141c0.787,0,1.426-0.641,1.426-1.427v-7.399H10.622v7.399
		C10.622,26.479,11.262,27.119,12.048,27.119z M28.409,19.483c0.097-0.01,0.195-0.017,0.296-0.017c0.1,0,0.199,0.007,0.297,0.017
		c1.465,0.148,2.61,1.389,2.61,2.892c0,1.604-1.303,2.909-2.907,2.909c-1.603,0-2.907-1.305-2.907-2.909
		C25.798,20.872,26.944,19.632,28.409,19.483z M16.475,19.483c0.097-0.01,0.196-0.017,0.296-0.017c1.387,0,2.547,0.978,2.837,2.277
		c0.003,0.017,0.008,0.032,0.012,0.046c0.038,0.19,0.059,0.384,0.059,0.584c0,1.604-1.304,2.908-2.908,2.908
		c-1.604,0-2.908-1.304-2.908-2.907C13.863,20.872,15.009,19.632,16.475,19.483z"/>
	<path fill="#EFEEEE" d="M19.62,21.79c0.038,0.189,0.059,0.385,0.059,0.585C19.679,22.175,19.658,21.979,19.62,21.79z"/>
	<path fill="#EFEEEE" d="M16.771,25.284c-1.604,0-2.908-1.305-2.908-2.909C13.863,23.979,15.167,25.284,16.771,25.284z"/>
	<path fill="#EFEEEE" d="M16.475,19.483c-1.465,0.148-2.611,1.389-2.611,2.892C13.863,20.872,15.009,19.632,16.475,19.483z"/>
	<path fill="#EFEEEE" d="M19.608,21.744c-0.29-1.3-1.451-2.276-2.837-2.276C18.157,19.468,19.318,20.444,19.608,21.744z"/>
	<path fill="#EFEEEE" d="M28.409,19.483c-1.465,0.148-2.611,1.389-2.611,2.892C25.798,20.872,26.944,19.632,28.409,19.483z"/>
</g>
</svg>
