<?xml version="1.0" encoding="utf-8"?>
<!-- Generator: Adobe Illustrator 15.1.0, SVG Export Plug-In . SVG Version: 6.00 Build 0)  -->
<!DOCTYPE svg PUBLIC "-//W3C//DTD SVG 1.1//EN" "http://www.w3.org/Graphics/SVG/1.1/DTD/svg11.dtd">
<svg version="1.1" id="Livello_1" xmlns="http://www.w3.org/2000/svg" xmlns:xlink="http://www.w3.org/1999/xlink" x="0px" y="0px"
	 width="45px" height="50px" viewBox="0 0 45 50" enable-background="new 0 0 45 50" xml:space="preserve">
<path fill="#2E2D2E" d="M8.125,35.061c-3.802-3.799-5.897-8.853-5.897-14.229S4.323,10.4,8.126,6.599
	c3.801-3.803,8.855-5.898,14.232-5.898c5.376,0,10.432,2.095,14.234,5.899c3.803,3.8,5.896,8.854,5.896,14.231
	c0,5.376-2.094,10.431-5.896,14.229L22.36,49.299L8.125,35.061z M22.359,10.461c-2.77,0-5.374,1.079-7.333,3.038
	c-1.96,1.958-3.039,4.562-3.039,7.332c0,2.771,1.079,5.375,3.039,7.334c1.959,1.959,4.563,3.038,7.333,3.038
	c2.769,0,5.375-1.079,7.333-3.038c1.959-1.959,3.037-4.563,3.037-7.334c0-2.77-1.078-5.374-3.037-7.332
	C27.732,11.54,25.128,10.461,22.359,10.461z"/>
<path fill="#9C9B9B" d="M8.804,6.975c-7.342,7.336-7.342,19.237,0,26.572l13.289,13.292l13.29-13.292
	c7.34-7.335,7.34-19.235,0-26.572C28.041-0.368,16.142-0.368,8.804,6.975z M30.369,28.541c-4.571,4.572-11.983,4.572-16.555,0
	c-4.573-4.573-4.573-11.985,0-16.556c4.572-4.573,11.984-4.573,16.555,0C34.941,16.556,34.941,23.968,30.369,28.541z"/>
<path fill="#3D3D3B" d="M9.688,7.821c-7.341,7.336-7.341,19.238,0,26.572L22.977,48.25l13.289-13.857
	c7.34-7.334,7.34-19.233,0-26.571C28.925,0.478,17.026,0.478,9.688,7.821z M31.253,29.387c-4.569,4.573-11.983,4.573-16.555,0
	c-4.573-4.572-4.573-11.985,0-16.555c4.572-4.573,11.983-4.573,16.555,0C35.825,17.401,35.825,24.814,31.253,29.387z"/>
<circle fill="#3D3D3B" cx="22.527" cy="21.658" r="17.345"/>
<path fill="#EFEEEE" d="M10.184,9.413v23.454h4.938v-4.32c0-0.343,0.22-0.618,0.493-0.618H29.44c0.272,0,0.493,0.275,0.493,0.618
	v4.32h4.938V9.413h-4.938v4.32c0,0.342-0.221,0.617-0.493,0.617H15.615c-0.273,0-0.493-0.275-0.493-0.617v-4.32H10.184z
	 M11.911,10.647h1.482c0.273,0,0.494,0.109,0.494,0.247v0.741c0,0.137-0.221,0.247-0.494,0.247h-1.482
	c-0.273,0-0.493-0.11-0.493-0.247v-0.741C11.418,10.756,11.638,10.647,11.911,10.647z M31.662,10.647h1.481
	c0.272,0,0.494,0.109,0.494,0.247v0.741c0,0.137-0.222,0.247-0.494,0.247h-1.481c-0.273,0-0.494-0.11-0.494-0.247v-0.741
	C31.168,10.756,31.389,10.647,31.662,10.647z M11.911,13.247h1.482c0.273,0,0.494,0.11,0.494,0.247v0.741
	c0,0.137-0.221,0.247-0.494,0.247h-1.482c-0.273,0-0.493-0.11-0.493-0.247v-0.741C11.418,13.357,11.638,13.247,11.911,13.247z
	 M31.662,13.247h1.481c0.272,0,0.494,0.11,0.494,0.247v0.741c0,0.137-0.222,0.247-0.494,0.247h-1.481
	c-0.273,0-0.494-0.11-0.494-0.247v-0.741C31.168,13.357,31.389,13.247,31.662,13.247z M11.911,15.584h1.482
	c0.273,0,0.494,0.11,0.494,0.247v0.741c0,0.137-0.221,0.246-0.494,0.246h-1.482c-0.273,0-0.493-0.109-0.493-0.246v-0.741
	C11.418,15.695,11.638,15.584,11.911,15.584z M15.615,15.584H29.44c0.272,0,0.493,0.248,0.493,0.555v9.999
	c0,0.307-0.221,0.556-0.493,0.556H15.615c-0.273,0-0.493-0.249-0.493-0.556V16.14C15.122,15.832,15.341,15.584,15.615,15.584z
	 M31.662,15.584h1.481c0.272,0,0.494,0.11,0.494,0.247v0.741c0,0.137-0.222,0.246-0.494,0.246h-1.481
	c-0.273,0-0.494-0.109-0.494-0.246v-0.741C31.168,15.695,31.389,15.584,31.662,15.584z M11.911,18.053h1.482
	c0.273,0,0.494,0.11,0.494,0.247v0.74c0,0.137-0.221,0.247-0.494,0.247h-1.482c-0.273,0-0.493-0.11-0.493-0.247V18.3
	C11.418,18.163,11.638,18.053,11.911,18.053z M31.662,18.053h1.481c0.272,0,0.494,0.11,0.494,0.247v0.74
	c0,0.137-0.222,0.247-0.494,0.247h-1.481c-0.273,0-0.494-0.11-0.494-0.247V18.3C31.168,18.163,31.389,18.053,31.662,18.053z
	 M11.911,20.522h1.482c0.273,0,0.494,0.11,0.494,0.246v0.741c0,0.137-0.221,0.247-0.494,0.247h-1.482
	c-0.273,0-0.493-0.11-0.493-0.247v-0.741C11.418,20.632,11.638,20.522,11.911,20.522z M31.662,20.522h1.481
	c0.272,0,0.494,0.11,0.494,0.246v0.741c0,0.137-0.222,0.247-0.494,0.247h-1.481c-0.273,0-0.494-0.11-0.494-0.247v-0.741
	C31.168,20.632,31.389,20.522,31.662,20.522z M11.911,22.991h1.482c0.273,0,0.494,0.109,0.494,0.247v0.741
	c0,0.137-0.221,0.248-0.494,0.248h-1.482c-0.273,0-0.493-0.11-0.493-0.248v-0.741C11.418,23.1,11.638,22.991,11.911,22.991z
	 M31.662,22.991h1.481c0.272,0,0.494,0.109,0.494,0.247v0.741c0,0.137-0.222,0.248-0.494,0.248h-1.481
	c-0.273,0-0.494-0.11-0.494-0.248v-0.741C31.168,23.1,31.389,22.991,31.662,22.991z M11.911,25.46h1.482
	c0.273,0,0.494,0.109,0.494,0.247v0.74c0,0.137-0.221,0.247-0.494,0.247h-1.482c-0.273,0-0.493-0.11-0.493-0.247v-0.74
	C11.418,25.569,11.638,25.46,11.911,25.46z M31.662,25.46h1.481c0.272,0,0.494,0.109,0.494,0.247v0.74
	c0,0.137-0.222,0.247-0.494,0.247h-1.481c-0.273,0-0.494-0.11-0.494-0.247v-0.74C31.168,25.569,31.389,25.46,31.662,25.46z
	 M11.911,27.928h1.482c0.273,0,0.494,0.111,0.494,0.247v0.741c0,0.137-0.221,0.247-0.494,0.247h-1.482
	c-0.273,0-0.493-0.11-0.493-0.247v-0.741C11.418,28.039,11.638,27.928,11.911,27.928z M31.662,27.928h1.481
	c0.272,0,0.494,0.111,0.494,0.247v0.741c0,0.137-0.222,0.247-0.494,0.247h-1.481c-0.273,0-0.494-0.11-0.494-0.247v-0.741
	C31.168,28.039,31.389,27.928,31.662,27.928z M11.911,30.397h1.482c0.273,0,0.494,0.11,0.494,0.246v0.74
	c0,0.138-0.221,0.248-0.494,0.248h-1.482c-0.273,0-0.493-0.11-0.493-0.248v-0.74C11.418,30.508,11.638,30.397,11.911,30.397z
	 M31.662,30.397h1.481c0.272,0,0.494,0.11,0.494,0.246v0.74c0,0.138-0.222,0.248-0.494,0.248h-1.481
	c-0.273,0-0.494-0.11-0.494-0.248v-0.74C31.168,30.508,31.389,30.397,31.662,30.397z"/>
</svg>
