<?xml version="1.0" encoding="utf-8"?>
<!-- Generator: Adobe Illustrator 15.1.0, SVG Export Plug-In . SVG Version: 6.00 Build 0)  -->
<!DOCTYPE svg PUBLIC "-//W3C//DTD SVG 1.1//EN" "http://www.w3.org/Graphics/SVG/1.1/DTD/svg11.dtd">
<svg version="1.1" id="Livello_1" xmlns="http://www.w3.org/2000/svg" xmlns:xlink="http://www.w3.org/1999/xlink" x="0px" y="0px"
	 width="45px" height="50px" viewBox="0 0 45 50" enable-background="new 0 0 45 50" xml:space="preserve">
<path fill="#2E2D2E" d="M8.125,35.061c-3.802-3.799-5.897-8.853-5.897-14.229S4.323,10.4,8.126,6.599
	c3.801-3.803,8.855-5.898,14.232-5.898c5.376,0,10.432,2.095,14.234,5.899c3.803,3.8,5.896,8.854,5.896,14.231
	c0,5.376-2.094,10.431-5.896,14.229L22.36,49.299L8.125,35.061z M22.359,10.461c-2.77,0-5.374,1.079-7.333,3.038
	c-1.96,1.958-3.039,4.562-3.039,7.332c0,2.771,1.079,5.375,3.039,7.334c1.959,1.959,4.563,3.038,7.333,3.038
	c2.769,0,5.375-1.079,7.333-3.038c1.959-1.959,3.037-4.563,3.037-7.334c0-2.77-1.078-5.374-3.037-7.332
	C27.732,11.54,25.128,10.461,22.359,10.461z"/>
<path fill="#9C9B9B" d="M8.804,6.975c-7.342,7.336-7.342,19.237,0,26.572l13.289,13.292l13.29-13.292
	c7.34-7.335,7.34-19.235,0-26.572C28.041-0.368,16.142-0.368,8.804,6.975z M30.369,28.541c-4.571,4.572-11.983,4.572-16.555,0
	c-4.573-4.573-4.573-11.985,0-16.556c4.572-4.573,11.984-4.573,16.555,0C34.941,16.556,34.941,23.968,30.369,28.541z"/>
<path fill="#3D3D3B" d="M9.688,7.821c-7.341,7.336-7.341,19.238,0,26.572L22.977,48.25l13.289-13.857
	c7.34-7.334,7.34-19.229,0-26.571C28.925,0.478,17.026,0.478,9.688,7.821z M31.253,29.387c-4.569,4.573-11.983,4.573-16.555,0
	c-4.573-4.572-4.573-11.985,0-16.555c4.572-4.573,11.983-4.573,16.555,0C35.825,17.401,35.825,24.814,31.253,29.387z"/>
<circle fill="#3D3D3B" cx="22.527" cy="21.658" r="17.345"/>
<g>
	<path fill="#EFEEEE" d="M5.893,25.111c0,0,5.913,9.962,15.834,3.77C21.727,28.881,16.806,19.198,5.893,25.111z"/>
	<path fill="#EFEEEE" d="M22.362,28.512c0,0,8.345-6.952,0.152-16.275C22.514,12.236,14.118,20.218,22.362,28.512"/>
	<path fill="#EFEEEE" d="M23.248,29.038c0,0,8.713,6.486,15.859-3.662C39.107,25.376,29.381,19.083,23.248,29.038"/>
	<path fill="#EFEEEE" d="M13.811,22.414c0,0,3.367,0.287,4.927,1.903c0,0-1.878-3.888,0-7.817c0,0-2.089-1.667-4.748-2.223
		C13.989,14.277,12.441,18.405,13.811,22.414z"/>
	<path fill="#EFEEEE" d="M31.043,22.611c0,0-3.367,0.288-4.926,1.904c0,0,1.879-3.888,0-7.816c0,0,2.09-1.667,4.746-2.222
		C30.863,14.476,32.412,18.604,31.043,22.611z"/>
</g>
</svg>
