<?xml version="1.0" encoding="utf-8"?>
<!-- Generator: Adobe Illustrator 15.1.0, SVG Export Plug-In . SVG Version: 6.00 Build 0)  -->
<!DOCTYPE svg PUBLIC "-//W3C//DTD SVG 1.1//EN" "http://www.w3.org/Graphics/SVG/1.1/DTD/svg11.dtd">
<svg version="1.1" id="Livello_1" xmlns="http://www.w3.org/2000/svg" xmlns:xlink="http://www.w3.org/1999/xlink" x="0px" y="0px"
	 width="76px" height="93px" viewBox="0 0 76 93" enable-background="new 0 0 76 93" xml:space="preserve">
<g opacity="0.63">
	<path fill="#DD6B03" d="M66.43,0.254H10.314c-4.843,0-8.782,3.939-8.782,8.78v56.112c0,4.845,3.939,8.784,8.782,8.784h16.527
		l10.853,18.51l11.895-18.51H66.43c4.839,0,8.778-3.939,8.778-8.784V9.035C75.208,4.193,71.269,0.254,66.43,0.254z M73.621,65.962
		c0,3.723-3.018,6.749-6.743,6.749H48.926L38.223,89.366l-0.925-1.577l-0.271,0.423l-9.065-15.501H10.763
		c-2.174,0-4.107-1.032-5.34-2.629c-1.583-1.241-2.602-3.171-2.602-5.337V8.484c0-3.742,3.02-6.764,6.746-6.764h56.115
		c2.363,0,4.438,1.216,5.644,3.058c1.408,1.235,2.296,3.047,2.296,5.071V65.962z"/>
	<polygon fill="#F4F4F4" points="27.962,72.711 37.027,88.212 37.298,87.789 28.457,72.711 	"/>
	<path fill="#F4F4F4" d="M4.017,9.849c0-3.73,3.021-6.744,6.747-6.744h56.115c1.706,0,3.261,0.631,4.447,1.673
		c-1.205-1.842-3.28-3.058-5.644-3.058H9.567c-3.726,0-6.746,3.022-6.746,6.764v56.261c0,2.166,1.019,4.096,2.602,5.337
		c-0.881-1.143-1.406-2.571-1.406-4.12V9.849z"/>
	<path fill="#DD6B03" d="M9.567,71.513c-1.563,0-3-0.537-4.144-1.431c1.233,1.597,3.166,2.629,5.34,2.629h17.199l-0.7-1.198H9.567z"
		/>
	<path fill="#DD6B03" d="M71.325,4.778c0.695,1.064,1.1,2.336,1.1,3.706v56.261c0,3.733-3.018,6.768-6.743,6.768H47.729
		L37.298,87.789l0.925,1.577l10.703-16.655h17.952c3.726,0,6.743-3.026,6.743-6.749V9.849C73.621,7.825,72.733,6.013,71.325,4.778z"
		/>
	<path fill="#F4F4F4" d="M65.682,71.513c3.726,0,6.743-3.034,6.743-6.768V8.484c0-1.37-0.404-2.642-1.1-3.706
		c-1.187-1.042-2.741-1.673-4.447-1.673H10.763c-3.726,0-6.747,3.014-6.747,6.744v56.113c0,1.549,0.525,2.978,1.406,4.12
		c1.144,0.894,2.581,1.431,4.144,1.431h17.695l0.7,1.198h0.495l8.841,15.078l10.432-16.276H65.682z M37.854,84.663l-8.68-14.802
		h-18.86c-2.597,0-4.711-2.116-4.711-4.715V9.035c0-2.596,2.114-4.709,4.711-4.709H66.43c2.595,0,4.707,2.113,4.707,4.709v56.112
		c0,2.599-2.112,4.715-4.707,4.715H47.365L37.854,84.663z"/>
	<linearGradient id="SVGID_1_" gradientUnits="userSpaceOnUse" x1="39.1074" y1="3.1045" x2="39.1074" y2="90.9734">
		<stop  offset="0" style="stop-color:#F7A83B"/>
		<stop  offset="0.3949" style="stop-color:#F6A33C"/>
		<stop  offset="0.8553" style="stop-color:#F49540"/>
		<stop  offset="1" style="stop-color:#F38F41"/>
	</linearGradient>
	<path fill="url(#SVGID_1_)" d="M71.613,4.778c-1.188-1.042-2.741-1.673-4.446-1.673H11.051c-3.726,0-6.747,3.014-6.747,6.744
		v56.113c0,1.549,0.525,2.978,1.406,4.12c1.234,1.597,3.167,2.629,5.341,2.629H28.25h0.495l8.841,15.078l0.926,1.577l10.703-16.655
		h17.952c3.725,0,6.743-3.026,6.743-6.749V9.849C73.91,7.825,73.021,6.013,71.613,4.778z"/>
</g>
</svg>
